<mxfile host="Electron" modified="2025-02-22T14:25:36.755Z" agent="Mozilla/5.0 (Macintosh; Intel Mac OS X 10_15_7) AppleWebKit/537.36 (KHTML, like Gecko) draw.io/24.4.8 Chrome/124.0.6367.207 Electron/30.0.6 Safari/537.36" etag="yjSVQO6xDdARY9bTJ8uk" version="24.4.8" type="device">
  <diagram name="Page-1" id="xXYYxoeVX_stT5aP_J20">
    <mxGraphModel dx="1728" dy="674" grid="1" gridSize="10" guides="1" tooltips="1" connect="1" arrows="1" fold="1" page="1" pageScale="1" pageWidth="827" pageHeight="1169" math="0" shadow="0">
      <root>
        <mxCell id="0" />
        <mxCell id="1" parent="0" />
        <mxCell id="w8iW2eLROjgxSak4wuvQ-18" value="" style="rounded=1;whiteSpace=wrap;html=1;fillColor=#cce5ff;strokeColor=#36393d;" parent="1" vertex="1">
          <mxGeometry x="-160" y="5" width="900" height="555" as="geometry" />
        </mxCell>
        <mxCell id="nFp39w7GNXDuxzRP0OJa-1" value="" style="rounded=0;whiteSpace=wrap;html=1;fillColor=#f5f5f5;fontColor=#333333;strokeColor=#666666;" parent="1" vertex="1">
          <mxGeometry x="187.5" y="20" width="472.5" height="520" as="geometry" />
        </mxCell>
        <mxCell id="nFp39w7GNXDuxzRP0OJa-3" value="" style="rounded=1;whiteSpace=wrap;html=1;fillColor=#b1ddf0;strokeColor=#10739e;" parent="1" vertex="1">
          <mxGeometry x="310" y="260" width="270" height="270" as="geometry" />
        </mxCell>
        <mxCell id="whFh8DAobWH6htXH0CzP-2" value="" style="rounded=1;whiteSpace=wrap;html=1;fillColor=#dae8fc;strokeColor=#6c8ebf;" vertex="1" parent="1">
          <mxGeometry x="400.01" y="280" width="110" height="180" as="geometry" />
        </mxCell>
        <mxCell id="w8iW2eLROjgxSak4wuvQ-6" value="" style="rounded=1;whiteSpace=wrap;html=1;fillColor=#f5f5f5;strokeColor=#666666;gradientColor=#b3b3b3;" parent="1" vertex="1">
          <mxGeometry x="310" y="50" width="260" height="150" as="geometry" />
        </mxCell>
        <mxCell id="w8iW2eLROjgxSak4wuvQ-7" value="" style="rounded=1;whiteSpace=wrap;html=1;fillColor=#f5f5f5;strokeColor=#666666;gradientColor=#b3b3b3;" parent="1" vertex="1">
          <mxGeometry x="310" y="50" width="105" height="45" as="geometry" />
        </mxCell>
        <mxCell id="nFp39w7GNXDuxzRP0OJa-2" value="&lt;font color=&quot;#ff3333&quot; style=&quot;font-size: 16px;&quot;&gt;&lt;b&gt;服务主机电脑&lt;/b&gt;&lt;/font&gt;" style="rounded=0;whiteSpace=wrap;html=1;fillColor=#dae8fc;strokeColor=#6c8ebf;" parent="1" vertex="1">
          <mxGeometry x="187.5" y="20" width="102.5" height="50" as="geometry" />
        </mxCell>
        <mxCell id="nFp39w7GNXDuxzRP0OJa-4" value="" style="rounded=1;whiteSpace=wrap;html=1;fillColor=#dae8fc;strokeColor=#6c8ebf;" parent="1" vertex="1">
          <mxGeometry x="310" y="260" width="80" height="50" as="geometry" />
        </mxCell>
        <mxCell id="w8iW2eLROjgxSak4wuvQ-1" value="" style="shape=image;verticalLabelPosition=bottom;labelBackgroundColor=default;verticalAlign=top;aspect=fixed;imageAspect=0;image=data:image/png,iVBORw0KGgoAAAANSUhEUgAADwAAAAhwBAMAAABikNZBAAAABGdBTUEAALGPC/xhBQAAAAFzUkdCAK7OHOkAAAAVUExURUdwTABRogOc/QBRov///wF1zZa86Of1pIUAAAACdFJOUwCF60G6lwAAIABJREFUeNrs3VFO2zAAx2EqLgDqDRzlfY2ViyTq/a+yDpgYWzFNVtsh/j6mDVbtBR7++sVJ9/AAAAAAAAAAAAAAAAAAAAAAAAAAAAAAAAAAAAAAAAAAAAAAAAAAAAAAAAAAAAAAAAAAAAAAAAAAAAAAAAAAAAAAAAAAAAAAAAAAAABANofTKR6P5X578i0HgIeH51iWAQaAw/Op8P7GZwsMQOuejsX39+J08p0HoGWPsRbfewDadThWG2ANDEC7+xsrOj35AQCgfzUwAJRRd389jgRAowFceX8lMAACWAIDQBsBLIEBEMAeBgaAVvZXAgNggJ0CA0B2h03srwQGwP5KYADI7HErAyyBAWjJMUpgAChtM1egJTAAAtgAA0ArA+waNADtiAYYAJoO4PjDzwMAA+wQGAByidE1aAAo7WCAAaD5Af7hJwKAAXYIDAB5PEbXoAGguGiAAaC4gwEGAANsgAEwwO7CAoA8Hg0wAChgAwxAE45bG+DoZwKAATbAAGCAAWD/AzyOYxhDmN4+Qv/y8f7Z29ev+vc/p6sff+rjbIABMMDX9zd81F/57PWrqX8Z2Lc/PtF/nOHz7EFgAAzwvxJbeh+zAQbAAP/tnHt/Q2eAATDAfxlCfrMBBsAAfxRKMMAAtOpQ6wL05xehDTAAzQ5wkf0NvQEGwAAnnkAqeg3aAAPQ6gBPhQZ4NsAANOpY7wr0J9egDTAAjRbwudQAX01gAwxAowM8FBtgBQyAAS5+BKyAATDABhgA6g5wMMAAYIABwABnfw7JAANggCu8G7QBBsAAG2AA2N8AuwQNgAEu/V8xKGAADLACBoC6AzwYYAAoP8AFL0EHAwyAAVbAAKCAAUABK2AAUMAAoIAVMAAoYABQwAoYABQwAChgBQyAAVbAAKCAAUABK2AAUMAAoIAVMADkK+D5xbm/vqPnX/rPMvfy2jQpYABYXMBdMo9venFWwACwsIDfU3X9i5MCBoCVBbx4gLvUACtgAAxwqoDn2zY2uc6DAgaAZQU8r45cBQwAFQq4U8AA8P8FPK0eYAUMAL8dyxWwu6ABIDHAY7JUlxbwrIABYG0Bx9s21hkwABQr4FkBA0D5AnYGDAB5Cni+QwEPChgAXi1/Dviul6AVMAAKOE8BdwoYAG4Z4CHTTVjuggaAhQUcnQEDwHcqYM8BA4ACBgAFrIABMMDZC3hUwABQqoDdBQ0AChgA2ihgZ8AAoIABQAErYAAMsAIGgP0UsDfiAAAFDABtFLAzYABQwACwwwKeFhawAQbAACdKdcpUwJMBBsAA33RWu7SAvRc0AKwt4PQl6OgMGAA2VsDOgAEgTwG7CxoAKhRwXF3AzoABMMAKGAB2U8DuggYABQwAuylgd0EDgAIGgDYK2F3QALDdAnYJGgCKFXDyErQCBsAAK2AA2NYA3+UMWAEDQGKABwUMAN+ggGcFDAAKGACaKGDvBQ0AChgAFLAzYABQwACggBUwAAbYO2EBQNUBjt4LGgAUMAAoYGfAAKCAAUABK2AAUMAA0HABuwsaABQwALRRwM6AAUABA4ACVsAAGGAFDAD7KWB3QQOAAgaA3RTw7AwYAMoXcFTAAKCAAUABK2AAqFDAyQFWwAAYYAUMALsp4E4BA4ACBoDvU8BBAQPA1grYO2EBQNUCDu6CBoDyBewxJADYRgEnz4A7AwyAAXYGDABNFLBL0AAYYAUMAN+zgN2EBQAKGAB2U8DJe5mdAQOAAgaA3RSwu6ABoEIBDwoYADZRwM6AAaBCAXcKGAAUMADsr4CTAzwpYAAoVcDuggYABQwAbRSwM2AA2FoBG2AAWF3Ac54C7gwwAAZYAQNAvQEeyp0BK2AADHCqgG980kgBA0CeAb7rc8AeQwLAAKeGUgEDwNYKOHkG3N/2Lw0wAApYAQPAxgo4rL4LenIGDAAKGACaKGDPAQPA6gJe/05YbsICgIUFfFvkjkvvgnYJGgADnCrg30s5Xn1xjON4eXGeUgM8BAUMAMsK+DKkfT9dhBUu/6oPv34pYABYVMBfbuxXL/dX//4ne3eb27axgGEUhjeQQjugwP+xBlxIOeD+t1I7sZM2JUckxeFQnHPuB3CvgypqpT59ObRsAQMgwOkFnIUAAyDAjyxgAQaA51nAzoABEGALGADqWMACDIAApz5rQ4AB4DwL2BkwAAJsAQNAHQtYgAEQYAsYACxgALCABRgABBgABFiAAUCAAUCABRgAjhfgKMAACLAAA4AAA4AACzAAZA5wv1uAgwADIMBfbhYwAJx5AQswAAJcYAG7BA2AAO//45BaAQZAgPdfwAIMgAAX+D6kqwADIMD7BzgKMAACvP816CDAANTpZTTAXcEr0AIMQLULeKfvBA4CDIAA738NWoABEOD9r0FHAQZAgHefwBP9FWAAKg5wV+gOLAEGoOoAh65rc34EVjvZXwEGoOYAf4g/DN2fvv7P9/9+//ePfw1DHD71w/Ce2L79/J8fX40//xN/STyoAAPU7OWvSlxSAS5DgAGqjW9AgAHYu78XDRRgAPYmvwIMgPkrwADYvwgwAPorwACcw4v6CTAA+ivAANTABWgBBmB/Pn9DgAHYnwvQAgxAAS5ACzAABrAAA2AAI8AAGMACDIAAI8AArOYKtAADUIDuCTAA+3MFWoABKMAVaAEGoADZE2AA9ucKtAADUIAr0AIMgAALMAB1UD0BBmB/fhKwAANQgCvQAgyAAAswAAKMAAOQiegJMAD78zEcAgxAAa+iJ8AACLAAA1AF92AJMAACLMAACDACDEAeboIWYAAEWIC9JAEEuHvXLzV0Xftv15FfE2OcVaMYhzaHrrv7+B/Pvbv124vpJy/AAALcN/m0sbufwIyP34Q7Cc752M0w3WABBqg+wG2TV3unv7kfP1ngoSn06AIMUHuA+9wJatL9zf7wbckHb64CDCDAB2vQTv1PTOAdHrwRYAABLtSg1DXo2w4JHMocAKfzL8AAdQd4jw3YXCc3aNcXbOA+T74VYAABLrMBExeBh6ZgA7uST16AAaoO8E4NmpzA+zx8U/TBrwIMIMBFLsJO34nUl2zgTv/wMfHkBRig5gDv1qAYij58W+r+r+n8CzBAzQG+FR2BhQO81/wef/YCDFBzgPuiI7CWBdwKMIAAHyrAt6IbtLGAASgU4KboCBTgkwl/eZ8BzApwJ8DFbkH7dsqXmAIDHGwBNwJ8/gBfXFkHeJIF3JdM4H5PfvQE/KQBVmCAOQG+VRPga9EFXEeAf77C3hQY4EgLuDneAhbgHAPYBgawgO8k0CXojX09s+/ebAAHWsDRAj55gH+/wN682wAOs4AbC/jsAb78fm6+GQnAAp6+BC7A+V5fCgxwmAUcy34nrgDn9uqDNgEOuYDD4QJ8E+AtXf7z7BwDAxx5AXcW8Hn88fTebGAAC9gCLvHyUmAAC9gCzu7yvyfoKjTAIRZwtIDPHOCxV5cCA1jAFvDuA9hFaAAL2AIuE+A3GxjAAraA935xuRUawAK2gDN7DRMF9r4DsIAt4HwuQYEBLGAL+AivLTdiAVjAFnC5AL8pMCDAFrAFnMklJArsrQcIsAVsAe89gP1oQoD5C7gf4jAM/VRM+r5tk7XpH13A/bvpP3qf+HLbTv3e5i7gdhi6buoBPv7w0w/+8fuaePiTB/g1GWDHwIAAz2vQVym7sS9eY/fji3EY/YEL8f3LMcSHFnD4/JV96o/S9Qu/OHMBX9O/tc+vjX6x+/zi2G/85AG+pAMcvPkAAZ7ToGSdr7PqdXtgAV9TX/yd0T71O+9XL+CZj5784q22AL/c6a9jYECAZzVo1jweDXCb+uLcBXydl9Hb6i+GWU8h/ejJkSvALkIDbL6A4+rrt2GLBXxd3cfFC7hfPY+rC/AlKDBA7gUcNr0Eve0CbjZYwDMD3K/+fZ+wSfcHsO8GBgR4RoPaTAt48RnwtleI22V3oFnAmw5gx8CAAGddwHHbBbx+oK5fwOsDXO8ZcJjFBAYE+KEFHLIv4Lh6AS8N8NIF3Arw3NfViL+9AwEBzr+AH7kLOm6wgPs8Czhumf/TBPgyL8Dhu7cgIMCHXsDrZ2abeQG7BP1QgN++eQ8CAmwBP3gGbAEnX1buwwJYsYCb51jAfckF3FnAv7zODrD7sAABzv59wJss4MWVa/ZbwAL8yyWYwAAWcN4FHAX4oQD7wYSAAD/FGfCZFvB5z4AXXIF2ERoQ4OddwLHoXdAW8KMBdhEaEOAzLuB2gwUc8gT4tAv4JQQTGMACtoCPHmAFBgTYXdDLF7Az4McD7H0ICLAFfNvvEvRpF3AICgyw0QKe+VGUocgCjs9wBtzVs4BflgfYfViAAB99AS8O8LXkAm6rXMArAuwUGBBgC3jTBRxrXMCXYAIDHGkB35wB17GAxwPcRRMYoMwCvjkDrmIBj1+B7kafrgkMCLAFnGUBxwoX8HiAbxN/sU1gQICdAVvAmxi/At3/58/j2ARWYECA1y/gTQK87QK+WsCHCPDUP3G4CA0I8BYLuHMGXP0CnjoCvl9gExiwgLdcwG3hM2ALeGevk1eg716E9nYELGB3Qa8JcL9wAZ8zwNNXoE1ggD0X8DZ3QUcL+KkD3CX/gn/52/sRsIDdBb3NAq7vk7AmvwnJBAawgC3gfJJHwBNP+pfv3pCABbzdAo7OgGs6A04eAd8tsAkMWMAW8Oiv2nQBn/ES9J0r0PfuhHYjNGABZ1jAm5wBh+TDP9cZ8LXOAJvAADsv4O6cCzg4A/6X13D/BRVNYIAVC7gru4C751rA1X0S1mVGgJMXob0lAQvYAraAN3k5hTD88eezdREa4OkWsDPgQ3sNs/6JKgowwBkWcLCAj+IyL8CNU2CAMyzgmZXzSVj5hTDvL+jVBAYE+OwLuLWASwe4b0xggKdfwCU+Catdv4Ar+ySsl5lXoNMFNoEBC3js75edM2CfBT1l/JuQxhZwfzWBAQE+9xlw9gUcnAHfCXBjAgNssIALnwF3uRdwZwGvN/sI+P1PqgkMCLAFvNEl6Oq/D3jBEbAJDAiwBbzke2bcBZ2y5Ar0+BV4AQYs4AwLOBT+NqTD3QXdVhHgW7N8ArsGDVjARRZwv2WAfRLWfhYcAZvAgAAf7ww4FD0D7pwBr34tXZYcASc/EtoEBizg6hZwZwGv9broCDh9EdoEBizgJzgD3nQBBwt4rYVHwCYwIMB5Pwlr5g3MFvCzB/hl4RFwegJ7awIW8KIF3Jf4KMpNfxrStt8HXNNnQS/7LuB7n8bx3XsTsIAfPAOOZc+AWwu4ZICTV6CdAgMCXOwMOBxuAe/4WdAnC/Dye7CSPxjYBAYs4LoWcFj6SVg+C/rTZfkRcGoCuw0LsIAfXMDX7As4ZF7AjQU8x/Ij4PQE/ubdCVjAB1/AMfMC9tOQMgbYBAYE+Hk/CavsAnYX9PQr6e49WCYwIMAbfR9wX98Cdhf0T+uOgFOfxiHAgAV88LugD7yAKzoDXnkFOjGBXYMGLGBnwBbwqgB3cwLcuAYNCLAFbAFv+UKacwRsAgMCbAFbwFsHuG8em8Den4AFnOsu6LMv4Hrugr6sPQJOTeB/2LvX5FSVKAzDlcoEYjmDpvhvoJgIlPOfylFzM/sIEaW7uTxvsvdJ4tlpUeDlW72ANxsoAAlYApaARwu4uTMBl2rQAAg4wt2Q4t8PeKlzwOWaBPx4D5YIDICAM9wPWAJeiXGemQIemAUWgQFIwIvtgi51Qafg9TkBuxgHAAJe3Rxw8XwCDtGf2vKF80wP1lAEJmAAEvBSu6DzJuDR+t+ogMtODRoAAUdLwLUEvN4E/PhlOP5ohLaJApCA55uAuyXMAa9bwE/2YA3MAovAACTgNc4BFxLwNLw+OQXcH4EJGIAEHKULupOAVyvgZpSAeyOwbRSABKwLWgLuY/+8gEVgAAS8uPOAZ5yAt9IFvX+yB0sEBkDArgUtAU+zFo3rwRq4HuWbrRSABDz9aUirSsDbFfDrFAIOatAAJOAtzwFXkwq42K6Am7H+7atBEzAACVgCjlUdX6OAq9ECDmrQACTgDd8NSQJ+gH1UAR9spgAk4PznATfmgJexEo2fAu5tw1KDBiABb6ELupGApxFwCGrQADDfBLyMOeA7T/Xd7BzwyyQ9WCIwAAKecwJuYidgc8Dj2U8l4FIEBiABzywBF1kTsDng8QKuHhFw35lIBAxAAl7/HLAEPJ6JerDUoAFIwJMm4EICXvkc8Mt0Ag4EDEACnj4B11Mk4ObxOq8EnHkdUoMGgKQJeHwJenYJ+PEu6E0IeD+hgNWgAUjA018JK08CzjsH3G1VwMcHBRzckxCABDz5HHCzwTngTdwPeLom6P4I/GZTBSAB503AC7sb0mYT8KP+Da0aNAAJOMXNGOIn4BA7AZsDrqcUcE8bFgEDkICnPQ1paecBhylL0CsR8JRN0P1Xw3qzrQKQgLeXgCN1Qa9kDvg1iYBFYAAS8AYT8J0ht91mAp60B6v/VGDbKgAJeFkJeC7nAbebEnD7hID1QQOQgOd4JazZJeBy601YU16IcuhU4IONFYAEPO7BSW7GMJcEHKZMwOV6BfyMf3sisElgABJw9DngsKQEvPkS9MRN0P1tWDZWABJw7DngdqTIFpGAKwJ+sgb9ZmsFIAGPsvOcE3ARuwu63GYCrp4TsGtxAJCApxBw5gRczDcBr2MO+HXqHiw1aAAS8N0C7u5KwNFuR1jETsDFw09tAwk4goDVoAFIwDdM+biA61gJuEh2JazGhTj+x6S3YhisQRMwAAk4YwJuwsONzo93QUvAiQXsRCQAEnDsBDzJecCTtkGNPobYeAKO0ATdVxkhYACbTMDdXQmxGgqB1RQl6OZxAYfICXg4nIcNCbgKatAAMHUCboYqhs3tltam/8G7E3A3UNwsBp/cXQcHf6S3ZsjO3UDnUXmf1wn4rj7og+0VwAYTcCjL8tieuL3DbNvex8rPR+8vNd4e4XjsHT0cz3THnvHb9vzUw+MJ+LL0ZdnzO4aW7/TwaejTkwtrFXCMJujTK6oGDUACjsu9CTgS9ybg8PBTKke2Gq1CwLFWDAIGsMkEHId6dgJOePSxCgHfaIJu2jivjUlgABLwahJwkfXoYxUCjnUAZxIYgAScPgEHCXjRCbiKtmaoQQOQgCVgAu5NwFWsF0cNGoAEbA6YgPsF3EZ6awgYgAS8vS5oAh6x/rTxVg0CBiABS8AE3Lf+TPPWFCaBAUjASQUoARPwwLphiwUgAa8iARcS8JPs460+JoEBbE/A9WYSsC5oAgYACXgeAq4JeCYCvjkJvLPJApCA15CAOwl4+tWnirpy2GQBSMASMAHH7eFTgwYgAUvABHz/6tPGfH0IGIAELAETcMyzkPoE7ExgABLwShMwAY9hH/UFJGAAErAEnEr/yxdwFfcFUoMGIAGbAybgmGch9Qn4YKMFIAFLwAQcNQGXatAAJOCkCbjKqkACnk0CNgkMQAJeq4Al4CeJXL8wCQxAAk4owNwJON3o9SoFXMVePwgYAAEvX8DzOwlKAv6zQnKw1QJYr4DbnApKWQKvJeDJBRx9isIkMIAVC7jKqaCUCTxvAl6+gF9iHz25HwMAAk6agFM5sMyav8vlC/g19tGTSWAAGxNwnTkBpxJwkVXAxSoTcB3/IOVgswVAwFHOQkon4C7r0ccKBLyPXT0hYABbE3CbUUEJS+B59V+vUsBN/BdJFxaAFQu4yplAk4XQcob6l4DvWEVstgDWK+A0KbCvAp3KgV1W/XcrEHD8NUcXFgACThmAEwl4jqO/LX3laRMcpBEwgBULuMkpwEQhtMg6ekfAW7laCQCMEXAKA3cDAm6y+r8l4EdXnibFYdLBdgtgxQKOL6GmHhJw9DJwOTR8m230xSfgFALWBg1g1QJuqjamhtr6D9qow5fHwcGPZRnVv/2jS8DaoAFsXcDnnWnddd3xN+EYTm4qw4egvjT19d2Ptsrw+5uvP6df0R2bpr6D0/DH5hjay+/9+jh9+/Hx8XX4fPj7B2X4+Z++nmj782+P5fG0TPeM3zSfy95+L9nniP87lvj8u/3++mPsqwd/Xr/mNPZQ7f0k4N3b7uX0uYCV5zXF/DkBA0jLLgnvp319PZbm/Pn3x0kzN344Ceff013+XKmsu3rw67vm5wdPDXe1TF3z8Xn5z8fXvz8+fnB57PtjBO+7r3ck+rv/fNh+TZCAtUEDSMhJivsaiM3+fTd/Aa/hrskAllIT3jEDUvH+lMpeU5xD3WmDBpDIv8IvUhr4mRCcRMDaoAGkQfxFYp4w8D6FgHVhAUiTf/kAyzHwPskZ1AQMIAXqz0jP27wFrAsLgAI0GHgmAj7YWQDgX6ygE2vWAtaFBSA6JoCRicNjGfiGgBNdN5uAAUwKD2BZGThNAiZgALF5pQEsaho4xc2QtEEDEIAhAv8t4Cj3cS60QQMQgEHA8xDwwR4DgACMrdagU5WgTQIDEICx4gg83sCpEjABA4jKngKwsAh846CxCom6sAgYwFQ4BxiLmwVOJuBuksAOAAIw1hGBkwlYGzQAAgYBDwq4JWAAKtBA5Bp01gR8sNcAMAl6oJGf2SbgkoABqEBDDTp9AtYGDUAFGmrQg4eNcRLwzVsC220AUIHGRgVcJ0vABQEDUIGGSeD0CVgbNAAChkngoQQcCBjAojAFjCXWoCVgAIvHFDCWKOB0CVgbNAAChhp0hgTsRGAABAwCloABrAc9WJCAnQgMgIBBwI+utyGhgN/sOQA8jR0/5sHh2fW2dR4SgCXhLCQsUsAJEzABAyBgrJlxjU0JE3BJwAAIGAScPgEHAgZAwCDg/gQcnIcEYEns7fixkgTcJmyDJmAAcQXcNRfqrrv8Vf/z0dS/P7pf/2nO/8v5H179pGlC15anL+7hNHJ5oeiuaS+cv/h4tDp/W17RXlOWTbj+/vSM7hXCZaiyDNd/ff/Wf8e54hj6/tnlCdTdfYMfy4cp2u4fLkOf3477Rr+8978/69+/sO5Gc3kKQ6/+qLJuygRcEDCACLz27w+P0XZoofzTgsc23ujF3xKKOPq5qWd48btjzNH/PgJomphPoH/hRwk45RzwrRfMrgNAtATchBDTQu2xyybAUJZdRv+eX9hyYPAq7uDlbaH8euejvva9w48R8EvKd60kYAAJBRxZQT1nVyYbvRyO3yHj+E0bsi59voV/VsCBgAGsoAQdXwJDOawKWR3UZF34kHfhE7z2YWkCdiUOAOkScAoF9UfgJq/+kxx9FDntP7TwVb6Fn62AnQgMIJ2AU+yFe4NQgiLoYApMosBeB7ZbWHgCBoDbJegkEbTXQWkc0JtBEy18ueWFL5bVhEXAAJIl4DQBuC8IpXFArwGbDS98nXXhF5WAnQgMIIqAU+2Gi5yDh3xNUAP5v93wws9XwK7EASBVCTrkFHCVdfR0/i/mN3q6d75cVgn60WtRvrztrj5VrQH8mYCbrLvhassOavMufLLXPqw5Ab/svth/XIH18/P9++f2OwD6StBZd8NVVgOmO/oIWQUcMgu4W5SAy7sEfBLvx+b0c3n0/61d3z892fjF7gdQgp5VAk4nwFDPT4Eh79HHshNwm/TV+ufZ7r7sO4LdTlUakIBzObCbn4M2IuDcRx+LT8BXz/ZtV+8fvq3n/k0QBgg4Rw4qtuygvALu8g5fLD4B/yTfp2+EbFIYUIKex0wgAUvAc0vAfVfiOJedu3oCKBiQgFPvhov5zQFnHT7hwhcS8HPv1WG3r6fknYOBrTG7HJTQQd38isCZBbycBHzryDH1sdrU7HZvdkgAAWe0QJXXgJkzqAT8xIrbJj5Wm573d1frADYu4HS74XLLJehubi997qOPGSfgRAJWiQYk4JwW2HQCrvIKOPPRx4wTcFGn410IBiRgTVhrngAPEvAsE7DzkgAJWAKWgM0BZ0nACtGABGwOWAKO98bHSMArEvDYVwOABCwBLzoBL6kEnfYCMmV6Adf/sXd2uY3jShhN4BU0sgMJfE+b4EZEaP9bmaQ73XPnQlJIqoo/xXNehViWY+jTqSrSP4lgAAwYA57FgEcqQdc14BYBTB0aAAPGgDHg6Q148W1AggEwYJsG3N/vETAFjQEjwQAYMAY8nwE/Bwpg+z3gr/0puUcBYMCTBPDUBlzvs3caAbzV/bSYxQIADHhQA44YsGwJ+ln5u0IjGAAwYAx4NAO+H8CPKYawfvPKfQoAA8aA6QFPGsCxaQL/QIIBMGAMWPf0GPCdALbZA6YRDIABY8AYcOcBHGo/rJHAAIAB0wMWScCRpqArB/DqSWAAwICZgh4/gFUM2FsOYIahATBgDFjz4kPTsw8VwK+TGTAJDDCxATu3h/3Ujfd9d9vZUfdx6PhgagC7ED/PcPr6n5y+tbOT5xjw9nH6/fTu/PH6p6ff9rsX/3ny8+v79dme/l/cx5t2N4ewPv59++npt1+fzH7+jzl5cxoBbNyASWCAWQ3461CMhwe/ouzw4Bq+Dm7FGfTn7nf0En9f4/DgEi5yNWZe/PENfr86+PXOw7O8B/zn+sJ2cQ3HB9fPo9GHcKMEvX0dO3z4WuPVRxMvHugwYPalBCCA0wx4vTroLu/gVwcTAzimpPPhQZf0sokReHyH9ykZ5Mt7wOvVCVzSg8P1f/TG6cu/FhgwCQxAAKfdx1zTAE5LiJCbzjH34oN2BAbRAHbqARzT/m2bwhT0a93pQddHAPuf3LIAMODjgy0MONYz4OyUk7j4RMssf2q6cfrYlwFrju93EsA4MMB8BrymJcnlwWDcgDMlMHUKOvHZJ/eftkoEcPnX4nYAH/0aw2LfgJnEApjPgGOxHquXoNMMOGgZ8JJ28eUTaLE4gEVK0FHga1ErgGcwYP+TBAaY1oA3yQaxaACrGfAqUJ8uXwcsEcA3DNirBLAbLYD7MWDvuWsBzBXA5c0+dQNOq9/eMeDEAO7OgFdZA35mHsQvKVf1AAAgAElEQVSAGcQCAG0DXpUN2DU24LQz3KgNlBtwVO8BX8abLzVgnQB+dmTAMXwQ9/8SY6ANDACSPWBXnp7aBhyzDVi00apuwLH4qcllB/Az86CpAF5yovdqY7bPvcNcjCQwAOgb8KptwB4DljLgG6evb8CP7gI4xrinV8F3X57CFKEB5jTgZ29DWLIGLNto7diAUwM4sQT9tB7A36VluNgr/LSuHUlgAAIYA06bQCs34KeAAS8tAljHgJ1KAPs2ARyju/G6kSI0AAGcmEHP4owdogds04CfcxhwaBDAIWSUnY9r0TsKDEAAq6wDXpuWoLOXIfVswJcJSA+4gQGHRWblk8svRpPAAPSAxQ04NA7g7gzY6xiwG92AXxsHcAiyLedAERqAAO7PgN3UBuwtGrDTCeCtWgB/LldzsmfItOCfJDAAPWD9jTgw4Eo9YD+6ASsG8Pq/7qt1npgzkkURGmC6EjQGjAGnvTdbAfzv57CLu+83nQGK0AAY8IhT0LIGHHI/GetT0C33gq68FdbXpW6KGZ9biEaBAeYIYI8Bd2nAcV4DPgrgoBvAe9CU33/r0KkJ/M79CwADLj44mAFnfzJOwIDLWwMxM/6/yf9nXz3g6gasLr9/2SJFaAB6wH0Y8CDrgHPdfQwD9hjwVypWy9/0VjBFaIC5StC5U9CjBXD5FLRSD7htALt+DbjyQuC6JLaCUWCAqUrQGDAG3IcBPywH8PFKaRIYYO4SdL89YG9zCrq8ByyxDth1uw7YtgGnlqEpQgNgwExBGzXg1BL01kcAb9MlMAoMgAH3bsB+winomiXoBgb8Yj2AFxdQYAAMOFV1MOCeDDjaNuCj7+5zscWKAgNgwCNMQasZcBzegEOLHnAkgGsk8I837mIAGHBBAC/aBhzVDVhik04MuCiAKy8EbsP+vQNzFwPAgGUyqMMpaIkS9BAGHMYy4DfjY9CpEcxdDAADLkgB0R6wn9CAPQZsPoCXSAADYMA3DTgklaBDsQEHkz1gJ7EXdNqzz2g94NdJAnghgAEw4M6noDHgyQz4dYYprM//waUD//zBXQwAA1YrQU89BX3DgNV7wK4/A95MKvBlAnMTA5jZgCMG3GodcFsDTn04UArgl8S9RGwnMDtxAGDAij1giY04ZAx4Kw5gkz1g13YnrJkC2LERBwAG3KIHvAxrwCsGrBnAb/ME8HkCE8AAUxtw7MOAb2QnPeARe8BTBfBpAhPAABhwn0NYGPBkBmx1Cms53ZWSAAbAgNtvxBH0Dbi7HnDi+1baC7pDAzYcwMffV2awADBgyz1g368Bx6kNeJaFwOcNGwIYAAOepQds3IBle8BrkwDeDQfwSgADYMBlJWhtA1b7NaSODXjuHvBM65DOPrR37mEAUxuw6Drg8h5whZ2wujNg2Sno0XrAqY+PlpvABDAABty7AScHsKgBsxOWbgC/zRXADEEDYMC1lyFV3YpS1IDXTAPO/kHe8p2wLKwDfnnMNQbNTtAAGHDtZUgSU9BjGPBzLANeWhvwY6oxaMcMFgAG3G4KOgxmwG4sA5b9PWD9KejJ1iERwAAYcGkJesIe8IoBVw9gu2PQrEICwIAx4EEMeG1rwI0C2O4UVmQGCwADxoDbGPATA/5/ptqMkiFoAAxYdwgLAx5nCrp5D3iqAHYMQQNgwL0acIdT0BiwcgDPNAa9YsAAGDA9YKagezHgx0RTWJEZLAAMuNSAJ1wHjAErB/BMY9AIMAAGjAEzBd3LFPRMm1E6AhgAA6YH3MqANww4xYCNTmHRAgbAgJmCZgq6nx7woQHbnMKKDEEDYMAYsNkesB/OgCcKYE8AA2DA8/WAPQbcbQ/4McteWIctYIagATBg4wYcZzHg8XrA82xGSQsYAAPGgJmC7qkHfBjAFmvQkQAGwIDLDVhgHXB5AFswYKagE7/AFgPYE8AAGHDTKejyEjQ94OoG3K4EbXArDscMFgAGfKMOKiCBGLARA3ZiBvw2RxN4ZQYLAAO+0eyjB4wBy5egJwlgKtAAGHBjAx5tCtp1YsAiy5D67AHPMYXlCGAADLixAdMDHmgKuk4AzzGFtdICBsCAMWB6wH0Z8MsUU1ieFjAABvzNzZQpaHrAtQN4iiYwFWgADBgDpgfcmwHP0AQ+noEmgAEw4NQe8JMeMAZ89dkTwGdEKtAAGDAGPKYBP9UDuJ0Bz9AEPqxAv3P3AsCAMWArU9A3StDtesATNIFZhASAAWPAxnvAYxrwI/E5ylgFmkVIABiwdAArGXByAJc3WnUMeFF6a3YM2H4TmEVIABjwzV9DGtaAfUsD3jDgkgC2VINeaQEDYMA3VUe7Bxy0esDlhr90YsBaPeDYrQFbmsKKtIABMOBZe8BNDZgp6G95M94E9rSAATDgkaeg2/SA1Q04sTUgYsC5F19pHfDJFJadJrCjBQyAAfduwDIl6KZT0Dc++okN+GG7Bn3cAv7BvQsAA5YewhrNgEV7wE/RZ5/GPeC1VgAbn8KiAg2AAY/dAx7DgG+UoCc24MMvsZkmMBVoAAxYpQcsasBh/B5w1wYs2gMWDeA3y03glQAGwIDZCQsD7tSAH5Zr0J5FSAAYcPdT0KwDVpiC1loBLhrAlpvAjgAGmN2AIwbc5TpgpqCt16AjFWgADJgp6B7XATfuAfvi/3yFAN4NC/A7dy4ADJgp6NW2Adf8LYjyALa7EnilAg2AAY/eA8aA+zLgKJoqr2YXIlGBBsCAMWAMuGMDPl4JbKEJ7NkGCwADHmAdMD1ghSnoMXrAx01gAzXoSAUaAANOvNE3NWCZEjQGXMWAZUvQZlcCR/ahBMCAJaagg3IPWKYEPZYBJ75vfQN+Cgj4jQA22gQ+mYGmBQyAAWPAxgxYK/839QA+bgIPX4OmAg2AAcv0gENvPWA/vgHL9oBvlKBzvxbCJejjJvDwNWhPBRoAA75hwK6aAbfZCUvdgGMvBrxIPppIG/DDYg16pQINgAHLbPpb3AOuugwp9wHD+BT04nWaD9IB/GpxIVJkGywADPjObbhjA/ZDGHA3U9CihRHpEvRxE3jsGvTJCBYtYAArPAQM2BVrmJM0YLVfQ1qLHbQXA75Rgo71Tn8rWN7sKTAVaADjvIka8DJzD1hb/7MNWCSARzHgh70ARoABJixBl/eAcw1YvQe85p28xyno8vgXKUHH4kevxK+FagCPPIYVmYEGmDCAc9uJLs2Aw30JrDCE1Z0BV0zAigYsHsAv5gLYsw80wIQl6E3nTvsslsC0gApLZkBZN+BV1oCV7FwqgK01gVcq0AAzBvBlVjU14G1qA859wOjGgBPj5V60PIzNQXsCGMA6D1EDFghgpXXAd34NqVwz1Q04Fsd/TQOuMQX98mpLgc86wMxAA0xnwGsfBlxhCCs3ZhIllx6wdgn6ZY4ARoAB7OC1DXjRNuDyHrCwAW/aBpx7dmEDFq0NyBvwyWZYo45hIcAAcwZweaezhQFHdQNOLLFvme888eLX4rdWcx1wbm0gEsBFAvzOLQtgOgNOvJcr9YBjsQG7XnrA5SPgic8+TXrA5Y8mCgZ8shBpzN8k9CwCBsCA8zxvu1+CzjbgNSm9RAw4iH4y2QZcPv92w4DLh7CW2gFsSIFXKtAAGLCkhgkY8FbcA5bZCzo3HyV6wE7nwUjYgHO/FrFeAA84huVYgwSAAf/3Tvt504znqhOPb3V/w+V+GzRcysJRBK2/bvTh+C9TDXj7urxjl4pXby4mJet1Vlya3O9XP/nLv2e/MQUd/1z8+T/m4+Cee/EVDdjbCWAEGGBGA16cc+elvI+D7vxg2PbdJd9owvEJPl/h5A38fvltO3lr+5416HL0MrvbL+qYvy7+7APY4+cb2+5c/K+Pdzu7jM+L384+mj3sH8fDllrkPH6R35/y1T9+u/pokj/723p3vBApbFbylwAGmNKAf90WLm8am9CdpmLBsHHHsO3Fpxpw2qWInP52AD+M1KCpQANgwE3uNBWHVuPMF7+2LdaqGLCROWgEGIAAbnSrwYDHM2CZ098PYBv7QZ+NQPt37lcABDAGjAF3acAPEwrsqUADEMAYMAY8lgG/WQjglQo0AAGMAWPAYxnwj7Po2gbKX4cAAxDAGDAGPJYBn+bvUAqMAAMQwBgwBjyUAZ/8HvBoCnwuwO/crQAIYAzYggHHtqIoXmL98Q9795rctpGFATQsbUAo7oCs/i8RhY0Ahf1vJXxIqsixRBAE0K9zJkk59vgBeaY/f/e2yN/yN6MKPPxYgE2goTR7DdjDF9CAd+3vsqnArQk0VB3Ap5gZVHUDrieAF27A9/J3y9nCOhtgV7BAAy4og0Jb8/y9qBH07/PnjAL4qABDRV40YAvw3EfQd/tvNkvgVgEGI2gNuMYRdJ4NeLfb3w/g3Atw66gCAawBr3raVtOAlwvgKfGbfwE2gYZKRtB2wLE6qEtYa4yfSyjAJtCgAWvARTfgPrsAbiblrwIMCGANOJUAHkoI4GbfFlSABwUYjKCrbsCnqOetHfDy9ff854o+h/wNCjBowHU34O0eXgN+MoCn5q8CDAjgHNagGnAmAbzbT83fPvf89TlIYARdWAal2IDjVtC4V8AfCuDp8ZvJDaxfBtDtm3MKNGANeO0MOsU977MZQU+P3wIG0AowCOCNjuHInWOMeuRW04CfCuDmkfwds8jfowIMRtDxA7iPe+Z1dTx87Pn7EwG8ax6I3wIG0Aow1NSA42bQKXLpqOPhI8/fw9wAfix9C3gJDgUY6grguBnURQ7gPmYGRX74LvEA3j00fM7nBvRRAQYj6BQyqI3cOvqYh27sP30kHcC79mEFDKAVYKirAZ+ipkDkAN7q4Yeo8T/EDeDj4wHcPNx+23bIfwCtAENlDbitIYOOkUtT3Du7kR9+eDiAH0/fEt4ESQGG6hrwRgdXiFpBj3FP7RA1AUPkyHrwBRebfTcnf09Z5G9QgKFSMU+uIWYGhcjH9hA1AYe4l5aODwVw07SzFLAAVoChvgBuo548p6gRtM0UOO7Dh8ih9cBbDswM32z6768vgaUAQ4Uj6DbEPHm6yL3jFPXYjXzo9/F++tfFum8pC2BvgwRFe/khA/uYEdhH7h1R87+LfOjH+53/I212zXtbfP7+PoAWwFBjA17/HA5RQ2CI+9krY9TRaeSHD1PS5qnum88rcMhfEMB/PcHWHEP3w53jM0Q89tYewfdRLw/d+9C33bof+3A3bnbN0/GbSf4e7jyF8wlqHEHfTuLxKoz9+T/h+vd3l68br996+bbw9e+hv34h3L745/caxymfU9J9/hyXH+P6d//5pdsP+vWl80926A/nrzl8fOv1a74d+ufOGW7f//JDDlNO8I+fvh9vTxM+vvP1QW8PF8avD8zHR+PrV9zf/osfH47P7zL96b9+4v/H5835IQ+fX7r8Swjh25fCfz86lx+t//z1TX7465N+/bCfv423X9bl6z8+nOHztzh8fGw+/ydx+/qvj87HL2AYfu17uzkvt5Fv/g4KMGjA+fvzKOu6drj8ff1H22X7XN13bcmahdI3m7dguJO/744nyN7r7se/yglgyC1/j60CDAVrds2vr2DfyF+Ki99M8vfeTQQFGHK2a5zGVCeTF+C4dwFLAYaM01e5pUZjIfmrAEO+w2cnMfa/2V7Aat8VYMjUXv6i/2acvwbQkG3+OoipUi9/AeNnkL9z89cCGPLk9hXWv3nnrwIM8hfkb4T8VYDB/heMn7fPXwUYMi3ATmLkb975qwCDATTkMn4uKX+9CyHov5CJXD779xCm5K8BNOi/YPy86fsvXDUOMsiR/KXC8fMhG1MexwIYDKBB/d2+/xpAgwIM6u+ijpMeSAGGLHkFSmqTT/xOuv4sfyFXjmNqmz6HssbPBtBgAA2mzzHyVwGGLLmBRU2GjOrvxPHzOX8VYFCAIWljn1H9HVv5C/IXihg+5xS/k+uvBTAIYLD7XW77201+MC+BBXl6cS5ThT5klb/j9CdzAQsUYEj25tV4OPRlxq/8hVy5Ao3Vb66fe2QBDAowJJy+3Smz+B3kLyjAkPnk+fJZv4dS714ZQIMCDIk6ZGd49BEVYFCAweh58/iVv5CtF8c0ZabvOI65pW8/yF8wgYasN79DduF7COOcJ/UKHGACDQl13+zCN8zovvIXTKAhofTN6tU2PtJ3nPu0LkCDCTQkMHbu8xs7H4aZ1Vf+ggk0pHDdahwzLL7h+OSTvzrCoOACPAwdpWmLeIrw4ZDcOyycS+29G9jnb++e/oOH/gulBvDQZvhpHBDfZzG/6L8crv+8/YF2meav/0KhE+jeOQqLvI/CcP1rafovFFqAh+4QnKQww3GTxbf8hVIDWP+FlAP43fwZCp1Ad05ReG4FrP8CMwL45BCFpVbA+i8weQKt/0LKAaz/QrEBbAEMCa+A5S8U4If/fztDId0ANn+GclfACjDMN6ycv97/CErwogDD0uQvMHcFfHKEwmwr38EyfoaCA3hwhEKiK+B3/RdKXgErwJBqAOu/UHQA945QmG/w6UfAvACWv/AM+Qvc92IADQsLPvsXuG+vAEMmK2D5C8UHsAMUElwBu/0Mxa+ATaAhvQBu1F8oP4Cdn/AUn3wEzApg70MITwleewMQwLC9o8tXgBE05B/A6i8Uaa8BQ9Ir4Eb9hTK9uAQNCQew7S/U1IAFMDwjaL/AvADunaCQwgq40X6hshG0AIYEAtjwGQrXuAQN6a2A37VfqDB/XYKG2AFs9wvlawUwLCs8XX6lL1QawCcnKEQL4Eb8ggYMzPHEHax9s3MogQYMbLkCftd9ofoA7p2gsHEAS18QwBowbDeBPuduI3pBAGvAsFYAN3+85Nz7rml2Fr4ggDVgWMzwt6b7zz+v3zl7QABrwLD6CljeAhowCGBAA4bihL9PoAE0YFjTUQADGjBsbxDAgAYMaQTwm5MG0IBhXe5gAQIYtvfXt0Jy0ABG0LAud7AADRgSCeA3Bw2gAcO6BitgQAOG7bmDBQhg2J7XwQIEMCSyAhbAwMQAtgOGJVfAAhjQgMEKGNCAoYoVsAAGNGAQwIAAhvK4gwUIYIjAWyEBzwSwHTDM1ApgQAOGNAL41TEDaMCw+QrYexECGjBECGB3sAANGFbmdbAADRisgAENGOoNYIcMoAGDFTCgAYMVMCCANWAQwIAGDMWsgN8cMoAGDJuvgF2CBjRgiBDAJtCAAIYIK2ATaEAAgxUwkHYAd05SWCiAX50xgAYMqwpWwIAGDNvzXoSABgyJTKA1YEADhggB/OaIATRg2HwF7A4WoAFDjBWwAAZ+1GjAsFYAWwEDP9tpwLAEr4MFPB3AGjA8zh0sQAOG7bmDBQhgSGQF7GU4ACNoiLACdgcL0IDBChhIjAAGK2Aggr0ABitgYHsvAhhWCWArYOBXOwEM7mABKYygW6cpLHAH69XxAjzWgAUwuIMFCGBwBwsQwIA7WIAAhnRXwAIYEMDgDhYggMEdLAABDFbAgACGYgqwAAYEMAhgIIsA7p2o8GwAvzlcAAEMm6+A3cECZgTwyYkKAhjQgCFtVsCABgxWwIAGDPVOoAUwoAGDFTCgAUNxBitgQAMGd7AADRiqvYNlAg1owGAFDAhgqGIF3DpZgDkB3DlTwQoYEMCQ2wpYAAMCGKyAgTTtBTAsvAIWwIAABitgIJcAbh2q8EwAK8CAAIYId7AEMDAzgHvHKriDBWjAkNcdLMcKMEX7L3v3dtw2DoYBdDJqYD3qIIn9rJCJC8hqVIC06wIiDfsvYTOxs45liTcRIACe86wnPeCb/wJQBQx2sAAVMBgBA4uwUgGDETCQRABXzlUQwIAKGIyAARUw0BrAG6cKIIBBBxoQwLCIAHaoAAIYjIABAQyl2RsBAzf4IIDBCBhIIoB9EBiMgAEBDIk6GAEDAhjsYAHZB7CvMUAPvsQAqIDBDhagAobljoAFMKACBiNgQAUMyxgBC2Cgv7XvEYIRMJBEADtbwQgYUAFDLiNg72ABAhhm6EAbAQNa0DBDAG8cKIAKGIyAAQEMixgBC2BggJUPAsNgbgEDAhhSGQErgAEBDEbAgAAGI2AAAQxGwECaAexzSDBiBLxxnABD+BwS2MEC5qAChkl2sBwmgAoYjICBDANYBQw60MAMLWgVMAzvQAtgQAUMYfkWMBAmgH2NAYyAAQEMOYyANw4TYCDfIwQjYEAAQ5YjYB1oQACDETAggMEIGKBvAFfOWDACBgQwpD4CFsDAJAHsJQ6wgwWE9kEFDEbAQBIB7DFoMAIGZghgLWgwAgZUwJAQt4ABFTAYAQM5UwHDjSNgAQwIYDACBvIN4L1jFvqPgGvHCDBRAFfOWeg/AraDBaiAwQgYyIXHoMEIGEgjgFXAYAQMzBDALgKDETAggMEIGCiQp7DACBgQwJBZB9oIGJgugD2FBUbAgACGlDvQG4cIIIAhpHsjYGBSAhh0oIE0AnjvrIV+AawDDUwZwJWzFnSgARUwpBrAOtDAeL7GAEbAwAxWAhh68A4lEL4C9hQWvGMEDAhgMAIGimxBC2AwAgZC8zUG0IEG0ghgT2FBnw60AAYEMOhAAwUE8N55C28cBDCgAgYjYKAEaxUwGAEDAhiMgIFF8DkkGDUCVgADKmAwAgay42sMYAQMCGAwAgYWG8DeooTODrQABm7kMWjQgQbSCGAvcYAONCCAYV7eoQSiBfDemQtGwIAABiNgoDxr95Bg6AhYAAMCGIyAAQEMyxgBb5wcgAAGHWggR57CgsEB7OAABDDEHwHfOTiAIAHsJQ544RISEIynsMAIGEgkgPfOXbjegTYCBiYhgOEq71AC4SrgtQAGHWggPgEMOtBAGgFcOXhBBxoQwDCPe+9QAnED2EscYAQMhOYiMAwZAetAAxPxFiUMGQHrQAMqYNCBBjImgKF/AOtAAyEDeO/sBZeQgPgBXDl74ZMRMKACBiNgQAUMi+ASEhCYlzig9whYBxoQwBDUvQ40IIAhlRGwAwOYjpc4oG8BbAQMCGCYoQDWgQYEMAhgIHMuAsM7OtDALAFcOX8xAhbAgAoYdKCB8qxVwNCnAy2AgeAB7CIwAlgHGhDAoAMNFMg9JDhzEMCAAAYdaGA5Abx3BLNgLiEBKmAwAgaK5SUO6O5A+xISMLm1FjToQAMqYNCBBpZaAQtgFswlJCCSlS0s6BoB60ADUQLYU1gogN/aOCkAFTDoQAMl8BIH6EADAhhmda8DDcwZwJVzmIVyCQkQwJBKAawDDQhgEMBAKdbuIYEONJBEALuHxEL5EAMQkZc4oDWAdaCBaAGsAmaZvMIBxOQiMLR2oAUwEIgAhl+u7EALYCCQtQAe5Ufz4sF/UYhPnsEC5g7gylncoWm2p+1vTeMPMQIGmKIFbQ26K39f0/eXXfPDn1JqB9oRAUSsgAXwoPh9jmD/S5kdaAUwEDOA3UNqzd/tRTtFcObsQAMJBLAtrKseruSvBC6zAy2AgXBcBB6Uv6ftddrQ5XWgvUMJxA3gynE8In8lcNYOLiEBsQngqfLXKlZxHegvOtBAQNagp8pfc+DiOtAuIQECOAXNdiuBl9WBvnM+AAF9cA9psvz9mcD+pzzZgQbiuxPA/RrQ216MgXWgAUa3oAXwmAHwC03ocjrQG8cDEJQ16Mka0MbAOtAANwXw3ok8rgGtBC6pANaBBuIHsDXoc6etBNaBBhDAyTagNaF1oAH6chF4ug0sm9BZsgMNzGNlDXrSAlgJXEgBLICB0HwPaeICWAmsAw0ggGNvYCmBdaABbgjgyql8QwFsETovLiEBc7EGPekE2JPQmbnXgQbmYg164g60EriADnTtYADCswbd3oEekb/WsLJfwdKBBgRwjgWwHnT2AawDDURgDXriFSw9aB1ogLEBXDmYb+lAK4FzX8HSgQYEcJYdaAGcewBvnAtAjAC2Bj2mAG6e6UHn7WAEDMyotoU1NIB3x98H95MSuMAVLB1oIA4V8NAO9O71n3ryHGWBK1gKYGC2ALYG3VYAN3/8USc96PIC+IsABuJYCeBBAXys+wSwHrQONEAHa9CDOtBv8vfRHrQdaAABHCOAd3W/ANaDzncE7EwAZgxgW1hXOtBv87f+KoDLK4B1oIFo1irg3gF8fPs/nbzFYQcaYMoAdhH4cgf6rACuPYaVs4MONDAz30O64sIDHP0DWA/aDjRAB99D6tuBPi+AHwVweQXwxokAzFoBC+BLAVwPCWA96CwLYCNgYOYK2BbWx4+fuwrg9gD+7h/UgQZo5x5Svx2sowrYDjTAlKxB9wrgdwVwewAbAutAA4wIYEPgh84CuH0LWgAnzSscgADOJoAPArj8HWgFMBCVLaxxHeiOADYEtoIFMDyA/xXA3R3otqcoBbAONEAna9AC2A60DjQggJMM4Esd6I41aDGnAAZo5x5SkAC2hZVbASyAgRQCePFr0Gdp+vfFE1sAl7SC5UNIQHQ+x/DeQ48RcMcQWADrQAMMD+BKALd+iMH3kKxgAQQJ4G8CuHME3FECf5d0CmCAdrUtrJEB/OQekgAGGG+tAj73uV8AP54EcHauPEN55yAAkgjgpW9hnfrsYL2dAu+OJwGc8Q70Xw4CIL6VAB4bwH9MgY+1AM54BUsHGpiDNejxAVw3rz8RwApggJsD+JsA7ryF9PxHPTa77a451gI4jxWsg1c4gLQDuBbA3TtYLxH804VLSQI4pw60FSxAAOcXwP/7KoB1oAEGsQYdIIB9DinJDrQVLCD5AK4E8NAA/sdblMm7MgHeOASAeaxsYZ3ZjgngRxWwDjTAIO4hhQhgFbAONMCIAF70FtbDSQWsAw0ggFXAhCyAXQIG0grgvQC+KYBdQ0qPZyiB5KwMgSfYgv6PvbtLbttKwgA6Lm5ALO3AMvzMEYZagAflBRBFLcDmcP9LiOJMfiRBJECCZPe95+QxekoV8OXr2xd8FsBWsACmcQ9pjgD2IQ4FGKVN0ZEAACAASURBVGCGGfRaAI/5FvTgLyMJ4EwrWAIYiFaBBfBfegFsAg1wEa0Z9KEA/imA7UADXC2ANwJ4WgB3AtgEGmCGEXTNh8BfBHA1BdgEGrippQB+5esJF4GfBLACDDDHDFoAC2AFGOAWM2gBPCmA3/wc8DeZF8qDFSwgTwBvBPCUi8D/8SnoyFoTaCBPAD8K4ClbWDsBnLAAm0ADt+ZbWK9Nv4e0FsAJA1gBBkIGcCuAJxwCv9nBEsApVrAEMBBzBi2AJwTwmyPgTujZgQY4NYA3Anj8DHrnFpICDCCAz/VlcgB3AjhfAK88+MDtLQZeT9t639j7buIM+kkAB9a7BAzkasAVr0F/nRrAOztYJtAAp7AGfTCAj86gBXBgLgEDAjjvFtb3aRNoARxJawINROYngQ8H8M9JBdgRsAk0wEg+RnlwDbr776QCLIATrGCZQAMxLMygDx4Cf5/yFY7um9gLP4FWgIHAAWwNetwa1tPOEXC+FayVhx6IwRbW4UPgQxX43QRaAMc/ATaBBsLwLazDAfxxBX5fgB0BK8AAZwVwxVtY72fQXT9yBVoAJzgBVoCB2AHsEHjEEPr9ANoEOn4BtoIFxOEQ+NgMengI/bQTwAkDWAEGAvEpjmMBPPg1jqG/k3vhV7A870DwBuwQ+FgC7wf+7JvgM4EGGM8a9GvdmATeDf2VCXT4AmwCDUQP4Iq3sD7vRiTwfvBvBLACDDCBb2G9NhiuXbf/3+H4dQQcSO8SMJDBJ1tYRw+B/4jg/c++f37a7z749wqwCTSAAJ57Bn2cCXT4Arz0tAOxOAR+7ctpAWwHOgwFGBDAZc2gD1OAw69gCWDADLrAGbQVrPAFeOVZBzIEcM0v8K8KcIkF2FewAA24xAqsACvAAJMD2C8SvrEXwHm5gwQkYgvr7Qx65w5SeStYHnQgRwBXfQg8fQatAIefQCvAQMQZtEPgcyuwAhxFrwADmfhFwjNPgRVgBRhgrhl01YfAEyuwE+D4K1ieciBNANd9CDytAsvf8AXYBBqIaSmAz6nABtDhT4BNoIGgBm8CbypPYAXYChbAxQPYFtZ7OwW4nBNgBRjI1IDXlb/Mxw6hbWCZQAOcbDEUwBsJPMZe7oUvwCuPOJBqBl17AI/bhDaAjuNBAQbKmEE/fpbABtAlFGArWECyBryu/o1+fAgtfxVggLO4CXxaAsvfQBRgoJgK7JV+5DKS/puiAAtgIF0AOwQ+nMDyN0UBNoEGBHBhm1j7r/7jKMAA57KF9XECD5bg7+7/xtL7HSQgp3s3gT9exRoowXvj51jcQQIEcA0tWPymyV8nwEB0DoGPRfD+7+Gz+HUCDDAbh8BH/di/+PFD/GY6AVaAgZwzaC92kk+gPdlAzgB2CEzuAmwCDcTnEJi8rGABpQWwQ2AUYIBbzKC927GCBXCDAHYIjAIMcFkLh8A4AQa4PltY5OQjHECJAWwLi7wFeOWpBnJwCIwTYIAbcAhMUQVYAANm0HD9E2ArWEAerZvAKMAA1+dTHJRzAqwAA4ksbGGhAAMEacC2sHACDHBZnxwCowAD3CCA3QRGAQYwgwYFGKjDwk1gyliBXnmagVwzaIfAFFGATaCBIgLYITDZToCXHmYgmdYhMAowwPXdOwSmgAJsBQsoZAbtVY8CDHDZAHYTmPwr0AowkNDSITAKMECQAHYIjBNggFvMoL3tUYABLhvAbgKT/AS49RgDKbmIRPICvPIUA+UEsBk0eU6ATaCBnBZm0DgBBohSgR+98clxAmwFGigrgB0Ck6QAC2AgLV+jJPEJsBVoQACDAgwwhZ8kRAEGuAEXkYitUYCBMg1eRFpvSnhxb9e2yYpegVaAgdSK/Rpl40qzAgwQWaGHwL2PiijAAKGVeQjss14KMEBwJX6Nsul9WFMBBgjuU4EzaHeqFGCApDPodUGtSYwV8r9SCjBQxQy6oKmlGXRaDwowYAad+dRQkBVYgO88uUChAbwuqDSpwAowQMQALuoiUuPT1jVsYCnAQBHuC5pBNz5trQADZLEoJ4CH83dtBl1aAfbUAgXPoNcFvbIFcBnbdAowoAIne2U7BFaAAUJW4EJS68PK5GcJyyrAK88sUHQAr8t5YwtgK9AAIRVxEelAY7IGnU+rAAM1WBYwgz6UvwI4HVeQADPoEvLXCLqkAmwADZhB5yhMGnBZG1gKMFBBAD+W8L7WgAsLYAUYEMBp8lcDVoABgvqUOreO5q8GXMwGlgIMlBbA94k/4Xg0f5Ptc9MqwEA9En+N8nj+CuByCvDKswpUEcDrMvLXjzGk0ijAQFWSzqCbdgyhVsgGVrv0pAKVBPBjEfkrgBVggLBSfgxrZP46Ai6lAN95UIFaAjj2DPqhHxfAjoAL2cAygAbMoDP1XxPoVAygAQEcPbz6sfm7lWoG0ABm0FdoSibQNrAAzKAv9KIe3X99h1IBBsgYwOt0RckJcJkbWAowYAZ9e9vx8bvfi7UiNrAUYKC6AA44g+4n5G/X/ZBrJRTglScUqG0G3aaqSW88dV2nApewgdV6PoGCLVLMoKcc/z7tXgJYBS5hA0sBBoqWIYAnjJ/b9lf+CmAFGMAM+gb5232Xbenz987TCZhB33RJZ1L+7jsBXMgA2hUkoHDB96Cbh/aU/DWDzl+AVx5OwAw6y/j5H/lrDzp7AXYCDNQawBEqcNO0p+avGXQCDwowULVF3ACeVn9/XQDuzKDzaJ0AAypwxBn0tj0nf1Xg3BtYdx5MoNoA3gSuRyPyVwCnHkDLX6DiBF6HbUej8tcM2gAawAx68vbV9PzdvQtgFTjvBrQCDNQh3FXgqae/g/krgENrFGCAjwJ4nSZ+B/PXDFoBBsgZwLdZw2qmx2+7HsxfFTjrBpYCDFRjGWYG3azbufrvSwCrwDnzVwEGqq/A134tb06J3w/z1ww65wa0ATQggK88g2627bz5awad8gDYABqoyX2ANaymnTt/VeCMG9AKMFCVxc1n0Nv+AvnrJ5ESDqAVYMAM+ooz6IcT43fg+1fWsHIPoBVgwAz6ahW4OTl+j/RfM+iEA+iVhxFQga8UwNv2ZEf6rzWsfANoBRioTnuTq8DNSfd+/7TvBHBhV4DbpUcRMIO+fAVu+ra9bP6aQScbQNvAAsygL1+Bz4zfcfmrAufagDaABsygL1yBz5s9f/z55/dEng1ogJQV+AIf49huzyy/I9afzaANoAFyB3Db9v2mmbH6tmen75T8NYO2AQ0QPIDvD058t5vNHOk7Q/hOy18VOE/+rjyFQJ2Wx2Kv3z6eE8J9P0/6tu1zN4XPUSa5gdR6BgEz6AMh3G+bFxN7b7Nu5wrf0evPZtAKMEAS9+MzsN9ut6PacPPyh+2sJo2fzaDzbEDbwAIE8OgU7v/ow59//+cfmfv58+b31vvQzzd0Pid/zaBzDKDvPIGAGfQp13K3f2ov6rk7gQoc/waSAgxUbdFGtz8lf1XgBAfACjAggAN7Oi1/rWElGED7EQbADDpw/u66E5lBG0ADhHZf3vhZBTaABlCBb1J//SJD+BtICjBA2Ar8fFb+WsOKfQAsfwHuyxs/m0EbQANI4OtuP1vDSrGApQADBA3g8+NXBY58AOxHGAD+FXEN67ztq78CWAWOegBsAA3wS4n11wzaABrADPoG9dcMOvAC1r8VYIBwM+inueqvChz3AFj+AoSrwPPVXxU47AHwyhMH8H+LEuuvNaygB8A2oAH+FiR+d93MvonDcAfABtAAv7F3d7ltHFkYQEN4A2z0Dixwnk3UNBcQGFyAGtQCIk3vfwkjOVYcG5bU/32r+pxgHgIM5mUofvhu3SoGq8Dzx68ZdMQDYBvQAJEqcDP39NkaVtQBtAIMEKgCLxS/KnC8/K38sQH8W11k/PpNpHAHwPIX4GeHDRN4wfhVgR0AA0RP4HJWn50Ch70B7AAYIEgALx6/ZtChDoAVYIAQAbxC/HqMI9IBsCc4ACIkcNd9XYUKHOUA2AAaYPsAXqX8WsOKdQBsAxrgtz6VV36tYUXKXwfAAG9Y6SZSu278qsBBFrAcAANsGcCXtdNXBY6Sv1/8hQG8YfFT4OayQfr6TaQYC1gG0ABbVeAV967MoOPl79HfF8AGFbjtuu7rdsygt17AcgMJYP0KfOk2q74qcJQDYDeQAFYO4ADpqwJv/wKWA2CAFWfQ7UOM8FWBN89fA2iACRW4e/a/XsHbPr78d7uvkajAGy5gGUADTKjAl7+b5HOwPr75hdvEC14VOED+GkADTKjAl3//vME/Hr/5/i9PXwNTgTdbwDKABphUgUPHqwocOH8NoAFmq8A5UoE3yl8DaAAVmPUXoA2gAXpKpSawCix/AbKcQec+hO7k5foL0A6AAWaYQavAyF8AFVgFtoAFsJcK/F8VmAH56wAYYKYK3KjAyF+ADRL4QQXGAjTAUqpS97BU4DX7rwNggKEOxe5hqcDr9d/kDwlgcACnUiuw57BWu4BkAA0wwqekAvO2OwNogIUUW4H/lJ7r9N+zAgwwcwVOKrD+awANsEEF7ixCy1/5C7B+BW6eVGD56wAYYP0KnPcelkXoxS8Ay1+AZSpwUoHlrwUsABVYBY6Vvw6AARarwA8qsPz1G8AA61fgvIfQKvCSD1A6AAZYsgJfVGAPcMhfABVYBY4yf5a/ANO995sMeV8GVoGX6r8WsADmCOCq1CG0CrzU/Fn+AixdgQ2h5a/+C7CUutQEvhpCL5G/X/zJAMxUgWtDaHrnrwUsgNl8KnYI7VeR5s9fA2iA+Srwe1+4lycVWP7KX4BFvHsKfFGB5a8FLID1K7A9LPkrfwG2qMBZJ7AKPGf+WsACmLsClzuEVoFnzF8FGGBulQosfz/k7wRgfu9W4KzfhFaBP9IzftPBnwnA/N7fw8p5CO0q0kz99+ivBGD1Cpw6FXjv/Vf+AmxRgXM+BnYVaY78tQANsE0C5/wgliH0m05958+VPxCAxdSlHgOrwG/mr/4LEL4C53wMrAJPzF/9F2DRAC73GNhlYP0XIN8KnPExsCH0b9z1zt+jvw2AZdWp1GNgFXj09V/5C7CCVGwCq8DyFyCwD4bQyRB6d/nrAQ6AVdTFJrAh9JjnNzwADRCkAue7iKUCj8pfF5AAVlIVewysAg++fpTSF38RAGupi01gFXhw/uq/ACv66Es52xexvIc1NH89wAEQqQJL4J2sP8tfgGAVON9VaMfAg/L36G8BYFWfUqmr0LvfhD7JX4CsK3DzZAhd+PGvBzgANnCoi+3Au67AtwHxW8lfgC0S+MPv54sKXPLxr/0rgI3UxSbwX/JX/gJIYAkc8vjX+xsAm/l4CJ0ebEIXmr/6L0DoCpzrgxxX+St/AQJX4HITuHP86/4vQOAETqUm8N6G0Pcpuf8LkJNyE9j4Wf8F0IFtQi8av3fD+q+PPUAeAZxnAu9oCN3qvwD5qSTwrsbP8hcgilRsAu9jE/o2MH994gGC6DWEzvNFjj0k8LD49f4VQCBVsR24/CH0wPGz/guQYQLn+C701fjZ+S9AYP2+vXP8feCih9B3rf4LkLdDsQl8LTeBT0PHz/IXQAI7Bl778q/9K4CYqp5f4p1j4Ezrbzr4lANEVPfswJ1j4Czr7/noMw6QdQLn14ELPAYeXn/lL0BYh74J/PDkGDivy0fyFyB2Avf9Ns9uFeu68/pr/Rkgtr6LWKl5cgy83elvK38BSlP3/krP7SC4nCH08PqbqqOPNkBshwEJ/GQRK4vTX/0XoLAOnNlBcBmLWCPiN6m/AFl04P5f7E1nESv86a/nrwAKTODMDoJzH0KfxsTvWf8FyEU14Os9rzH0X7uLX8e/AMUmcOcYOOrdX+e/ALk5D/mKz2kbOtsEHld/09nPLwCU24GzGkNnmsDj4tf1X4DsHAZ9z+e0DZ1jAt/Gxa/zX4AcE3hQB86pBHc7mT6ns+tHAFmqh33ddxJ4ofg1fgaQwEXsYmU1hB6Zvl7fAMjYYWACZ1OC80ng09j4NX4G2FUC53ISnEkCn+7G5u+Xo08vQNaGJnAu69DX/2QQv2N3n42fAXbYgXN5GCt+Bx49fZa/AEWoBn/957GM1UXffR4dv+ejTy1AESU4lVmCI3fgCe3X4xsAxahTmSW4ixu/rfwF4I8/xuRADhEcNIFvU+qv41+AglTVqAiOP4S+Rnx4Y0L79duDAKWpx4RBBpeCw3Xg26T4PctfgMIcRiVwBttYsRL4blL8qr8AEjifo+A4U+jTKU1z8DEFKFGVyozgIB34dJsYv5X+C1CokR24uQSP4AgJfGomxq/bRwAFO4wNh+ARvHkCn9rJ8ev2EUDRCVyPj+DIx8Ddtm9izRC/Rx9OgLKNTuDYEdxtuHk1OX7TWfwCSOBMB9FbJfAtTWf6DLAHh2pCVDRxI3iLX2Y4ta38BaB3BE8owYFb8Ood+DZH+opfgD0l8KTEaLpOAn/+3KQkfwEYqJ6WGkFr8Hq70HNsXn3bvvL2FcDOVBOTI+ZhcJfLrV/1F2C3DhNLcGojTqJX2MS6b2caPnt7A0ACj/QQrwYvncC3ucpvOh99BgF2qp4ewSleDV4sge8/z9Z9/fICwL478GGOJAkXwcsk8P183dfpL4AIrucIk6YLNYq+LrCK1c6avuovgASeKVFibWTNfB3pNnP8qr8ATL+PFPJu8IwJfH9LM1N/AZg1gVP7EKYHzzOGvr81zdzx6+4RAN/NcxD8YxYdowh3UR67+tkX9ReAHyV4zghOlxg9eFoC35oF0tf0GYBfI3jeoAmxkzX2IPh0Oi2SvqkyfQbgV7POob/fD+6u+b2KdWvTQs7aLwC/U8+fOc3G0+jroBJ8+nzXLha/yc8eAfBGBz6clwieh023svqX4NMpLcjwGYD3MrheJH1eivBmKdyjBN9uy6xc2b0CYNsEfr0k/BTuSvDttODUWf0FoH8ELxpFzxn8FGYO/Vx80/LO2i8AvRK4WjaQ2m799eifEvj0/M+taZomraGSvwD0VS8eS83LJaUVN6Sv/zwued+m9ZzPPkwADGnB9ToB9XIu3K0WwKeld62c/QIwVbVaSjXfZtIL72d1n++bdcPXry4AMC6Bq3Xjqrlcur9dZzkgvj77/j/4+PiYVnc++gwBMC6C67SFtml+hPHwqvuauS9bVm3ayrmSvwCMdTikjTXpJUdf0/jbpPr69Zd/Xntu99i2bQrB7hUAEyO4StE0qW1//k80zn4BmCGC64SLvwCsrxLB2i8AW5TgqpKs2i8AGzhqwX02r/zkLwDz12AR694RAFtEsBZs9gzANi1YBktfALZgEO3NSQA2acGHs8z9afNK/gKwUgarwa+z50r6AiCCPboBQPH2/jhHJX0B2CiCa+UXALbJ4B2G8Pl8PPq/Hv7P3t2lRnMDARTFaAPTeCMatP+9xQkEEvCHPdOSqrrrHPIcp6V2Xcl/AYI9P6vdfdUXgAxK/YEs+QUgU4NrfDvYN34BSOf2PxT9PFx+AUh6D77v7xw9bS8AErz97mtrAUie4I+bfS36OD4ethWAi1yEDzdfAAhwXL7Bz8PNF4CLVvjzkn8o6/n0I1cAXNzlvhrtt40AuM9F2Hd9AcBF+PufdtZeAO7ocXw8ct6Fnx9+1QiAm9+Ec/3NyufnobwAVHHk+B2lr/8K9QWg2lX4cUT+bwyPrw9vEwCoXOK/r8Of+y69ftQKAP6N8FeFlzf48XXrtdQA8NPN+Nxd1woCwFvO9LdbPgB4yz834Odb//iTVgAAAAAAAAAAAAAAAAAAAAAAAAAAAAAAAAAAAAAAAAAAAAAAAAAAAAAAAAAAAAAAAAAAAAAAAAAAAAAAAAAAAAAAAAAAAAAAAAAAAAAAAAAAAAAAAAAAAAAAAAAAAAAAAAAAKY3/sBoAsEUb/9OtSKETl7UAyNJfBS6249YDIEl/FbjM9VeBAVL1V4FL9VeBAZKMYyO53IZbFYAcF2AjudqGWxeAJP0d3dpU2nDbDbDZ+CNrU2rDFRggxwVYgR24AIiYxyZysQOXKzBAlgCbyKUC7MAFkGQem8gOXAAEzGMTudiBy3YDCDAR+219AFJciExkBy4AIuaxABc7cAkwQJYAm8gOXABsvxAJsAADEBJgE9mBCwABRoABbuHH/prIxfbbGgEIMAIMIMAIMACz/PwtYBO52H47cAEIMAIMIMAIMACzDAEWYPsNIMDYbwAD2UC23wAYyNhvAAMZ+w2AgYz9BjCQufR+d8sEIMBM1QQYQIARYAABFmABFmAAAUaAAQTYKgkwAAKMAAMIMAIMgAAjwAACjAADIMAIMIAAI8AAAizAAizAAAKMAAMIsAALMAACjAADCDACDIAAI8AAAowAAyDACDCAACPAAAIswAIswAACjAADCLAACzAAAowAAwgwAgyAACPAAAKMAAMgwAgwgAAjwAAIsAALMIAAI8AAAizAAgyAACPAAAKMAAMgwAgwgAAjwAAIMAIMIMAIMAACLMACDCDACDCAAAuwAAMgwAgwgAAjwAAIMAIMIMAIMAACjAADCDACDIAAC7AAAwgwAgwgwAIswAAIMAIMIMAIMAACjAADCDACDIAAI8AAAowAAyDAAizAAAKMAAMIsAALMAACjAADCDACDIAAI8AAAowAAyDACDCAACPAAAiwAAswgAAjwAACLMACLMAAAowAAwgwAgyAACPAAAKMAAMgwAgwgAAjwAAIsAALMIAAI8AAAizAAizAAAKMAAMIMAIMgAAjwAACjAADIMAIMIAAI8AACLAACzCAACPAAAIswAIswAACjAADCDACDIAAI8AAAowAAyDACDCAACPAAAgwAgwgwAgwgAALsAALMIAAI8Ar3nH7DwgwAhz2dnsLAAHmj+svwGvfbC8eMGOw3DbAdx+ZER2sEmDHSmDnSOlr/rXbR1WF+9mvOrjiaSsE+PeLK8LAvJFy9QC3mCylDcT05d8U4MBdanGLm+SUbl7CzrvvmeGZaEi1pQ961fzO3YAtAQ7cpBa5uIkmhKkJV5goaUbU6w/aa2zn1C3YEeDE3764YYKbr65Drnl9vQC3EqPz3fzOO21sCHDcMakFL26uL46ZnhBxoH9poqTIXBslRuc4pW9b6T71I/QrLO8dT+fdAIWgeX2lAMd3Kfn1d94+LA9wi9qhNmq8Ri88rxEKYfP6KgFuCbqU/vo760mXBzgqbhkWN910MEUhbF73WR+nQJjyX3/npGx1gKP2J8XipnubujkKYfP6N59/wX3LEqZr9Pf8XiwOcIvZniJv0eunDQWGmPP8L8d1bICnPWivsZ+nN2NxgGO2J83xJt9hziyFwHndZ3ys/IMz9aiZ+pgnY7Y2wC1kd9IsbsKXyRUYIud1nzC9CoTpOv0996BLA9xCNqfGW/Tuy2SeQui8zhrgkSlMF9rPUw+6NMAhIajxFr39sK7AEJmlH2ZfWIDH7ie9zX6emaorA9wiQlDjLTpxljNSIXZeZwzwGCUKPEauB10Z4Ft8GSVxs4r8hRG427ge2QI8RrYy5bmyLJ2rCwMcEIJW4i0696wCDNFZGrkCPEaJArd8z7kuwG1/CFqRc9y5TxlzFaKzNDIFeIwSBW4Jn3NdgPfvSytyjjv5KeMKDOFZGnkCPEaJAreMz7kswG37trQi57iznzICDPHzumcJ8BglCtxSPueyAG8PQStyjjv/KWO2Qvy87jkCPEaNAm94zL7oNVvz7+1XW9+7fG3McIX4+9L3E3D3Z/COB83wVbeR8zlXBfiO57gsX7sdAgyX7+/3E2XzZ/CeB42fnSPpc7bArhc436R8lbr5ChnmdXiAN/U3fOhse84kAd69J1XOcVMeVYAhQ3+/m9d7AzxG1jJds78vP+eaALfNIahyjpvzqAIMObI0YgM8RokCb+zvq9N1TYA3h6ClXd6cr5IJC0nn9c5P4DFqFHjrY/b571pf8wL3K67vHUaDK/Bf7Jxtrhw3DAQX4IUI6P53C+AgCOIAtmdHbDalqv95M9QHS61ZB8DCv//fjMImpC20r+0s44NGiYDFE3LLOW7bjkHAACZa+nk36nqQutCuviOvs1vAoXWZ8/B6HuUQMIBLP1lNApZ7qanxhHWZFQLWquyWc9zG1oCAAVz8+1MflDXO1V3pqf591GALBBzS6bjlHLdzxyBgAB8trQ4Br3WFgcO8zP0CDulstAxvDm8NCBjASEupF/Badxh4mRtiv4ClkxHrGgMvBAxwYl76z448unHKe89CwJXrKG45x+0tFQEDOOXCJRZwW+MUt05/QWwXcCjn4pJltLtUBAxg1U9SK+C17midBvOpFrByKtbyH2DHlYSAAaxy4b97UtE4OwtVdp91n4BDKOC45Ry3u1QEDODVT5ZQwL2FrismtEvAypm4ZBntLxUBA5j1k9QJeK07Wue6T8AhnIjlsWEGriQEDGCWC//ZlfWNs7tQVf8ZcdG+WcDCk1D7MprbGhAwgFsuXCIBtzdOUeuMdZ+AQzgPlyyjilIRMIBdP0mNgJdLpWdPaIuAhQa7ZRlVlIqAAexy4ZII2KHQdcGEdgg4dNNwyzIqKRUBA9gd6P9uKBckF0XrnPKFcquAhbNwyTKqKRUBA/gd6H9szCsaZ30LmlJhqP/Wnkm4ZRnVlIqAAfz8+8OstQJ2KXQdP6ENAtZ54JZlVFQqAgZw7CerWMA+ha7TJ1QvYJ0HbllGVaUiYAC/C7UfW7O06yynSs+eULmAQyevW5ZRVakIGMDyQL9KBexU6Dp9QtUC1s3ALcuorFRaLoDlgX5l5QZeVpUePqFiAYduAm5ZRgRggLsCcOkJOo6oYkqdYgHrPHDLMio7aiBgANMDfWXPMasiz55QrYBDZ65bllHZUQMBAwwOwOuIxlmWXQIBX3SMq4zAIz9bAxCADVuO30GjJgnEulHAstG/ZRkVlkrPBRjs33VKoUdPqFTAIfPWLcuorlRuoAEGX0B/13EcC82T0n9T/gAAIABJREFUJ1QqYJm2bllGhaUiYIDJAXgdU+jJE6oU8NUBuCoCz/tmDUAA9mw4noXmwROqFLBs6G9ZRpWl0nUBJgfgdU6hB0+oUMAhG/lbllFhqdxAA4wOwOucQvPcCRUK+PIAXCI1AjAAAXjTHj7qc/aMOnUCvj4AF1gtBp0VAAjA1u3Gt9A8dkJ1ApYZ65ZlVHnUoOsCzA7A66RCj51QmYB1wrplGRGAAQjA27qNc6F56oSqBBwyX92yjAjAAATgfbv4sA/aM+pUCZgAvN9s/AILgAC8aRt7F5qHTqhIwATgggjMBTQAAXhT/1yXdM6JZb0WMAF4f7gM/AtAAN7Ta+KSzhk3CpgAXGA3LqABCMCbNvK6pHNeKWAC8H69Bf4FQMB7dnLc0jkL5GkvYF0A/tRM+EUCpuUCnHADvboap3UEjrJ3qZyjlwLWDXfUrV23O2i+/wIMCsBysXcHw92FukzozqteiYBDp4JaCzlFzGjfsgAE4BcdJYwEXFqoUXeK6reIEsuF3ltt+6Xx/NQcgIm/ANt3WXZd/J5WaBpM6OZnSAQ8KgA7PKInAKNfgO27LOUb+ZtGE/VPs4jAIemRsb2iVwIeFIDT5SHqAIx9AfbvMklD2dBDJc8y6FIhGlAnAQ8KwFbHqL5PNgCwoaGkqG+99kVoCg3hkWL/SOf+B+XWCcruAPxR2Sial5HTt2gA/NssQFVg6y70bc8KXde2EbAwAIdOi6NvUvi9M0D1LktdQ3m7x4WNs7dzKhtmyGcoJwfgVG7O9gBMcwUwykslCpY8Wlto14TWdOnNb56DA7D2cb1HczorgFleqriHFhSa4nHNngmteV5uXhvZHIBDPK3RtIy64zcAAbhgf0eTgAcV2iPgogfuHrHsDcAf+axGlwT56RWAbQD+eo9Fj4AnFdpxoip6ZO5+9RwagFO/R9sCMP4FqN3c2bKzGwTcUWjqJ7SqV28fr+wNwNHhpFmfMrh+BnDuJ9Eg4FmFyvtm1TLK7cOVrQG4x4Utpyr8C2AagF/2k9ALeFah6idWLaTc/+45MQBnzz6ddngEQMCKfhJDBNxVaGonNKtWUsFg5cAAnE0bNeWdAf8ClPuh7+r723eJUY2z7CfJlb+ZiddVfCdgZQDuO9+obzYC/wJ4BuC+J3/9MtMKlfbNqtVU8vLZGYCjT0oxQsBJTwWotUOn+6UCbixUmdCKltPzEr4SsH8AbrytSvH2xL8AxcfcXZtMKeAY1jiV3yi3Ns1Xf/YrAUud2Hq+CeHDA/8COAbg7Own37aYeYXKHrW5acaLv/qNgKXHm+iVkvlJgw/AAIMuLMNbwBPPObOb5jcCdr/gz979KqwU/wLY3mntO2Z/8UITC50ZgNUCtg/A3RtWeDZOOirApLykEvDEQlPyGKum+YWA3X9i3n5klt2kkH8BpuUljYAnNk6RgOctyOxLagbDG5Jig/wL4Cfg7H8FjYAdClU8ZOCCzLYA/HGQUiiqDfwLUI1DXgqFgB0KtRSwWdd8LGBtAPYYXsVS5gIawE/A6fASz3d+jEwuX7zE9K75WMDmAdhi26ZirRKAAUZeWIahgNOi0PR7gpmAxb/VNTneRPlrBP4FuCIAv4/ApyaXov+VsvO14VMBawNwuEipvGAuoAHsBJwm71Eu4KJCywPq+NjyUMB3BuDHddffpBCAAcbmpSgW8NhCqwU8c0lmUwD++EgpzASMfwHG3qh9igW8xhY6dUI1AhYH4DAa3dozBxfQAOX47LLwErBPoZcF4IcCXtYCNjo8V3cGAjDA4Bu1T6mAY26hOXVCFQKOmuPapuFNo82bBbNAAAbwTWPCCHxwoTl1QhUCFgfgj9XohpGACcAAkwPwuwh8cqEucjcUsDoAh9fo8ikD4CIBe8XxB28WkwvNuj899lYmewJweI1u2AiYVgpgdRmqNfCsQuve5oB7wwcCVgfgj9vounzKSHopwOwA/HlzCX10oQ5/2FLAav9+3EY3qiRJAAYw80Ba9ZNCAbsVmu1/11PA4n8DXHrlW7+Dc3JnADgPvw+GHgJ2K7RKwINXZbYE4LCTUtS8UBCAAabmsIYIfHah3V73FLA8AH8MpVTzRkEABvDKm4avVCNgv0Kb/6qpgOUB+GMopSgpnQAM4CUBuyu1Bz1geqHZ+UddBawPwOE4uv0CJgAD+KSwlgh8dqElAnZdlX8qYH0ADsfRrXilIAADXCngKBCwZTCskOW6SMD6AOx4A11zBR0EYAArBRheqc0W8KdZwDl6WWZDAP7MDsCraA/SSAFcMlhXBB7YT/Z/UTziBvoPBRx6Accdp7hTDnIA3phus14Bexa6X8C+ffPPBPzVKsn6F9OebmqOXEEABrhVwNEqYNMbCAS8A9V+sQzANQImAAMYnZ4NBezaT7YL+IzgUifgl5M7/Id8Nf+anD4KUL57pefcWwS8/Q76jOASpgHY8AZ6tQuYAAxQv3vtO/DphebmcTvlZkYYgMPOSkXnjyAAA4zLX60R+PhCEXBzAP7YDW4gYIAbBOzfgmf2k723mofcHIanf/1uoKsGgBtoAKs+Z3w22Crg9C00t47aKQtT6Aq7G+gwEDBtFKB8/6bxu/2+E6wjCs2tg3ahgHWv5XpKPaAxAJyCdbtuErCzbK5pnGEZgD/jA/BqWJMAgIB9vdQj4FOuZpRr2G0VlR1BuIEGcNrADV7a+H0rDin0msYZlgHY7QY6DAScdFGA8g1sns/3Cdi60GsaZ1gG4PAa3FgGAqaLAiDgOwSc+4bsmJV57w103RAEARjAqM2l9+v9rrusQwrNfSN2n4DfT63X4AYCBpiM+4Vlg4C9J2KfgM0bZzgGYDMBF44BN9AATlvY/f1+/ZJxTKHDT1SdAk7dS6XrEOXu9UgABhBs4RFteG4wDLmAz1mauopjfABGwAADu5y7lxDwYY0zDAOw1w105SDEKec4gCO6XNcbbhLwOqbQnH2iahSwzSR1DtDuP04ABhDobUYfHhwM1QI+52wonFmnVbQQMMAlAm7bZ9cIeM8d9DmNMwz96/QJOEpHIU45xwGcIOAJIf0XrxkHFYqAuy6g//idxgfgDwEYwKjJDWnEk720ZSrO+e1M+AVgJwEvBAxwi4BzwDtOF/CW7o6AK+sNm8GN4mMIN9AACPjpWX+yl6QCznPWpnBifVZR8SjwCRjAaBuPeMnhAv4g4DoBp3Qpjg/AccwyAkDAsmYz2ks7LjjPSS7hF4B9RnchYIBrBDzCS7/ofHGLgAMBF86rjZai+hiCgAEQ8OPj/mwv6QQ8oHGGXwC2Gd3yYwifgAF8etyMY8ItAk4E3BKAbX4EXX8MQcAACPhxK57tpZAJ+KTFqSvXZHSj/hjCDTSATY+b4aVftL51i4AXAi6cVpNVVH8M4RMwAAJ+3nGGewkBlwhYvA7TdGDGRX2AoznLS9cIeNlnNC8Bp3h60mU3fP1aCBgAAT/vxcO9hIArBKx+I0//rv2VJi0UYPqJHgE/LfSK5BJ2AdhCS6EYBj4BAyDg56f+OwpNBNwQgD0ELDmGcAMNYNPixpwU3gp4SqFvBZwnrU5dsQ7HuJAcQxAwAAJ+3nbuOGkg4I4AbKElyTGET8AANi0ux7zpfAEHAt4s4I21GqwizTEEAQMgYLWA5xTqnNHMBKy3n+OYpHIVAsBZB91bBPxBwHsFnEdtF9ExBAED2FjtGgHPmZN3/3WOWJ3hFoD7BRyiUUDAADZWm9SNxxeKgLcKOPUvlO0b9vUr8QkYAAHfKOB3v8JCwIVT2p4LVQEYAQMgYLWAc06haaoINwHnUdtFNgoIGMBFwIO8hIARcF2l3QIO2SmET8AACFgs4EGTgoAblm63gHWnEAQMgIC3dT8EPPDqMMwCcPd20Z1C+BE0gI3UJr3rmt9Q6v+51TUCzo6ZSbfhqHpU0kABEPAuAef8SUHAhSu3918hhfAUgoABXDpcTnrZdUuh809U9QJOnxUoO4BuGQQEDICAETAC9gnAvQIO5SDEScsIAAFPEPCoWUHA8oXbKmDpIYTfYAEgYARcIuA8annq5rPzXyGF9BCCgAG8W70eBPz7zoqAC8vs/A2W9hCCgAEQ8Lau8Bd7d5QkqQ4DUbQjtCFFeP97myVMAVYqZd/8fwMqgw9JV/db5w0KwPLlbARYW4DPuowIAeABAOeoQQFYPmUjwOKHEAAmBIABuATgsy5P3ZR9AIf4MwBgQqx3+lmPCwB8HcDZtC4ll5H6MwBgQgAYgB+ebQBw3ZB9v4Uk/wz4DhYhJhvcNQDPWhcAVl+1YS7/vs+Av8NBCAADMAADcEMBBmBCrEUDYMtBY9QTVSXAfaczvwADMCEAvJFRAL4M4Ow7nfkFGIAJAWAABmCjAtwFcMMzyFmXESEA3ArwtA0FgD8CnH2nkyYfQlYfE4AJAWAABmDNhD0Ad7wDAGBCTDY4XDpt0MMeEGUTtuDfUYABmBAABmAANirAPQC3fAQATAgAb+MFgK8CuHNVNl9GPe8AAJgQAAZgAPYpwB0AN70DAGBCAFgLsNHCAPAXflpXZe/90vRD8AXAhADwrQAHAL8HuOyC1R++64fgAEwIAAMwAPsU4AaAu74FDsCEADAAA/A4gA8owPzfCAlx3udxyfTJKI5qLtGijw/Abb8GDcCEADAAA7BPAZYD3Pdr0ABMCAAD8NN9dl0PcOF0aoD7/g4YABMCwAAMwD4FWA1w49/hBGBCAPjVxgDANwOczVffvsuo8+9wAjAhAAzAAOxTgMUANxZgACYEgAEYgI0KcEgBXo0FGIAJAWAABmAff7UAd76ABmBCAFgMcE5bGADWXqtSgDtfQAMwIQAMwABsVIClAPcWYAAmBIABGIB9CrAU4N4CDMCEADAAA/CdADcXYAAmBIABGIB93kArAW4uwABMCAADMAD7FGAhwN0FGIAJAWAABmCfAqwDOLoLMAATAsAADMA+BVgHcLu/AEwIAAMwAF/YgNtfQAMwIQAMwAB848+A+wvwYZcRIQAMwABcDHAaXH3f7xeDAgzAhAAwAAOwUwXWnIRBAQZgQgBYCzD/M4bxAGf/1ff5MloGBRiACQHgfecLwFcAXDyaAuBwKMAATAgAAzAAO72EVpyChb8ATAgAA/DjHTAuB7h0NgGFDt/AAmBCABiAAXhZVWDBGXgUYAAmBIABuATgddb1qWOh3sLlUYABmBAABmAAvgrgMCnAAEwIAN8L8ALgtyBNBtilAAMwIQAMwADsVIGrAQ4XfwGYEJcNLoed7zUAnzBogUhzAXZ5AQ3AhAAwAAOwVQUu5tCnAAMwIQB8r0sA/IGkZoCz9p+XzAvAhACw1iWeNM4AOHtPJ6XD1owLwIQAMAADsFEFLgU4jAowABMCwAB8/KAlKGXr6WThkquGBWBCAPhWlwKAP7XCgQBbFWAAJgSAARiAnSpwJcBWBRiACbHe6KedLgDfBHDRhIUAew0KwIQAsBjgEwYF4MKljLJje72ABmBCABiAAXjem9lXl5FZAQZgQgD4WoDXLYMC8Kc5s/MCBGBCABiAAdjpy8FvDm32AhqACfHZ6XPU2QIwAHf+euyLT9euAAMwITY7HAAPei4C4OY/EPXifrErwABMCACrAZ41KADLF7PmyMuuAAMwIQB8K8BRDXCedHkKnzJKfhE4/AowABMCwO92KgAG4KIhSwA2LMAATIjPDneASwHAtwG8vBZmUgEGYEIAWA0wTxpHAZxd5zO+AAMwIQAMwIcPWgvw6jofxYi1/AEwIQD8pisAMACXEbEfYMcX0ABMiP1WD8C9gx7wSFUM8LJama3+Zv8VCMCESHaUawAeNegBj1TVAKfTJbh1QIMrEIAJuQjg+LT73QLwHwAXOrUbYNMCDMCE+O/1lrvxNU8aAKyfc/P7hTD1F4AJAWC5SzxpHAbwslqabeNZbAsATAgAA/DYQQUAp9PSvFuqDvoAmBAfgC3utWtc+rYmAFw46FaAfQswABMCwK/6wi2D5qdt/RqAs+OEcucF3XGRAjAhALwR4ADgebvnBoCX7f1iXIABmBCnLQ6X7JYEgDseHjce09hfACYEgPUuMehxAO+ddN8xbX8FCYAJAeBrXVoAvBXg9LxfnAswABMygbXjXJoz6Mf//h6Al+X9Yl2AAZgQAAbgOoDzoKtTOOquyyisCzAAE+K03eOSHToA3IHWLoCXdQEGYEIAuMGldcugNwGc8vtlVQ1mtCsAMCEmGwoAqxckv35SFwG87O4X8wIMwIQA8Jstqw42AB4LcBotzxd/l9NFCMCEqPa4+cVwCMChAjjPuTiVl++OT9f9BTQAE+K1x+ESgw4GOOWnVFGAdUsGwIQAcINL3V3/exkaMqgU4CU/pdEFGIAJ8drxh7gEwHN+rK8EONULlPsLsNlVCMCEAPBZxTAAuATgpb4Sc/tQaXa7ATAhDk/0Z7nEoEcCnC73y4AX0ABMCADf6NIOTwC40q+vb1LWgAIMwISYbXIjXNoA8IxBc/qKygFOj/tlRAEGYEIA+PmulQwKwLXjfvw+/ogCDMCEmG1yOeAct7jUOei6ZdAGgFO7Rjm4AAMwIWab/jUurQmDTl/RBoCXeI0GF2AAJsRt05/u0gCAQwqw/zvovQBn//0ypAADMCEA3ORS3jLoZQAv7f2SGwuw454AwIQId7lrXOobdFOZO+aHwJsBTu1J7fM3HS9EACakd0M506VlvxLTB20CeDXfL1NeQAMwIQDc5lIOH3RA1+8BeM+8b48WYwowABNiVzCnuxTL/FFjWyUC4MqFfXu0Of4CMCF++/4tLjHoqQBn4/0y5wU0ABNiuM1d41J6r8N/Bw0ALhz45Y8yBhVgACbEb5ub7tIxAOfsFW0EOKVnNbUAAzAhAPy0OWxzaTHooQAv6UJNLcAATIjhzn+NSx2bS2zclAG4cmXfHGxUAQZgQgyJu8Yl80Fnr2grwEt6WkMLMAATAsBPd66N/9bwQQ95B10BcCpPK79Okr47AgATIt7nrgE4jRfhh5OLMypwBcBLeVr5tQAbP5IDMCHifQ6XGHQ6wBsmfgzorBfQAEyIZctM31Pb69KaPeiffcfqA3gp1yq/zeG8IQAwIerN33kL3upSGg/6N3nQfoBTeV4jCzAAE2IJ8DUuLdsl+OnU4ogKXAPwUp7XyAIMwIR4bnSzXbLd/AKAdQCn8LLMiQUYgAnx3OjS9cR+OrNwFXj1AZxHXJfaZvnoWGtcAQZgQkz3f1uXkkEndH0HgFN4YjnvBTQAEwLADzfg3S4lg54KsLQCz3sBDcCEuO50abYPPNtUTRvI/kHjhAoctrgJAHZ/IAdgQhp2umtcSgY9FeDle2YWiwLAhLjdcfIbL3pdWp6D5vYVta3AYctbHO0vABPiCvCyPKkKl5JBTwV4SZds2AtoACbEF+BrXFLtglExaBxQgX+aIVsa5tEFGIAJsQXY06WKfzQNP/ySQUcDHB0VM04uwABMiO/LPseHgsEAR83efMA76N8A/uvomHFyAQZgQnwBdnQpd+4t2keNawatArilAp9cgAGYEL9bTrs/LAOXkkEHANxSgU8uwABMiDHAinuv6MXsn10VqRo05lfgXwHuqMBxcAEGYEIM9zrlDrEsXMpbBl1jL8r8a6nAcXABBmBC7q7AUbVnublUNujftF3/A8AdFfjgAgzAhDgDXH/3LROXqnfDuGXQUoA7KvDB/gIwIY6bna1LFrQrtvGxg9YC3FCBq95BO6wDABNiDfBcl8KpkBQWYK9BiwFuqMBxbgEGYEIcb7oTXLJqhstoUD+BHwDcUIHP9ReACTGvwKt7A3h9LkbvBOOWQcsBbqjAx76ABmBC7AEe61L4lJJ1y6D1AOsrcBxbgAGYEMu7ztOlZ3tB2LSSuGVQAcBnVOCcsxUAMCFz2DOCw6aWVJ/IGl6BHwGsr8DHFmAAJsRzuzvBJZdmGHYAr4FXZH7yMKXrNwU1ACbk1gq87ABeJoNm+aBeu+ozgOUVOE4twABMiD/ANfegQA2PnTEMAfaqwM8A/pObd2oBBmBCTPe78u1asId6bI2Wg65xF2R+a6QpvWGGkAbAhAwAOB1OYlkew+LTHq3AY4DlFXgzwLPehQEwId2dbPtdGJJzMNgdJYPG7Ar8FGB5BT60AAMwISMq8Oq49VsAzv5BRULMBVhegQ8twABMyAyA18gziHaBly/Aa9b1mB/X9cvCxpkFGIAJcb3xKrdrGYzdO6Rq0Bgt8GOA5b8L3F6Ao2TRAJiQIRV4NR8+GXS7EAWTagBWV/5o9rfosQmACZkCcErv+z07V3Mz1B29+XVofPo3XwAsvoK3Abzj6QqACZmd1u1aefBbBo1WgUPw62LZ9Wzz4QGn5osM2idhACbEAuBNj95hD/CmTUdavzu/khsf/9E3AIt/uBBtBTgKTQRgQjoSfdu19tDXDNr4SzHx9R99A7D4+3XRVYBLf0YCwIQMqsCr7cjJoEVClMwpAFhcgXsKcPT/jASACXEBOMcd2MqlyuOupkk3LNcrgAdW4Nx2UAAmZHKiSWC5EtcMqv1i7v8Om9vXKLesbCvAG5cUgAm5sALXbNeVR71l0GgReIsQ7wAWV2B9Aa5nEYAJmVWBa7ZrQ4A/DdrwE9lYDZPu+TdfAqytwOoCHIKvrwMwIcMAbikRwwad9XTz+rCxacleAqytwJ/fQefWw21xEYAJaYq+MK2WMnrNoKEWeFtHewvwrAq8+WAATMiVFfjlPSn99cnOZtg0aOh4+GlMU4Cz4Tp6fNwFwIQA8L67X97Pugb9axvU5iu6T4d5C7D271GG7vNVwQjAhMx7B735G53Ve8CcQRsfqQqIqAd4UAXO7ccBYEJurcDPbkzx70/2DRprMMC/j7r5g3sN8KgKnJuPskFGACZkZgV+sJHF0gnYOmjzg8aOP5e4dT3rAdZ+EdrqwwVgQm6uwL/em+Lfn+wbNLoHjQ0C/3/Wpie03Ddy3wPO1hUEYEJursC/7AECERQwOb0ALq3A/xu2YqAPAEsrcNQ+38gfTAH4X/t2mGO1DoMBtJI3FGn2v7f3fwS8gds4sX3OAi51muSzC0DlEfh/b4Gvr4zsSwmm00uZNgL/6Vn2BN0nAVxsBP7dH39vwyaA4d4A/sNt9s7Pr2sKXYe//WYG8K/ebOwKuk8CuNwI/O0hrv9iIoDh2m/Qv71oY+Nvnyt0baz0pjpzS/oogCuOwLfsGAEM5Ufg7wc17rplNo0ur//sdXWmDfUfBXDdEVgAgxH4bu+c/5hS6MAAzhyBBTAwKIAVWjghUgI4dQTu1bMJYOjyDfriuXBOoRMDeOwILIDBCFxgAJ5TaMWqPgzgsSOwAAYjcIEBeE6hMTCAx47AAhiMwAL4nkn/GRjAY0dgAQwCuEIuPUMajYoj2scBnDkCC2BgxGS4phTatc6kAM4cgUMAAwOC6d2zP6TReCYG8NARWACDj9AF5sK7O422dWYF8NARWACDEbjEAHxxp7Ha1pkWwDNHYAEMRuASA/DFnUbfOtMC+Elc9xDAQPNgev/kD5n0n4kBHIkLL4CB5sE0ptNoXGdeAGeOwI8ABloH046DP2TSfyYG8MQRWACDAC4yAM8pNAYG8JPZ+whgoPFkuBTaoM7MAI7EBAsBDPSdDBXaoc7MAB44AgtgMAKXGYDnFDoxgCNx9UMAA10nwymFrt51pgbwk7nPBDDQdDJcUwptXmduAEfi+ocABnpOhlMKXc3rzA3gJ/MFCGCg5WSo0CZ1JgdwJAZwNGjfBDBI4NQzH0MKjTr1vRbAT2YLJICBfsG0FNqko0oP4EgM4EcAA+1GYIV2qTM9gJ/MEIvy+0cAgwROPvExpNAYGMCR+RIEMNArmBIO/JBG43ydb268tafmVXeBV8oGEcAwaARWaJ+O6kAAR2aKhQAGGo3AS6Ft6lxvPuZPfyy1DyrewQlgMAJnD8At/gtJo2+kkf5jr2242jtIAIMETs/fC0bgCXW++pRr0x4uu8ACGHyELjgXDip0YABHaidUuoUTwGAETh+An/r/gLXTN9J3A/hJ3XJReQsJYDACH8jfMYXGvACO1FcRhbeQAAYJfOSsfw0ptECX8XIAP7lBJoCBBsE0pdDUO63AN9K3AzhyN13dPSSAwQh8JH/HFBr3txlvB0Huy4iye0gAgwQ+dNK/hhR6f5vx9qpFbpJF1T0kgMFH6FMHfUqh15f5elBe+HepN+4hAQwS+Ng5n1Lo7d9IXw/KyA3g7Bl4Je4LAQztL+yl0I1u/0b6flBGbgAnr3Dm9hfA0P7CnlLo8kJTAvi5cZi87rCEAAYJ/KXQZqP++0+36cWueiu8Une/AIbmwXSw0CGNRnKd6/2H21TwKrfCK/eUC2DofWGvKYVOqXPDuPrXeyTS9169wxKX71mQwL3zd0yhcXFHtSOAn/yeqFwTJ4BhegKf/sYVQwpNTOANj7Y21VtthdPPuIsQOl/YUwpdU17oP7zRLauXv/ui2mERwDA7gRXa7ZvGlqzc9FpXrZ200nfEcg9C32C6otAhjcZza/7uCeDnQKJFqfwVwDA6gS8pdEijcW2nEVtyIA68lqiUvz94WgEMbS9sheo09gXwc+K9RKH8/cHDugOh64W9phSqpfrwsQrlS1Q6LAIYpibwmlKolupMAD9HdmAUOiy+QMPMCL7tbMeQQuPGTiP2LGGc6YyiTA8XAhgmJvCaUuh1ZV7ZaWxaw1Pvpswm8gUaLhcTYmlXAmupTgZwnGoCq2wiAzDMS2CF6jR+vvJr0+8WWeJ1bMcLYGgYTFMKXVNe6OevdNdvH9uGUWIThS/QcL8RsTSo0Os6jdj043Hu9ZRoVg3AMGoIHtNqzGmp9j7P2vS7JZb45Ll260GzG/v+rjqGFHrZN9LI/tvlVWCJ19Fj7c6DXjd2ia9aA+b8F1uq3U+zNv1ugSVeR0/1cuVBpxu7ypGOIYXGTY1GbFrKOPqK4vqn959+AAAA9ElEQVQmzgAMI5JJod1aqoRn2fUur1/idXirG4ChUTIVO9Aj+ozPIjjjUdbFv7t1iU8/nvyFPjf2UmizlirlSdauN3n5Ep9/OhcddLmyi7bT3afff4/glfMga1eBdy/xOv9wBmBoEk1jeo0pnzWylnvteo3r5iVeF+xy+Qst7uwx8/6Q97nynmLbS1wXr/AVe1z+QvV4mlLomvE6V5fKru1z1iXP5VYDuCQkzEP7Q9iiAPB9ELYc+xPYkgAAAAAAAAAAAAAAAAAAAAAAAAAAAAAAAAAAAAAAAAAAAAAAAAAAAAAAAAAAAAAAAAAAAAAAAPC2/wBnk1r5PwqSfwAAAABJRU5ErkJggg==;" parent="1" vertex="1">
          <mxGeometry x="320" y="270" width="53.33" height="30" as="geometry" />
        </mxCell>
        <mxCell id="w8iW2eLROjgxSak4wuvQ-2" value="" style="shape=image;verticalLabelPosition=bottom;labelBackgroundColor=default;verticalAlign=top;aspect=fixed;imageAspect=0;image=data:image/png,iVBORw0KGgoAAAANSUhEUgAAAMgAAADICAMAAACahl6sAAAC01BMVEUAAAD////////////////////////////////////////////////////////////////////////////////////////////////////////////////////////////////////////////////////////////////////////////////////////////////////////////////////////////////////////////////////////////////////////////////+/v8dKTocKDgfKjr9/f4VXu8jR9P4+v+Jj5ggLDysyPoVOc3b6P36+vvw9P9WX2szWdnO4f2fvvgrNkXu8/7Q4/7m7/5zme7C2PyJrPRVfOZEbOCxtbskLz/8/f/z+P/p8f640vx/o/EtOEe91fxtk+zr8v7i7P7Y5v6MrvTv7/F3nO9wlu1njusJKMb1+f/g6/7W5f7E2v0bP8/6/P+oxfn29/ceQtCeo6q10PuUtfZqkOtljepudtcoTtUFHMLk7v6yzfumwfeauveRs/V0mu4mS9THys5ja3d7n/BYgOdMdOM8Y90YPM4zPUzy9v/L4P5ReeVIcOHR1NcgRNGOlJzx8vOFqPOBpfJiiuo2XNovVdcrUtYLLMhNVmM9R1XS5P7H2/2XuPZSifRgh+nLztINL8miwPi9zfZBaN4SNcvCxcqeoqmEipNZYm7e6v7c6f5hkvTk5ec5X9u2ur+tsbfI3f2vyvqouO9dhOgQMsqhsexbg+i/w8d9hI1JUmBCS1muxvePsPWgufOvwPLq6+12fYdwd4Jqcn04QlF9ofFlfd5ccNoIJsa7v8NSWmd/p/a1xvTg4eTZ295tdNWhpq2ZnqZeZ3IYYO/c3uHX2t2qrrSmq7IoM0O2x/QXYO9uhuHb3N9GUF7A0fcVXe9jet3T4vzX4fphk/RgkvSkqeVhd9wXQlhIAAAARHRSTlMA9AT7+QrqQyIP7yyCsotz3NQmGdi/VTYIRhbim2FdMdG6pJRRr6uPPPHnzbZrZx0T3896WsKgmEqFSMd+fHZYy8lkeKuoKbwAAA9lSURBVHja1NWJTttAEAbg2fWV+IztmDgEJyH3RQJqoAdVAXX2/V+pihAtRUqwY3s9/t7g18w/A6XQdoNvW/tqeu/f6UwVqKjLVWsYzcY/E8MKOdQAb3a286itq3iMumo77t7SCMfhVv/rC8N0zMidNIAeHl5ctRlmIsy1270FSiwvYngefZrsgAQeeGuGebDrJISqaf0Nw/z0UZdDdfhgrgsshmj9rqz7PxyGRdIfBiCf1l9j4ZSNwUEqLRkKLIMayYwS730sjbg2QA5uPCpYJnVmgQSNmYplY27pD79pmyhDrx9DmRbPKIniNKA0l2MV5Vl6GpTD8FEqEQVQgqaroGzmlkPRgkeB8imjSyjWk47V8DtQIM1VsSpmwqEooYMVUuYxFMPysVpOMUVZ9LBqL7sias6wenf5K39DIQeibkAu/ItAGpaTXDlsBalYXuTI8Z3KPA7Y0/nzoJQDkZ07E4/OXr1iXTjHlloORNOA7CY07u7/VgFk1aGYA7G9g2yCFtIUaZBF8xmpeuCQXjxCsoQH6f2i9UDey3SEuzSL/qbXgHRCqkV/s4nTFcRB4oQNadzQ++gfqQv4nEW7IK/8W/iMdo91MK735f1HMeC0oA6LdTA8vVyc/MX6y4ZT9vVYrANmwXFN6q/wvSmHo/5wZ3crCAJREIAPpkURSSFGf1QmRX8XFkRB3c2+/yuFgq2ru/eN3yuc2WX27AtEVOr+sB2AyS0QhweoqKvYrVmu3lLWF6s92IT2gfx/WazL5u0YCBC24YTkFoE0LMFo1XzfMg4EODdG8galzpO5ZVVdxBTz1F6TX9sNbcFqaNZFH6wio6d8QEvNRAs24JWINuWrWVq3kq0RiKlYSl4EZolOFu+dlTv9snUHt16ZLI51r9uBu/hqY08KKcgdJ1LYoUp9qbW/16TCMA7ggyLodxcRURFFRN0FdVEE3cT7nvO+UEeycBFN6fTDtsKcVJKS6U1r4nRglizdTWUoBbYuRiuE2Y9Vq+2iqKjoJ1QX/RE973OO55jHmsyC9d10+np0fvY8zzmHoTVT/oRyuQZZX71GCfmfCFo21vn/Iv3xSEsX5iHGsWPngals0oZkE61eo9879u7t3LvX642Pj7uzGafT6fGMeLqvhXJHTpEpmmlLBGQOMYMQ4YgCxO1GiGek+8yZcyJdjvNkamazgMwl1aE3fJ0CEvXG4zrEA5Br51pbr3ddD+S2kcnn3w3dFnAsXkDMCEiko6NTQLxWSMAWCB0kkwoy8Lp2kf8F3GqALKE1EF+4A2uilwRb65oOCdhsAcd+MplQbi+O9vS9ItxcAkPwdbp4+1KzloUw7WtJDaQ/LEoCNYl73e5MRq9Iq4CA4+5Zm2NSv5aSAUWSpGSBUtMxOPpAkWWWbhYyYx180MEK8YEEd1zjIBEQo7MEJHS2Xk0mPIbSIlOYpLArQVpx8AFVYkxR1NfNQqbBR87XWCC+cDgsaiKmJJs1IQEsyNnQodBJYgm3V4VbW5+S7RKTZZnJ7/UHwCEzJskSUz80PSaLYKdlhfhgTFAShyOJ06lDsCDCATlCanPz/mUzPQNvCnYcgerOEhDJgFBaVBRJrPwNyIaWlhVWSCSC3SXmHaYdIUZBQgBpb2/bVjsAfeKvq4VBZHXsaZpTXrXJbdFazGgtTl5I4IClz8nmIctaZi6theQjkDDWxAvjnvU4u89gQQwH5ETthEDjSDIq8MLgova8JmZRqL1HrKq3iV6RYyo+Izn0/glvGrISzrRqIaX+PBQFd8JQEgNS7Wjz+7dZIBJMgFESSRac3Z9gXIxNgh9v3R9NV6pEn2utNkR58w6ysGX29BrIl0Q+n++PgCQsmmvc7UTI9YA+IMBoa/O3HbVC0PErRRkwJXjD/MH3IWT3ILdTXLJo9LWGlLPgMGKBlEog6UdJNDruzsCMYEEMBhTE30YtEHCMve2DDPQ8UMVYi7HZbsyJURr9eh8TWxwOCgZetFj36A1RWhZZIK7hxDBQxKCIMYEjyQjMuunwgyN3x3++HuQW0RIs3FM1iVqmlXdeLMZisfIg3gmWC324we5YMVZ+As94XijAwwU7JeZUFcVK+StpBLK1FvLyQiKRGAYK1MQHp/TxrLP7XGsXDEilrXK53J07d07UgbBdhFMI55ymH+AblcaOVSCqJPIW78Sgq4xmlIcIsT+Q8WaMmkO1D1fYm4Yg860Ql8sFlNJwXkx8NJoVFQnYRD1EUwlFCnKS1oeYpx+6pE9rDU52MxgadhrbKC0rDBwyDpIEA0/ewArcHCXGTNlvMQW+xoINtdacuhC0lEpwbOyMxjMj57psZw/p1UgBwwG5uv+3EAzU5DBO/JUgr0AkcBkQ4cCSIIQ/SeLWyUucaOGDKqzglDUCmWeFXLjgAgyWJQ/d5c2MtNruhtpxNFIOoUjtcexxHP8zhHB9TSlSWoFITLpJCUKYsb9W5H0AoffEAmMfKzNFT+PTP7/iDbXWKguk90Jvr8Boln5fR9xz/e6hdr8fFMAQ2SMgByaAEP5EYeKt3jMhsiSf1iDJK0m4Iwo2diV5m0IK2tbvONf3z5dx//GMNwbZWAt5fLFXD2ISpUhnt63dn0uhwIzj/IQQ/gLfyn3CdYhsQGjQPoSQZNBuD3IqCohbM3WQaq8YEzCmlCltCLLMCtHSi1fAcQ07U7rgKnyLL5E9E1UEF7FbKhDJgBCqHxDZ4UucU802JMOC6D28S0bxFb/ZOZkk5Cez5vPjUhTF8YWtWImFiMRCYs1OYiP3aK8+1VGTKJHQViLpiIWWKbVRVmMWU00oi06rElGKaf2opKn4tWAqfoYyBPEjiB9/gnPOe73e9F1eKyFOE9L2Td/75Hu+59577t3UicOH+b+x9L7QtoFtGDvNOMH/rHdVBOReBvEoENKHQPhLLK4Esl2qTLxrCsiPLo+VqPR6niHWH6ZWpQNSqVTGxvL58UA7O5S4cGFgYIBg8MVEn10VEfK1x0sga+AniEcLYhfQT2tIgDqKg0XstuLo0+wMUmGGscv5wcHBdK7cjm/ZcGCoxiyMw/LE3UFemSB7oBdFhHwSZrtPgMTXFAmChUL2CDLLATKGDETBGOMjvtSOthGKEQrLYrEMnDDcU+t8V2qRR87/GkSM8o8c2iOlfPqGBPG/h14VmakBIYrLg8RR8PmGAw/aRjAY24AkQ4lEjVg4Iu5mn+gCwUezK4JhBwGor+AhsA5rALOS527q276nKI08apFnNcbTqEcmsH9fMoskWxAlgSS1GnNcAPfyu5aT6cPvzL5OgZDBb5pDB8CaD4TkrQP0CrJcA5K/PEgchcKIL5cJNBEkmg2GiGSIRGFZtoWEK8gxnCZOHxAxbCBepYhtwezBzy6JU14SpKS+/INpfINyiuVI+3y54UygjCDxaJBJDhxglFqiti3oBiLFUXMYeahAujziZY/Y0bf7ObeeixbX3ucCegZZpAcpIMeIz0ccDEIkMSQhFAzUBFxAJLw0J413eRrIqeWiiJCyZQ4le0ps9d4FEc6lbsPMKuZIDQdMECMeR0lCW5iEQWJCuE3jSyu4+NI03lG1tB4RAA/9lFuezX4vYk4CaJp/+qWus/nQYDkKIxbH2fIOAjGiWUouJCGUA4mhiBbkkaDmnLQWVuzXEgqiQPQDor3Nd4NHzTAVtPBB3WJeTzLb2Q5qjJPL0z7iQJAmgUgDSRDEJKFCjILoFQEKsf3cnTD3h9RS16Vqqd85jxpicIKBND/bffHLxU583aUFWeBs0DXMvCKjsyBFBIkYRtyUBEnI8huSepBDE3cmJydbjw5hZrAe3qP8NO5mV3an9RUGWv6VJQg8Xvl2pRUvVq7WgsxztkwbjIEcqeEMghR3sCJJI0qSoE3I8Yms0IEgiRWqHbQKU60fEMD1lSnJClpZ9gyyxNHEjlz1pUcIJMUOaRYtRSxJzOwKCS0IkeCLgjGwiyiZQ6UWg8A0jxzrAjkVtkBWASgQW+hB5uC2ggYE9TAFaTZREQJJEohJgiCgA7HuzyDcOfW3noDiUEvdvQqELu0GEVKS3ZGQ9hqcIG8JRL+tsMgBohILQYoKBEmiQdMmzp8CHPz8trRCopvXLwFI+yVvuLv9rPN4VygREaS7KF3zcJtoVEgF8vGFSq2PtwD0Gz1zQQOSQg5yCArywAbCikRBaEBeV6trO1Ftrbpy5BgVsGmXjE5V11ar9c77h2vxL6ZGu0HkQQ836c+BUuT0SVtsBP3Wm9oMVSCsRyrDIGUbCI3uoWAsLnQBooeDH9MaoGC+7x4mpJjiKn2crG6/8rcN1IWO7WkEYY5hLlkdEGmBREPxiNAHgFShKDSXAOjfqg+PhLnValmpx5F9GR8YcKRWjjkos8rFB5YiSbR7KBsRfzkAJsyqfFuKPmKp5gjH1Vwu1xGEvI5mb0MyGYkZBoi/HvLSVi9P/UU/N5sxV3Oo5sy7d+/ucXz69P0+x7dI1Pg3B4UAnrMg4SN93E+dPFvs6tp/FnJPia0+KvvKrHn/28EzgM1+nvrX+7vn/P/tKOAPQQdZPTJcSIoQTaFBtjjT1fU+sCYE9cVIixBBpkG2XNbT9YwbqI2WcZ20xKw+2BYwuz6LALbYQF1cT5L0sQ+6JeWJvWBwmbSUpcU52Bb5w4p+IIMUoDT4tl24epJR3LuKDcONMMNma9Kw2Sw2fLbvDeENlZbDdIurwXDZdDxstoEzCA/N7K7NOmyPShg+h1cMm+NEhmKDy1BqWB+5M/RyiSHnMD+WavgcFDZsjm4DtHe3OwnDUBjHT0vXzg3GwpzytsHEoQECiigG/aI5vf9bkhswQVm7eubvDhrC+bLk+f+tmZeSN2DekM7gJJkJUDqjrHRmcskMF9OZkqYz7g3JI7qt6DdsAN/xG8wGDYxEkMl20AmpuJu28RsbGwJYu3e6AtXoIBedRBqZaB2djCCdsCOd1ObRzoVPWaN7OJ9aYN22Po1A8Cr5Tza7FNH+5FChHY2sOaHQPJ30/5GyfL102gMzhnubPwrremCM2qIletUDky7aAdowyvtgmF8KNI1FQzCPq7cWmiTmIdjR3xm8X7pQYI+XTTWaINIBB6u8fImVaxWKg32HDsMqyZcJ1INP7qTGauj4yYcaefmK4fnkzYFDzXivuzzvLazIEnBD2E1/+xZZZhtwCE+uxvEPH6ODZTR4APfwMN9/nPqYII1ufXAXv7hez9JYCvyOWFx2ojz0av9zn8LbTF7X7XH5PB1JJjS2BJPxNp3P3jMVJhwM+AIVnsBaW8V/RQAAAABJRU5ErkJggg==;" parent="1" vertex="1">
          <mxGeometry x="430.01" y="291.5" width="55" height="55" as="geometry" />
        </mxCell>
        <mxCell id="w8iW2eLROjgxSak4wuvQ-3" value="" style="shape=image;verticalLabelPosition=bottom;labelBackgroundColor=default;verticalAlign=top;aspect=fixed;imageAspect=0;image=data:image/png,iVBORw0KGgoAAAANSUhEUgAABJoAAAEMCAYAAACMbtx/AAAMP2lDQ1BJQ0MgUHJvZmlsZQAASImVVwdYU8kWnluSkEBoAQSkhN4EASkBpITQQu8INkISIJQYE4KKHV1UcO1iARu6KqJgBcSO2FkEe18sKCjrYsGuvEkBXfeV7833zZ3//nPmP2fOnbn3DgAaJzkiUR6qCUC+sEAcHxpIH5OaRid1AxzQABVQgBaHKxExY2MjASyD7d/LuxsAkbVXHWVa/+z/r0WLx5dwAUBiIc7gSbj5EB8EAK/kisQFABBlvMWUApEMwwp0xDBAiBfKcJYCV8pwhgLvldskxrMgbgFARY3DEWcBoN4OeXohNwtqqPdB7CzkCYQAaNAh9svPn8SDOB1iW2gjglimz8j4QSfrb5oZQ5ocTtYQVsxFXlSCBBJRHmfa/5mO/13y86SDPqxhVcsWh8XL5gzzdit3UoQMq0HcK8yIjoFYG+IPAp7cHmKUki0NS1LYo0ZcCQvmDOhB7MzjBEVAbARxiDAvOlLJZ2QKQtgQwxWCThUUsBMh1od4IV8SnKC02SyeFK/0hdZnillMJX+eI5b7lfl6IM1NYir1X2fz2Up9TL0oOzEFYgrEloWC5GiI1SF2kuQmRChtRhdls6IHbcTSeFn8lhDH84WhgQp9rDBTHBKvtC/NlwzOF9ucLWBHK/H+guzEMEV+sBYuRx4/nAvWzhcykwZ1+JIxkYNz4fGDghVzx7r5wqQEpc4HUUFgvGIsThHlxSrtcXN+XqiMN4fYTVKYoByLJxfABanQxzNFBbGJijjxohxOeKwiHnwZiAQsEAToQAprBpgEcoCgrbehF94pekIAB4hBFuADRyUzOCJF3iOE1wRQBP6EiA8kQ+MC5b18UAj5r0Os4uoIMuW9hfIRueApxPkgAuTBe6l8lHDIWzJ4AhnBP7xzYOXCePNglfX/e36Q/c4wIROpZKSDHukag5bEYGIQMYwYQrTDDXE/3AePhNcAWF1xBu41OI/v9oSnhA7CI8J1Qifh9kRBsfinKKNAJ9QPUeYi48dc4NZQ0x0PxH2hOlTG9XBD4Ii7QT9M3B96docsSxm3LCv0n7T/NoMfnobSjuxMRsnDyAFk259Hqturuw+pyHL9Y34UsWYM5Zs11POzf9YP2efBNuJnS2whdgA7h53CLmBHsQZAx05gjVgrdkyGh1bXE/nqGvQWL48nF+oI/uFv8MnKMilxrnHucf6i6CvgT5W9owFrkmiaWJCVXUBnwi8Cn84Wcp1G0F2dXd0AkH1fFK+vN3Hy7wai1/qdm/cHAL4nBgYGjnznwk8AsM8Tbv/D3zlbBvx0qAJw/jBXKi5UcLjsQoBvCQ240wyACbAAtnA+rsAD+IAAEAzCQQxIBKlgAow+G65zMZgCZoC5oASUgWVgNVgPNoGtYCfYA/aDBnAUnAJnwSXQDq6Du3D1dIEXoA+8A58RBCEhVISGGCCmiBXigLgiDMQPCUYikXgkFUlHshAhIkVmIPOQMmQFsh7ZglQj+5DDyCnkAtKB3EYeIj3Ia+QTiqFqqA5qjFqjI1EGykQj0ER0PJqFTkaL0PnoEnQtWoXuRuvRU+gl9Draib5A+zGAqWJ6mBnmiDEwFhaDpWGZmBibhZVi5VgVVos1wed8FevEerGPOBGn4XTcEa7gMDwJ5+KT8Vn4Ynw9vhOvx1vwq/hDvA//RqASjAgOBG8CmzCGkEWYQighlBO2Ew4RzsC91EV4RyQS9Yg2RE+4F1OJOcTpxMXEDcQ64kliB/ExsZ9EIhmQHEi+pBgSh1RAKiGtI+0mnSBdIXWRPqioqpiquKqEqKSpCFWKVcpVdqkcV7mi8kzlM1mTbEX2JseQeeRp5KXkbeQm8mVyF/kzRYtiQ/GlJFJyKHMpaym1lDOUe5Q3qqqq5qpeqnGqAtU5qmtV96qeV32o+lFNW81ejaU2Tk2qtkRth9pJtdtqb6hUqjU1gJpGLaAuoVZTT1MfUD+o09Sd1NnqPPXZ6hXq9epX1F9qkDWsNJgaEzSKNMo1Dmhc1ujVJGtaa7I0OZqzNCs0D2ve1OzXomm5aMVo5Wst1tqldUGrW5ukba0drM3Tnq+9Vfu09mMaRrOgsWhc2jzaNtoZWpcOUcdGh62To1Oms0enTadPV1vXTTdZd6puhe4x3U49TM9aj62Xp7dUb7/eDb1Pw4yHMYfxhy0aVjvsyrD3+sP1A/T5+qX6dfrX9T8Z0A2CDXINlhs0GNw3xA3tDeMMpxhuNDxj2DtcZ7jPcO7w0uH7h98xQo3sjeKNphttNWo16jc2MQ41FhmvMz5t3GuiZxJgkmOyyuS4SY8pzdTPVGC6yvSE6XO6Lp1Jz6OvpbfQ+8yMzMLMpGZbzNrMPpvbmCeZF5vXmd+3oFgwLDItVlk0W/RZmlpGWc6wrLG8Y0W2YlhlW62xOmf13trGOsV6gXWDdbeNvg3bpsimxuaeLdXW33aybZXtNTuiHcMu126DXbs9au9un21fYX/ZAXXwcBA4bHDoGEEY4TVCOKJqxE1HNUemY6FjjeNDJz2nSKdipwanlyMtR6aNXD7y3Mhvzu7Oec7bnO+6aLuEuxS7NLm8drV35bpWuF4bRR0VMmr2qMZRr9wc3PhuG91uudPco9wXuDe7f/Xw9BB71Hr0eFp6pntWet5k6DBiGYsZ570IXoFes72Oen309vAu8N7v/ZePo0+uzy6f7tE2o/mjt41+7Gvuy/Hd4tvpR/dL99vs1+lv5s/xr/J/FGARwAvYHvCMacfMYe5mvgx0DhQHHgp8z/JmzWSdDMKCQoNKg9qCtYOTgtcHPwgxD8kKqQnpC3UPnR56MowQFhG2POwm25jNZVez+8I9w2eGt0SoRSRErI94FGkfKY5sikKjwqNWRt2LtooWRjfEgBh2zMqY+7E2sZNjj8QR42LjKuKexrvEz4g/l0BLmJiwK+FdYmDi0sS7SbZJ0qTmZI3kccnVye9TglJWpHSOGTlm5phLqYapgtTGNFJactr2tP6xwWNXj+0a5z6uZNyN8Tbjp46/MMFwQt6EYxM1JnImHkgnpKek70r/wonhVHH6M9gZlRl9XBZ3DfcFL4C3itfD9+Wv4D/L9M1ckdmd5Zu1Mqsn2z+7PLtXwBKsF7zKCcvZlPM+NyZ3R+5AXkpeXb5Kfnr+YaG2MFfYMslk0tRJHSIHUYmoc7L35NWT+8QR4u0SRDJe0ligA3/kW6W20l+kDwv9CisKP0xJnnJgqtZU4dTWafbTFk17VhRS9Nt0fDp3evMMsxlzZzycyZy5ZRYyK2NW82yL2fNnd80JnbNzLmVu7tzfi52LVxS/nZcyr2m+8fw58x//EvpLTYl6ibjk5gKfBZsW4gsFC9sWjVq0btG3Ul7pxTLnsvKyL4u5iy/+6vLr2l8HlmQuaVvqsXTjMuIy4bIby/2X71yhtaJoxeOVUSvrV9FXla56u3ri6gvlbuWb1lDWSNd0ro1c27jOct2ydV/WZ6+/XhFYUVdpVLmo8v0G3oYrGwM21m4y3lS26dNmweZbW0K31FdZV5VvJW4t3Pp0W/K2c78xfqvebri9bPvXHcIdnTvjd7ZUe1ZX7zLatbQGrZHW9Owet7t9T9CexlrH2i11enVle8Fe6d7n+9L33dgfsb/5AONA7UGrg5WHaIdK65H6afV9DdkNnY2pjR2Hww83N/k0HTridGTHUbOjFcd0jy09Tjk+//jAiaIT/SdFJ3tPZZ163Dyx+e7pMaevtcS1tJ2JOHP+bMjZ0+eY506c9z1/9IL3hcMXGRcbLnlcqm91bz30u/vvh9o82uove15ubPdqb+oY3XH8iv+VU1eDrp69xr526Xr09Y4bSTdu3Rx3s/MW71b37bzbr+4U3vl8d849wr3S+5r3yx8YPaj6w+6Puk6PzmMPgx62Pkp4dPcx9/GLJ5InX7rmP6U+LX9m+qy627X7aE9IT/vzsc+7XohefO4t+VPrz8qXti8P/hXwV2vfmL6uV+JXA68XvzF4s+Ot29vm/tj+B+/y331+X/rB4MPOj4yP5z6lfHr2ecoX0pe1X+2+Nn2L+HZvIH9gQMQRc+S/AhisaGYmAK93AEBNBYAGz2eUsYrzn7wgijOrHIH/hBVnRHnxAKAW/r/H9cK/m5sA7N0Gj19QX2McALFUABK9ADpq1FAdPKvJz5WyQoTngM3srxn5GeDfFMWZ84e4f26BTNUN/Nz+C2MmfEQ8S8TrAAAAimVYSWZNTQAqAAAACAAEARoABQAAAAEAAAA+ARsABQAAAAEAAABGASgAAwAAAAEAAgAAh2kABAAAAAEAAABOAAAAAAAAAJAAAAABAAAAkAAAAAEAA5KGAAcAAAASAAAAeKACAAQAAAABAAAEmqADAAQAAAABAAABDAAAAABBU0NJSQAAAFNjcmVlbnNob3S3TeOzAAAACXBIWXMAABYlAAAWJQFJUiTwAAAB12lUWHRYTUw6Y29tLmFkb2JlLnhtcAAAAAAAPHg6eG1wbWV0YSB4bWxuczp4PSJhZG9iZTpuczptZXRhLyIgeDp4bXB0az0iWE1QIENvcmUgNi4wLjAiPgogICA8cmRmOlJERiB4bWxuczpyZGY9Imh0dHA6Ly93d3cudzMub3JnLzE5OTkvMDIvMjItcmRmLXN5bnRheC1ucyMiPgogICAgICA8cmRmOkRlc2NyaXB0aW9uIHJkZjphYm91dD0iIgogICAgICAgICAgICB4bWxuczpleGlmPSJodHRwOi8vbnMuYWRvYmUuY29tL2V4aWYvMS4wLyI+CiAgICAgICAgIDxleGlmOlBpeGVsWURpbWVuc2lvbj4yNjg8L2V4aWY6UGl4ZWxZRGltZW5zaW9uPgogICAgICAgICA8ZXhpZjpQaXhlbFhEaW1lbnNpb24+MTE3ODwvZXhpZjpQaXhlbFhEaW1lbnNpb24+CiAgICAgICAgIDxleGlmOlVzZXJDb21tZW50PlNjcmVlbnNob3Q8L2V4aWY6VXNlckNvbW1lbnQ+CiAgICAgIDwvcmRmOkRlc2NyaXB0aW9uPgogICA8L3JkZjpSREY+CjwveDp4bXBtZXRhPgoK7UgLAAAAHGlET1QAAAACAAAAAAAAAIYAAAAoAAAAhgAAAIYAAFJHbWkc5wAAQABJREFUeAHsvXWUXMee5xmWZItVYmYqMZMtZrTAILPfPOjuB6dnz5zdPrt/7ZnZ2X/39PZ0P+idOW8eG2TJFlnMzLIYLGaWLFmSBfb+PlG+UrpcWZX31s2szPI3zillKvPmhU/EjRvxjR88840VpyICIiACIiACIiACIiACIiACIiACIiACIiACpSTwjISmUhLUz0VABERABERABERABERABERABERABERABDwBCU1qCCIgAiIgAiIgAiIgAiIgAiIgAiIgAiIgArEQkNAUC0btRAREQAREQAREQAREQAREQAREQAREQAREQEKT2oAIiIAIiIAIiIAIiIAIiIAIiIAIiIAIiEAsBCQ0xYJROxEBERABERABERABERABERABERABERABEZDQpDYgAiIgAiIgAiIgAiIgAiIgAiIgAiIgAiIQCwEJTbFg1E5EQAREQAREQAREQAREQAREQAREQAREQAQkNKkNiIAIiIAIiIAIiIAIiIAIiIAIiIAIiIAIxEJAQlMsGLUTERABERABERABERABERABERABERABERABCU1qAyIgAiIgAiIgAiIgAiIgAiIgAiIgAiIgArEQkNAUC0btRAREQAREQAREQAREQAREQAREQAREQAREQEKT2oAIiIAIiIAIiIAIiIAIiIAIiIAIiIAIiEAsBCQ0xYJROxEBERABERABERABERABERABERABERABEZDQpDYgAiIgAiIgAiIgAiIgAiIgAiIgAiIgAiIQCwEJTbFg1E5EQAREQAREQAREQAREQAREQAREQAREQAQkNKkNiIAIiIAIiIAIiIAIiIAIiIAIiIAIiIAIxEJAQlMsGLUTERABERABERABERABERABERABERABERABCU1qAyIgAiIgAiIgAiIgAiIgAiIgAiIgAiIgArEQkNAUC0btRAREQAREQAREQAREQAREQAREQAREQAREQEKT2oAIiIAIiIAIiIAIiIAIiIAIiIAIiIAIiEAsBCQ0xYJROxEBERABERABERABERABERABERABERABEZDQpDYgAiIgAiIgAiIgAiIgAiIgAiIgAiIgAiIQCwEJTbFg1E5EQAREQAREQAREQAREQAREQAREQAREQAQkNKkNiIAIiIAIiIAIiIAIiIAIiIAIiIAIiIAIxEJAQlMsGLUTERABERABERABERABERABERABERABERABCU1qAyIgAiIgAiIgAiIgAiIgAiIgAiIgAiIgArEQkNAUC0btRAREQAREQAREQAREQAREQAREQAREQAREQEKT2oAIiIAIiIAIiIAIiIAIiIAIiIAIiIAIiEAsBCQ0xYJROxEBERABERABERABERABERABERABERABEZDQpDYgAiIgAiIgAiIgAiIgAiIgAiIgAiIgAiIQCwEJTbFg1E5EQAREQAREQAREQAREQAREQAREQAREQAQkNKkNiIAIiIAIiIAIiIAIiIAIiIAIiIAIiIAIxEJAQlMsGLUTERABERABERABERABERABERABERABERABCU1qAyIgAiIgAiIgAiIgAiIgAiIgAiIgAiIgArEQkNAUC0btRAREQAREQAREQAREQAREQAREQAREQAREQEKT2oAIiIAIiIAIiIAIiIAIiIAIiIAIiIAIiEAsBCQ0xYJROxEBERABERABERABERABERABERABERABEZDQpDYgAiIgAiIgAiIgAiIgAiIgAiIgAiIgAiIQCwEJTbFg1E5EQAREQAREQAREQAREQAREQAREQAREQAQkNKkNiIAIiIAIiIAIiIAIiIAIiIAIiIAIiIAIxEJAQlMsGLUTERABERABERABERABERABERABERABERABCU1qAyIgAiIgAiIgAiIgAiIgAiIgAiIgAiIgArEQkNAUC0btRAREQAREQAREQAREQAREQAREQAREQAREQEKT2oAIiIAIiIAIiIAIiIAIiIAIiIAIiIAIiEAsBCQ0xYJROxEBERABERABERABERABERABERABERABEZDQpDYgAiIgAiIgAiIgAiIgAiIgAiIgAiIgAiIQCwEJTbFg1E5EQAREQAREQAREQAREQAREQAREQAREQAQkNKkNiIAIiIAIiIAIiIAIiIAIiIAIiIAIiIAIxEJAQlMsGLUTERABERABERABERABERABERABERABERABCU1qAyIgAiIgAiIgAiIgAiIgAiIgAiIgAiIgArEQkNAUC0btRAREQAREQAREQAREQAREQAREQAREQAREQEKT2oAIiIAIiIAIiIAIiIAIiIAIiIAIiIAIiEAsBCQ0xYJROxEBERABERABERABERABERABERABERABEZDQpDYgAiIgAiIgAiIgAiIgAiIgAiIgAiIgAiIQCwEJTbFg1E5EQAREQAREQAREQAREQAREQAREQAREQAQkNKkNiIAIiIAIiIAIiIAIiIAIiIAIiIAIiIAIxEJAQlMsGLUTERABERABERABERABERABERABERABERABCU1qAyIgAiIgAiIgAiIgAiIgAiIgAiIgAiIgArEQkNAUC0btRAREQAREQAREQAREQAREQAREQAREQAREQEKT2oAIiIAIiIAIiIAIiIAIiIAIiIAIiIAIiEAsBCQ0xYJROxEBERABERABERABERABERABERABERABEZDQpDYgAiIgAiIgAiIgAiIgAiIgAiIgAiIgAiIQCwEJTbFg1E5EQAREQAREQAREQAREQAREQAREQAREQAQkNKkNiIAIiIAIiIAIiIAIiIAIiIAIiIAIiIAIxEJAQlMsGLUTERABERABERABERABERABERABERABERABCU1qAyIgAiIgAiIgAiIgAiIgAiIgAiIgAiIgArEQkNAUC0btRAREQAREQAREQAREQAREQAREQAREQAREQEKT2oAIiIAIiIAIiIAIiIAIiIAIiIAIiIAIiEAsBCQ0xYJROxEBERABERABERABERABERABERABERABEZDQpDYgAiIgAiIgAiIgAiIgAiIgAiIgAiIgAiIQCwEJTbFg1E5EQAREQAREQAREQAREQAREQAREQAREQAQkNKkNiIAIiIAIiIAIiIAIiIAIiIAIiIAIiIAIxEJAQlMsGLUTERABERABERABERABERABERABERABERABCU1qAyIgAiIgAiIgAiIgAiIgAiIgAiIgAiIgArEQkNAUC0btRAREQAREQAREQAREQAREQAREQAREQAREQEKT2oAIiIAIiIAIiIAIiIAIiIAIiIAIiIAIiEAsBCQ0xYJROxEBERABERABERABERABERABERABERABEZDQpDYgAiIgAiIgAiIgAiIgAiIgAiIgAiIgAiIQCwEJTbFg1E5EQAREQAREQAREQAREQAREQAREQAREQAQkNKkNiIAIiIAIiIAIiIAIiIAIiIAIiIAIiIAIxEJAQlMsGLUTERABERABERABERABERABERABERABERABCU3luA18/fXXZXJ1zzzzjONPxblvvvnG/2WaRcA/eM308XU8ERABERABERABERABERABERCBHyYBCU3lpN4RNBCWvkbYsNfHjx+7u3fvugcPHmZU6Hj22Wdd5crPueeee85VrFjRC04VKlTwr+Vd9AhEJeoheH///n2rh3u+bjLV1OAd1AH18Yz9v4IJf0E9ZOo8dBwREAEREAEREAEREAEREAEREIEfHgEJTeWkzm/cvOmuXL7ibtrrrS++cLdv33Zffvmle/joUUaFpkqVKrkqVSq76tWqu5o1a7q82nmuSaNGLi8vz8SPyuXW0glxCVHp6rXr7saNG+7WrVvui9tfuDt3vnT37mVYaHqmggl9z7oaNWu4WlYH1apVc/Xr13cNGzRwVatWfSIAlpOmr8sQAREQAREQAREQAREQAREQARHIIgISmrKoMqKcSmDJtGfvPrd5yxa3f/9+d/To5+7subPu4cNHUXZZ6t8gNtWpXds1a9bMde7cyQ0fNsx17pTv6tWr57yFTTlzq6MOEJmuXL3qtu/Y6fbu3esOHjzojh0/4QW/snJhrFu3jmvapIlr0qSp69e3j3t+0CDXrHkzV+1bsanUFa0diIAIiIAIiIAIiIAIiIAIiIAIiEAhAhKaCgHJlf8ibmC1dPr0Gbd6zVp38NBB//6mWdLcNoumuxm2oknkhosWghKWNHl5tVyjhg1dfn6+69O7t+vVs6dr3LiRQ4zK9UIdfPXVV+7ixUtu244dbvv27e7UqdPu2rVrT6zKHj58WGaXifsiFkz8IfK1aN7c9ezRw9dDfn4HV6NGjTI7Nx1YBERABERABERABERABERABESgfBKQ0JRj9Yq48cjc4W7d+sIdOXLEW9AsW77cnT171n1pMZn4nr9sKcRl4q+5WTf16tXLWzf17NHdrGwae1e6bDnPsOeBlRJC39lz560OdrhNmza7Xbt2mbvcbV8/7C9b6iGIjVW9enUv+A0dMtgNGTzYtW3T2otNCIMqIiACIiACIiACIiACIiACIiACIhAHAQlNcVDM4D4QL74wi6V9+w+4TxctditXrvLxgB4+ymzQ77CXjJhBnKbevXu5saNHu2FDh7pGjRqG3U3WbI+l0sFDh9369RvcnI8/ducvXPACU1m5yaUCBsGJAO2dO3d2I4cPd2NGj3Lt2rXNacEvlevWNiIgAiIgAiIgAiIgAiIgAiIgApkjIKEpc6xLfSREJgJ8Hzt+3M2e84nbZq5aJ0+e9AJHtljPFHeRuNPVr1/Pu26NHDHC9e3Tx7vR8XmuFDiT0Q/3uIUm9M1fsMB9/vkxH/A7V66B+Fnt2rVzI4YPc88/P8i1a9tWbnS5Unk6TxEQAREQAREQAREQAREQARHIcgISmrK8ghJPDyua4ydOeDetD2d95E6fOeODUCduk83vsajBsokg4X379nXjxox2vc2drk6d2t7SJpvPnXNDZKIOEJkIvj533ny3avXqnBH6Ar7UARkBu3fv5kaPHOmGDRvqXRuxdlIRAREQAREQAREQAREQAREQAREQgdIQkNBUGnoZ/u2dO3fcoiVL3TwTOPZZdjn+nwuWTIUxYcHUqFEjN3HieDdh3DhvXVPD4gdle8GS6ebNm27vvn3u/Q8+tOxy+9yly5ez/bSLPD9EpVq1ajniNb36ysuuR/fuPmg4IpSKCIiACIiACIiACIiACIiACIiACEQlIKEpKrkM/g4x6f79r9wZs2D6aM4cc9da6G7cuPEk6HQGTyW2Q5GRrkuXzm7MqFFu5IjhrnXr1llv1YSwt3Xbdrdi5Uq3YcNGd/nKFffgwYPYmGRyR0G8pm7durpJEyZYzKwhrmXLlo5MdSoFBLjvCLyPFdujR49jE3UR+Z59tpLPzChhT61NBLKDABlESapx1FyhT58+7e5aco1UC/1plSpVvCt4t27dvDtyqr/Nle1YaCnoCx+Z+/jXoU/bEPl4gJUrVw79W/1ABHKJQDB2YNxemridzz33rL9ncnWcwLUHfQZjqCgl1xlwzXDg+fLgQbQs1OWBQap1D6evvnoQabxdsWIFn9EcYwZ5aKRKPP3bSWhKP+NSH4FBHcLSzl273ceffOJWrlrlO65ctGYKYNAJ5OXVcn1793GTJk10/fv18/GbKlWqFGySNa9wpvM7deq0m2cxmZYuXeYuXLzoP8vlOmBy1LRJE9d/QH83ZdIkq4O+jsx0KgUEeNhdv3HdXb502V27jrAbbZBQmGfVqlW9u2izpk3NqizPHoiyIivMSP8XgUwTuG0LCTt27PTu0Fu2bnPXr19P+RSYCGIh2q1rZzdt6lSfXTXlH+fAhkyU7t27565evWqJLy76jKthT7tChWdcm9ZtXNu2bXwm2rC/1/YikCsEEGWv25idMSPZiRFbwhTGZpUqVnJNmjZxrWwBsGrVKmF+nhXb0mfcv3/f9xkXL10yb4Bboc/LtGnXsGFD16JFcx/ugfkBbHKt3L17z52wsCfnzp+PdOrEVcULhBi3jB9zkUFJF85civuEe+aULfTQfsKWqtWquvr16rtGDRv45FMSm8ISTM/2EprSwzXWvWJVccZWWhE4li1f4XZ/9lms+y+rndEJNG7c2OI1mdg0YbwbOHCgq1mjRlmdTtLjwp/BNRnmFi9ZYpORHe6BdYi5LDIFF1vNOuY2bdq412fOdJMmTvCdc/DdD/0VcXfvvv1uw8ZN/p4jEH8cpW6dOi4/v6PnTQbAKlrhjwOr9iECpSLwhU0IN2/e4pbYc3bDxo1+gpTqDhGaatfOcz179HAzZ77qM6um+ttc2I5nICLTjp07bQyy0n1+7Fjo065kz3vYvPbqK1ptDk1PP8glAggsBw8dcgsWLnJHjx4x0elmqNPnXqlhY+GRI0e4qVMmuwYNGoT6fTZsTJ9x5cpVWyDf5dauW+f2HzgY+rTQlPpZPNfxFmKjk42ZEPNz0brrgmWl/sDi6i5fsTI0A37QplUr19cWgocOMc8DE91yKYFSqheMyERG9U/mzrP75lP30NpP2NLYxLg+fXq7F55/3uV37JiTAm3Ya86F7SU05UAtcQMePfq5+/Cjj9zGTZvdccs6V14K6nzz5s3cKAtKPW7sWHM5aJNVGdCwZDp//oLbtXu3d5kjLtN5e2iUl4I1DZ3zayY0TZ8+3a8EaBWgoHa9uLtsuRd3D9mgMYwrTXHtg8ESQtO777ztnh80yIur5XGFqjgG+k4Eso2AhKbkNcIY5JJZJaxdt959NHuOjxGZfOuiv2Fy9PN/+Hv3y5//g4SmohHp03JC4K5Z/+0yD4S//u09t2fPHh9mIcylYblTOy/PW0e+885b3vI8zO+zYVuEggs2dl6/YYMXDrbbAm3YwrhouCWredXEaZ84yCx7cnF8ioXOb3/3727Ox5+EReC3R2js1rWLbw99TUipV6+edxGLtLMs/BGL9iRZWr1mrVu0eLGf52IVGLa0aN7cDbUwIMwle/bs4apbiBaVsicgoans66DEMyAO0P79B9zv//BHe3jtcpihlpfC6gQrN926dnWjRo10g1943rU29T4bTGQx3bxm7hNbzY2C7HJbtmx1V60zZNBdXgorRvXM1PSVl19yL82Y7rPPKU5TgU/9ocOH3QcfzjJX1dV+NT+ueodvyxYt3Dtvv+VGWHwyTMOfzUKX0fLSxnUdIpAKAQlNySnR9128iNC0zs2aPdvtM0vPsIVn+i9/8XP3K/vLxcli2OvV9j9cAghNWPL85S9/K5XQNH3aVFuQesc1NRe6XCv0GVjyrDNPgPlmobJ9+/bQl1AgNA2zhVATmnr3driQ5WLfgTvYb373Ozd7zsehGfADxocNbUF43NjRbsTw4a6LWcLnmRCZi9ZdhQEgMt2+fccdOXLE/Y/f/95n9L5i8W+jeIwgNA0bOtSNGzfW9erVU0JTYdhl9H8JTWUEPsxhsarZvXuP+/Vvf+sOHDjgbt4K7+sc5niZ3pYHB1YefXr3cjOmT3MDBwzw/y/LBwqdHALfsWPHvSnn8hUrvMCXq8G/i6vTunXrupdfmuFeNqGphQkgP/RgrdQ9pu+sSP7xz3/xK3LUe5QHX1HcGTyxQjXtxSluzJjRZt2U73Ih62JR16LPRKC8EJDQlLwmJTQlZ6NvRKAwAQlNzi/ISmgqaBmlFZrYC+PyVi1b+AX5yRMn+pAXfJbr1vC4WB46dNgLkrPMa4f4t1EXdSU0Fe6JsuP/Epqyox6KPQuEpp07d7n/9m+/9n7fZD8LU1C9q1SpbBnFKluAwYpp6ZgemZkjQQ/pNKIUOsvmzZtZBroRbszoUd7CCUunslDssWTCTeq0ZfnbZK6K+FXv2bvXC09RxAauDSsWHgq4D1TAjCjm8sgCxnPOBKwOa3Iqoem7lVGwEnfRHnzr3RwLvv/ZZ3u+u0EM/6tZs6YJqv197IEhQwa7BvXrx7BX7UIERCAqAQlNyclJaErORt+IQGECEpokNCW2iTiEJuZCzCN6m6XO+PHjzPvjBe+BkKvxmphLMbdFWFqzZl1BaJJ9+xyxUKPMs+AtoSmx1WXPewlN2VMXSc8kEJr+xYQmYsWEFZoCJbxhw0aO4M/pyHL1pWVVwPTxhgU9jGr9Ub16NdemdRtvGjp+/FjX0rJtlIWPLdl1iM+zecsWt8xi9Byx+Fg3LOvY19+Ez4JQIPJVcU2aNDYxoYFlzqhhboEVk9Z1lC+svzaR6Z47ZrG7rtt5cv7O2YcpFglN3wWFYPfZnr3eV5z4AqdPn/nuBjH8jwDgLax9T7Agl9OnT/WudLm+MhUDFu1CBMqMgISm5OglNCVno29EoDABCU0SmhLbRBxCE/tjPkH2OeIPkSm6nyVSqmPJZcrS+yPxOsO855lyxRJMbGGeZQkmmG8hMoVdKE88poSmRBrZ815CU/bURdIzKa3QREc03nxWicZfz9ykiJUQdyF20eLFS3wsqUuXL0fqLOhEsfTo3q2bP18yB7Rq1TLuUy1xf5cvX3EbNm10K8ySabulu75582ZkSy1EPjLrjbRYPPhV16sXP3/Uf5jPX7DQHT58xMcTCrMiIKHpu02CzBfEZcKf/uDBg2lxVWVgUM0CFY4dM8b9h3ffdh0tQwafSWz6bl3ofyKQKQISmpKTltCUnI2+EYHCBCQ0SWhKbBNxCU3skzlFE5tTMHYcNWqEZePL9/MmvsuVgtcIBhOHjxz1ySWI30XA9NIWCU2lJZie30toSg/XWPdaWqEJBfzHP3rXjbZg27xPh6nldUsFv3LVKv+3Y/tOd8eUaTqTsIVza2jxa/r06ePFpv6W0pOgd+kQxwqfG0o67n+kYV28ZKllPthowQwvegutwtum8n+EAwKb97VVhwnjxz9Jzxr36sPXJjSdMTe/3/37fzdhbIdlyTsfir2Epqe1SRtAaJy/cKH76KPZ7uy5c5Hr/+lei36HqITb3NtvvmHxyfpYXLKaObkyVfTV6VMRMLtK65u4p3gWPDb33jAFD2MWH+gveU23CCuhKXntSGhKzkbfiEBhAhKaJDQltok4hSaegyxSdu7cyY20wODDhg0zT5BW7jkToNIRliPxOuJ6z5yW+LcbN292c+fO8yJTHFmdJTTFVUPx7kdCU7w807K3OISmn/7kx26sxT7CuiYdQtNXFiyZVKaLly51ny5a7E6dOuVjBoWxrAEenSh+yM0tXtPQIUO8JRAWTumO18RkCIX9yNGjbp2lcF63YaP7/POj5kP8IJRoEzQAJkekp+UhMGniBNe1S2dX2zJmwD7uCROTOOJJ/ea3/+62bdvmzkloCqoh9Ctt4PNjx9y8eQu86xwpVxHy0lXItjjR2gcDhtYMFqztq4hAeSFAzD7uKVyqEXJMeUr50p4xcQkX01p5tXxfWqVKlZR/G2VDCU3JqUloSs5G34hAYQISmiQ0JbaJOIUm9sv8gjlREK+JBEqNvzUiiHt+kXgdpX3PfJAxAR4wa9euc8ssydIei4F6yxJcPY5gmFD4fCQ0FSaSHf+X0JQd9VDsWeSC0BR0IDsspSsZ2pYvX+lTmyLgRCnVq1d3HTq0d6MsOPjkSRMtxlGTtE7CmQydOHnSrbdUrKtWr/Hxjuj8ohbOH4FswoTxboxZktW3YM/pssqS0BS1lr7/O7KkbNq8xUSmJW6bmfPSLtJZmls6VgYJZKDr1auXj6GWzuNp3yKQKQI8E4gXd/z4CZ/q+6DFF/w6hFVTxUoVfTrrTp06eavQpvYMSGeR0JScroSm5Gz0jQgUJiChSUJTYpuIW2gK9t20aVM3YEA/N9E8JvqaFwjZu7H+zdbCfPCGeb8QA3WJGSWstwX9G9evu4cRk0gVvk4JTYWJZMf/JTRlRz0Uexa5IDRxAUwsCO62f/9+96G5HaFUo1xHEZsIWJ5XK88HvZs29UU/CWeiEXcnyjlzfgT/3mCd3oqVq6wT3ONd6PguSiHOFGlIx44d44gzhQ911apVo+wqpd9IaEoJU0obHbaA9vPmL3CrLEYTPuPce+kseTYwyLf28fprM91ws37DfS6bV6TSyUL7Ll8E6D9vWbyzHRbnbv4Cu6dMwH8cYkD5rFn3NWrU0A0bOsTNmD7ddTbBKZ1FQlNyuhKakrPRNyJQmICEJglNiW0iXUITVr7NmjU1b5XRPmZTu3ZtvaVT4rGz5T3jARaejn7+uY8nu3HjJu89wPwlriKhKS6S8e5HQlO8PNOyt1wRmrh4Ms5dtsDUa80yaLVNLHbs3OlFm7CdCZNt3Mzq169n8Wt6u4lmGfT8oEEOS6E4YxwxgMZyadfu3W7hp4u9FQvuUph3hi2cM0JYF3OTG/zC8+b2N8K1bdPGx5iKWyBLPDcJTYk0or9HcNy9+zP33vsfuPUbN7qbtvLyKKJFXqpngZVbs2bN3Juvv+at3xo1bJg2y7dUz0nbiUAcBLzQZH3r1m3b3dx588zSdWWoRQf6/8aNG/kspK+8/LJ3P47jvJLtQ0JTMjIFk8aLFy+5tevWuVmzZ7t9+/Yn3zjJN/R1v/zFz92v7C/OZ3iSw+ljESgzAhKaJDQlNr50CU3MK3ChYzF7xIhhfrGSOQd9bTYtWDIWYK514eJFt8U8Bt7/cJZZOh/3sXwTOZX2vYSm0hJMz+8lNKWHa6x7zSWhiQvnfM+cPeeWmmnkwk8XWXr40+6+fUZnE6bQUdJh4jY3Yfw4N37sWMvO1SE26yAEGoJ/7923z1syYdFErCMEh7DnynUxeMaaaZxZMk01K6zO32aDSKfIxHElNEGhdIVAxbjJbbLghH97730vkCKaRmkHYc+kbt06bsrkyeYiOsnlW/tm4KAiArlOgHsHEV9CU67XpISm3K9BXUEmCUhoktCU2N7SJTRxDOYdtWvnuV49e/kF+QED+rsGFqojHbF4E68pzHvmVNfNRW7L1m0+tMo6M0QoTWiSZMeW0JSMTNl+LqGpbPmndPRcE5qYYNCxMGlfsOBTm2hs81ZOD0zRjjJxZ+Ldo3t3U+yHm9g0xjU0q484OtEvLTPeSQtaTjweVtvPWYYxTDujFDp7v7LQKd/h6keWuRpmfZVukYlzldAUpca++xuCviMyrrLMiXPnzfdB4aO01e/uNbX/0W769+/nxdTBL7zggzqm9kttJQLZS0BCU/bWTdgzk+tcWGLa/odMQEKThKbE9p9OoYnjMM/AMp5QHWNGjzTRqWfaPSkSr6+498xPmGsdPnzEfTJ3rmUmX+3IUh7Fa6S44/CdhKaSCJXN9xKayoZ7qKPmmtAUXBzCzS5zRSIL3Z69e91Vi98UpXPBqqlevXoW7K63e23mqz5WR926dYPDhH5lAsR5IDJtMD/hlSYu7N9/IJKLHwfH8irPMiNhsjplyhQ3oH9/175d24y5QEloCt0EvvcDHoTbd+xwi5cs9bG6zltQ8EwV/OzbtG7tRltWyBfNsqlt2zZZZfacKQ46TvkiQD97E4smW8XEdY74dyxApFrkOpcqqfRvh9B06RKuc+vd7I8/9s/LsEflOf7zf/h79wv7k+tcWHraPpcISGiS0JTYXtMtNHEs4sC2bNGiYEF+3Fg/pmQRsyxd6BgD3L9/38+11liWuZU2BthnHiQE/+a7uIuEpriJxrM/CU3xcEzrXnJVaPrKXI8YnKJgE68pCLIdBRZp3/PzO1rQ5NfcIMvS1apVyyi78b9h0Hz58hVvaUWGPOLyXDOzzigiGDtkNaGbZZgbbkFrJ0yYYKp6M9/pZ6qDl9AUuSk8+eHNmzfd0mXLfdDiAwcPpcWs98nBCr1h0pWXl2f+9UN9++7erau32MtU+yl0OvqvCMRCgIEkGWYQJxYs/NStW79eQlMsZDO/E56ZV65cdZu3bHELrS4PHzkc+iQqmtD0o3ffcT965x0JTaHp6Qe5REBCk4SmxPaaCaGJ41UzsYm5yDgTmoYMfsG1btXK97VlNZbEU+DixQsW+3aHW7RkiV+gwOAgXUVCU7rIlm6/EppKxy8jv85VoSlQs0+fPuOW2CR+wcKF7oy5JyHohFWzWd1u17atmz59mhs6ZLDFsukYiT0r6jdMVNi+bYe3ZNq8dasXw8KstCcemFVa4jJNe/FF9/LLL/kVhWrVqmZ0FUFCU2KNhH8PPwLYz/74EzffMs6RgZB7Lmx55hnSyn4Tum1zHMRK3OfeeuMNN2jQQMu4WEuTsbAVoO2zigB9/JUrV7xF67LlK7zFYJh+VhZN2VOd1Bti/IEDB90mE5t4joctCOrjbQI0fty4jLiUhz0/bS8CcRGQ0CShKbEtZUpooo9lPoLr3EszpnlXOv5fFhakjKuJy7Rz5y63fOVKv+DE//k8XUVCU7rIlm6/EppKxy8jv85VoQk4DFB56G6zzEPEQtq+fbu7ZJN6Ai2HKZXNoqmjiUuvvvqKZZ8b6M1Cw/yebZn44Bt8xFLYL1m6zG227Adnzb0P084oBZEJF74B/fraCsI4E8CGOESmTHfqEpqi1N7T39y+fcd9bilX55hLCLG6sG4L+zCkzjFdZuU/ikjF2WCxN9Es4kaNHOnd56pUrvz0JPVOBHKMAPfQufPnfRbHdWbVdNj63TD3lYSm7Klwnp08s1mkuWLP7zvmahy2IMQ3t1TcxBIpqxX2sOes7UUgCgEJTRKaEttNpoQm+lXGoi3MhW6kxbQdNXKE69K5s48fm4l4scE185wn3u3nnx8zT4Flbs3ate7kyVM+KVSwTTpeJTSlg2rp9ymhqfQM076HXBaaAjhnzpx1W01kWmIxcIjXxOpoqq5qdJ7VLbB2zx7d3TvvvO16WmDwBg0aBLtO6ZWBMiLAkaNHrdNb75YvX+6O2nuy4UUpdNr1TGTqZMG/p5o1Ux+LH4V/dFkMoOnUCWT9m9/+uwl62/zkLsyEDrHs5ZdmuJdnTPcPqMo/MIHj/PkL3o1y/oKF3uqCeE1hCnWOLzxxlhCpiE0WpTRt2sQNGjjQTZo00fXv29e3+Sj70W9EIBsI8Nw6ZimM6Zd27d7trQbph1MtEppSJaXtREAEsomAhCYJTYntMVNCU3BMrJg6dujghlo4j5EjRrhWLVtkNJsxixLMScjkTXiSvXv3eYODMPOS4FrCvEpoCkMrc9tKaMoc68hHKg9CE6IS7kkLP13krUawKrpt6eRTKQUTjsbuhRcGuXffftv7HYcVQxCZrl279m28kIVuv7kAkM4+jCtHcK4ICxy/d6+ebqStGOAK0Mgy4WHhVBZFQlPpqB84eNDce5a4VatX26rLydAWSQUrSM3dlMmT3EGL77RmzVr32MS/MJNqrqB27dqus60+zZg21ber2ha3qSyEy9LR1K9FoCATJmbyu3btdv/PP/+//r56ZNatYYqEpjC0tK0IiEC2EJDQJKEpsS1mWmhiIZzFeayZiNdENuN2GUoyw3wEQwJiMs75eK47eOiQj9VoA2ILLJHeIqEpvXyj7l1CU1RyGfxdeRCawHX37j136PBhHxtp+fKV7tTpUyXGa2KiXadObXNLG+rGjR3j+vfrZxPyvFAxHhC5CEC3dt06t9pEgM/27PWiEyJTWDGA82EC1NCEpSmWIWzqi5O9JROZw8qqSGiKTp7632aWdh98OMu7UoYNCk97qFq1in+g//3f/Z231ps7d14k91AC3jdt2tS9OGWyF61wMfkhuc8F92LwmliriYJb4vvEbfQ+OwhQf/fvf+V27NrpVpgr6iLLOnrVRP6w5YciNAXt3Q/Ci7D4Smzvie/D8tT24QgE9cKvEt8n7iWoj+A18bvy9D64/uC18LUlXn/i+8Lb/VD+L6FJQlNiW8+00MSxK5kLnc/W3bePH09iLY/4lO7QHjdu3LSg3/vdMrNkYr6FgQEL/ZkoEpoyQTn8MSQ0hWeW8V+UF6EpiNdEGvn58xd6N68rJgAlc6FDlSfuTYf27dxL5to1dswYV8esPsJaDpH5CFX9w1kfWartrRag7oYLu7pOpTOAQgzAZa6nBdubYYHJ8YEu6yKhKVoNwI0B4dq169xf//aemffu9a6UfJ5qqVixgqtfv74b0L+/+8df/cphHUWsp92f7XG3b99OOkFJtn+CgI8eNcpNm/qi69q1i7dySrZtefkc3vzRD2Byzd/jx9/Wgd1zFa0fqPRsJT9wQnzgL5PxBsoL53RfB5NQ6hBLUVyll1sq45WrVpo1k8VmiBAHr7wLTfAKmD2wgTiD8cfGj3sBvYnnDf0LbZ1nHla0vPK5JvPpa82J9UKdkIqbdv219Ul8B/sKFQpioVAfjAloq+WxXhL75oBFQRstsE0IOARtFA4wSfdkNn21H8+eJTRJaEpsSWUhNNEfeWv75s3chPHjbf402mJ/trU4stXSMn6ib2SOd/z4CR8Dd+WqVe6oxT6N8uxPZBfmvYSmMLQyt62Epsyxjnyk8iI0BQM4FG4m4nPnzbN0yVv9xITvChcG1q1atXSjzMd4zOjRrnv3br6DDDPIZqC0z9T1FTbpWWGZD05616gHoQUAzo1Om3hGPXv2sDT0M123Ll28yFD4vDP9f65RMZrCU+e+OmUZEZdZvK558+a7E9Y2YBmmMMnobHG6hg8b5l555WUfn4kMWwss3hMialHturj9V7dBQC9zycQdk+DyLVo0L27ztH0X3KthDxDcm8FrUb8P9h28MoFhMPKFCXPXrl7z1ob3vhUmArGZmAPVq1fzwlvdOnW+M7HjWMUdr6hzKOmz4NxK2q6479NxXsUdr6jvuA5K8FrUNql8VvhaEvkE+2aQefPWLUu2cNRcURd5t7lTp097ASXYJpVjBdt4oalRIzd8uN1bL73kunTpHHyV8mvh8y7uh7Q/EkSQKGLDxo3eCra47RO/o51iaduzRw83c+arbqw9r4oqATde4UUfhCANt1u3vnBfmkjHZ7jePvutuFTZrGVr1arp6terZ6+1vLDxjB2vwrftPu62X9R5B58F5x/8P+xrmPpI3HfQfoLXxO9Kfl8gDBW3XXBdvPIMoA4QTIN64T19FHWGpQBjE+qF2Hz169dzuDk/91xlV8GEQa4xqJvijpmN3yVy4P2TvvmLgjb6xRe33Jdf3n1iocA9WqVKZfur6mqYtQTu33l5tfwCoUmlxqIgo2oqbTQ4dhQuUdtVlGOl8hsJTRKaEttJWQhNwfERlsjYPXz4UDd92jTXtEkT/wwJvo/rlb6RfnKrJX7623vvuy22qE//wX2dqSKhKVOkwx1HQlM4XmWyNYMeUkT+y7/92h0yyxxu5jClkQ3Wf/qTH9vgd5Rr3Lixn6SF+X3c2zJgu3Dhoo+Jg/hz+PARP6BLPA6dY5vWrdyAAf0tXs1Il28Z57AkClPIenD8+AnvK7zash4cPfq5H9SHFROCYzKoHGAp6EeZxcnQIYNdQwtIzkCrrIuEpmg1wH20fftOt8SyYuBWeenSpdA7wuKOtjBp4gSLIfaCuYfetYDiO92/2b2K+Be2rSFcNTP3OSbXWMx1NTEz04VruGqCDzHUHj9+lNJAwaYUXoitXqO6tzrMs4lXUYWBBxaGZJ68ePGSu3DxoheWmGzjWnvv3l3PMLByZALBPcYkrmBSU8XVtEk3fUET68uam3thw4YN/AQH99XSrqQzKGLA5EUvc/eCRdjCObOqTx+WrkFdKufEtRDY/osvvvD968OHj+xn4QZ9FSxT2HOVn/MCB5Np2jvPI9oHGTzhwx9ZyKjXCxcuuFOnTvmkC1euXPXHT+Vci9oGhnVMVOzTu7ctNIzymRiL2q6oz4J2g4UgbRGXgZJKuoUm2jT1cfrMWc/pvLFi0QWBiWcifw8fPvDWM9RdYCVCm65cuYq/hpo1a/i2jujUxCYM9BUIHalcX0nXX9z39GNYGnKfUs+BEFzcbwp/R500atjI36+8T7X4+/HbNkxbC/qGVH7PcapXq+6aN2/mxaGifhPUC4sO5y1L4pUrV3z/RL0whqBeCqwsC6zNqBfqpMCaqbJnj8iIAE57ZbzFAhmLUtXsfsmFAgPua+4B+mWyRZJdkFgrPAfom+HANrTR4LkWtNECFs/5/oFxEoJTg/oNbLzZyNpoE+8SjjiXrPBcIKYbx+c4wf6TbZ/4eaWK9BN2vCwZj3FuEpokNCW20bIUmuireHZ37drFTZ40yYcfaWnBweMsBeO6mz50BJZMGzdtcmfPRkuKU5rzktBUGnrp+62EpvSxjW3P5U1oAgwP4sMWr2n9hg1u06bN7szZszaAKZjUPmcTSwYovXv1coMHv+AnGlg0hCkMTi9dumypNZf7mFB79uyJlJKZYzJYZZDU0qxLXrQMcxPHj/MDJ0SBbCgMymTRFL4mmCgvWrzYLV681ILDH/AT8jB7oV3kmegxzVaJyNpH1jlSeJPN8L/81//bxyNj0BymMHBHoEDQfPutN30WOgSWMBOzMMcralvEAiwOaVP0PakM+jk/VrYJio841sEyngTl669xqXro+RIr7fiJkz4b2XHLSIYQfNEEPiawTHaYYCcrfmrKvWj3HYJ5mzZtXH5+R59RhXhWjRs19hMOJt1MfKIw4/gMmhgY7v7sMy+I81mYMJYFLKr4CefQwYP9OVGvmS7UG25rhw4d9v3r/a/uF8u3qPOj7TVoUN+viLY13kykSXFPFhni7ZFg4ebNW35CimhC2yHOGaW4uizqWIU/C+6FVi1bum7duobKNEodYGHRvn17175dO9esWdPCu//e/9MhNMEgEGhw2T5/4bxZ2B7wix4nTpywwfhZ96WJJ76NFdP2OVkmDIipiKy0d1apaf+tbUEGcQNRjbZf3IT+exed4geB2EN7wg39sokxYQv1OdAWjoizGOZ+oA86Ycc9cvSIiSAXveiR6rFhRl8xxhaHECOCAm/u81smYF2/dt3q5YJNkva5Y8eOmdvnGXfWMofSJ3EPldSOOQaWqAgd1ENrew50797NJy1p0sT6JBNdqBO2y6YSMGDBhbaJBS6LLcePn3BHzOXltFkj0l/DgfoviQP9c4UKBdZesMYa1/fRtkhIUOIGtiBQy1umfj9ODAIsCVpOnDxhQl/ycApF8UP87tSpk+trgnQNW+jIhiKhSUJTYjssS6GJ82A8xNhs4MABbsKE8W7QgAHeIpOwBHEUFrOOHDlq1sBL3UpLqoNYTb+d6SKhKdPEUzuehKbUOJXpVtyw5cmiCZgM4LguXCsIzn38+DG/UorYRKBt1HesmAiOXK1qNRukhesQb5krwsFDh93//MMf3E7LfMT/U5kwF1XRdNIM7IcPG+LGjh3rhS/EsCgT2aL2X9rPuC4JTeEpYlXzpz/9xX1qYhMTGCYeYQoTB9rqT378I/fGa6/5yQSD8TNmsfAv//qv3rKJ/YZpd7QpJmEMzGe++rIbMXy4d89kwp+pssfuxw9nzXLbLJYabhJf2ySjpMJ5M8ltb/HUpk2daq5/Y5/8BK5YCWzbvsO7JB0yC8br16+ZtUDBCjkCUyoTmWCHHAseTN6YePOHGIIwTcDLnj26ewsc7tsohTrEKu2v773n3b8e2fmXNMlKPI6dnp2TxZbr0N79L//xHx0CTTom/4nHLOo9THEDIzj9MRP1sBazSwtVqNPevXu50WZR1Nvi0tHeEUcWLFzkLVKxAMG6hWPBiVhDvI+jBPcCgj51jCtZqoV7iNhpw+3+GTlimOtl515SiVtoos0gMjFxpu2TdGDfvn3+OcdElOcf36faP8CDP9o1z5/nrP1jPYJlLc/KQYMGeoEDK7+4C/fw5ctXvGvhgk8/9YtEoY5h90RFszz50bvvuB//6N1QogtCBy72K2ylfJ/F0UMUSbU8+9yzrlvXru5//6f/zbU0wTIocEck3Wiuklvsb6+512O9Q508tO/CtmOeBbjU0S9RLwgqrU1w6mP3Dm7/zZs38wsIwfGz4RUGsNyxc9f32iYLJHDwfXMKYlvi9XDvwcPft8aCRULGT3379LH+eYAf29GvJBbqYqElDcBl9Yg9H6iHVAsWixNt8vzG66/750Cqv0vndhKaJDQltq+yFpr8mMmeG1jBTpo00U2y+wURmOdqaQvPORYPsWQiRAleNwjHYcZMpT2H4PcSmgIS2fUqoSm76qPIs+GhW96EJi6UjgiXC1bCMZvGLJ5JCgMTViED03M6yVQLg3YGSVgjrFq91nd+52x1kgFTlIL1BGIXk63xZslEXCZWLbOpSGgKXxusZB86dNi99/4H3qoOITLMg5HBNBYTnTt3cm+88bqbPHGinwSyD1b7Z300261evcbHB4vS9hAnGDyPsQCOHcwqI44BQaqUEFn++Kc/m6XhJn9/piIcwIPJQyezsHht5kwfzJzjsUL++bHjboeJVsRKQ/Bg4s09GvAOXlM9v2C7oF/g2FiBMcjIz883i6rOrqOdR1ub6HGvBtsFv0vldb9Zncz5ZK4Fil/rrR2YlKVagkFdq1at3M9+9hPXv29fP9HiPDNVqDMsFWjff7V4CfSviAVhWCNoYKVBts+pU6Z41zWEDQbNsy3g/VITsbD8SJwUhtl/qiyi1B8TXVZwx9q5j7PFASwESyqxCU2vvuJjtiFcYL20a/du7x5ODLiLZjmDiOHFJesrQup+Ty4hYMJ10vapp45mRdjb4rv16N7dixzEdWKyH0eh7bBKjYvxR3PmmGC2P/RuEWF+8fN/cL+0P847lUJ7YrUcy2cWBHbu3J1y7CwYcf3Ezfqv/9d/9oIv14HFHVmRdu3+zD8DjptlWeGFhqjtOKgX7h3cx5qbJV1XE7o6WRy/fKsfgvHST/J9WRSui76XBb4jFkrgyJEjZsV13McnxBqRe5m2yXZRGQTXBQv+EODoN1q0aGHWhW1du3btfTsl5hrWSGzDQsTHc+famG2N1c0Bf47Bfop75bdYjE2bNtWHh+Cez4YioUlCU2I7LK3QRH/J+IHnun92JO48xHssL7t16+ZDM0ywxUDmWaV5RtCfMn8jLhPeI5/ZvAtPgShj3hCXkXRTCU1J0ZTpFxKayhR/agcvr0ITV89gxneeDGzMxYYYIgQ6xaSTjpWBRJjCIIoBPSacTITOmJ9w4qQ2zL44ft26dVw/myiO9nGZhvj/Z3LCmMr5SmhKhdJ3t8EVY6Otns63oN1MOsLGHPETWRMxhg0d8iR1LEegPbMCv2XrNgt2P98LnWFEiuAsEUgGmnkzYhNWOsRmyVRBaPrDH//k/exZmUpFaOI+ZTKB0PS6WXdNtlWz27fvmOC72yaJG31mP1zkYBFMZOK8Ho6PxUstW90mbk3v3j2N2yCzZOnhJ3xhJ3ZY7XDei5YscbtNKMCyK0zhfJj8E7uLbC/0IalOrsMcp6htaYM8M3BH/vNf/uo++HBWJOYIGKx6vmSxwiZPnuRdtrguLzSZ2LAYocmOEaV9F3XecX5GH82kc5wNpgmsnymhqYdZ082YPt278TBhZoUXKw3cDRMn8XFeK3XC87K63X+I0iyK4KLGe/oR2h3blKYkCk2zZs+OJDRxD/7yFz93v7K/VO8F2jJC07r160MLTVwvkyis2RCamjZpaiLTNX/u1AtxRNg37TeVPi4sP9og14mYkm/9Yr++WPQM8oJX/fr1Irv3hj0PtocjdcizifhLPJ+22h/iPwHoAwsutktHCViwYIKlIZa6xAxtbosDeRbf6o6d1ycmNK0MKTRxrrjzTjeh6Wc//Ym/59Nx/mH3KaFJQlNimymt0IQ4zfOYuQx/CDlR7lXuQ4L1dzex6Y3XX7NFiR72jIgmzjKOoz/BY2T5ihX2nNvkY9xFF8IKkjZwXVGuDd4SmhJbXfa8l9CUPXWR9EzKs9CU9KIjfoE71AcffujWrdvgA9ISzDNKx8fAHHcXXIHI1EAw2oYNGtrANXMuTKki4PrkOpcqrYLtdttq9oKFn/oV+oL4YOHc5lidb9e2jY/NNGTwEO8mFZxBwSrPFffHP//Fsm+8l/LqbPB7XqvagLyVxV6ZNvVFm+jPcPXqhQuEn7ivsO9LKzRh0TRyxHCbyGz37i6bt2z2VkxM6KIOIFK9Biaz3LcEv+zTp7cJgUO9GIh1ZJjJNtmmDljMkE/M7YyEBVi8hSkcC+GNAd0rL7/kBUPaTCbK1zZQw5pmm60yMnlbvmJlJO4EnO5hQh3WTMOHDfWWppx/zglNWDSZ8FJSKbVF07cBV3lWNLJ4YbPnfGJtaL+3cIw6MSjpnBO/92KTTUjqWb117NjBu6/S/rEQTlXYSdxf4vtcF5r+y3/+Py0TXAXvJrZg4UKzsjzmYzMhMEW3K0sklPx90BdwP7U2K0ssBEeNHOGD1IcVwJMfJfk39Lm0P6wat5gL4jqzDqNvY6x0xxYDMsEgODsmulwzQls7i52G4ETMrjomNs2bbwszEpo8KhjxDENAe/edd8yqvkmAMGde6TOwklu3foObb2Ot7eY6HLZw75DR97WZr5iA3ttbr5W2Lwt7DnFsX1qhCbdfAnjjYoplKQJPVKshxiG4wL8waJCbMmWyG/zC85EukXkp3iIs1pJpGStJ5ltRC30DSV9IQEPbiVIkNEWhlv7fSGhKP+NSH0FCU2oICeiJgEB8GQKWEqQ2ykolHR4rCKzmD7Fg5AyGcMdhdTTMZDW1sy79VhKaUmfIoJs2sWbNOve399+3+GB7/Kp2GDGSNlC1ahXvkvF3P/upxQDp5i3dgrNgX4gqfzO3pT+Z2IRpMQ/OMCILbZCJyYQJ47yFEAONKiagZKKURmjq2KG9GzFihLnxtHfLlq3wLqwMQDIx0Q7YUD8MRrFs6mKuriNtUtfLLE1amisbbhyplIJB1HlHPJoFNpDCCoDPwhT6iwa2ev/KKy+7VyxYPAIAg7x09yGPrf0xAMSSaZ25Oh04eCjMaT/ZliDaWAQhnOCWFbhvSmh6gujJG+5XhEUmAx3ad/D1vN4mWFevXvHWIk82TPMbzoM2hjA9oH9/L7Iykaft0R6jllwWmrp37+b+j3/6J3fy1Cn3qcUBwq0eS6YoY4Oo/LjnqRdiN/Xr19cLt1iqMuFL57iCZxFWqefOnfdxrrbv2O5d0wj8zTMqzHMv6rUX/h0saKcIoIyryNaK6ITl6NZt27wIhtVGqkUWTamSyux2Epqe8i6t0JRvFpE9e/R0VWzceeL4CUvGsfd7mbqfHq34d9x/WFkiynjXcrO4Zq7DZ2HKSfMcweobkQmvABZqovQnnA99ILHW2rVtZwL4Jce+o+xLQlOYGszcthKaMsc68pEkNBWPjgEjpsqbLajncrM+2GgmnPj8R1X86XBbWjwBMt7hukS8nFqW0YcOMRsLHbIsmlKrGdoKsWsIPIoIROansBMORAxcKl94/nn3q1/+wrKetfyexQCi0oJPF7lZsz7yD2FWoLA0CVMYiCN0ktEOyxgmi5koUYUmL86aFVYwaNlggxDiVTGhKYvCxI44KcRoYUCFVQ6rxKlYEVB/WDWtXbvOVtoX+CDOQTa1VK+F/oK28qKtGr5qYlNny4yEGJHOfoTz5nlBRrh/+W//6vZaLB2sm8IUzg9GTIjftAC7AwcO8BnNgpVkCU3fpwkzLOkYLPP8eGwWJEHbDyMwf3/P4T/hXHAjxXWTQNjTZ0yz2IJdvYsEE/woJVeFJtoxIilByHfu2uWtWKNaOUfhlvgb6gX+9U0EzM/v5PsEEhcE7o2J28bxnucaItOp02csttVOb3nAvXv7TmpZ5OI4h+L2AQvEa9ooWeN4RpKx9ahlvAsj6ktoKo5y2X0noekp+9IKTcQzG2IZbBHNTxw/aW7rSy2B0nF/n0R5vtAX4YrXw/Y3zMZFkyZO9G6nqYyNmG/Qh+IqN3v2HLfrW+E+6nyLfgA3d8Tm/rY4QrgFxl1hx+XQltD0tM1l0zsJTdlUG0nORUJTEjD2MZ0sgymCrhKTadWa1T47TmncdBj4DR0yxK/kkzWGyUMwyUp+JmX3jYSm1NmzUmp0ewIAABIHSURBVEp8pk8XLfJuUZh2hy1VqphL5bdm/wQCTxaAFDcFYvwQD+SyxSfC0iRMYcLarWsXn44WF5g25naRiRJVaGKizQo9gxX6LMTeshKZAk6cC2IT5vcTLJg/Ezv+n8qEm8EUGfKW24odMQgIZB6lDB0y2OJ4TfbWJYiFqRw7ynH4DYMzsoNtt+Drv/7tb21l8FRowR1mTN4YgL4+81UvctL/MTillHehiefIeourRGr3MAVGsIMTfTIDb17LonAOZKara+0NoZWYabhrIb5GaX+5KjRxrXXq1DbLma7ejQcRo6wLIiD1gkUTC1n0D/SdcRbanRdu7HrXrd/o4xHiLshYqazaZLLrQ/ynv0F0wkUZgTbMpFVCUzKyZfu5hKan/EsrNHXFMtssxUdYSII7JhSvMSFm3br1foE56hiroG+sY8HBu7ofmXtmVxtr1rMQAyUVxkWHLYkA4yKy2hJ6gnFHFMGLY2HNxGLWUBPSiKO3bMVyt9AWacP0AcE5S2gKSGTXq4Sm7KqPIs9GQlORWPyHsMGtZfbsj31wTzpAHnBROj0mCkxCWTUYb3E9SMXb0EQnMs9lc2HgKIum1GoIl4kNGzb5YPEbLBjsDcuQEbZgaTTIAnXjVkQsItpMUQVXjU1mZfenP//ZLKdOhn5wMilsauloh9hEhFgNvXv1KuowsX8WRWjiJJhkY9XE/cfgpzSDj7guigk3AyqEwYE2sZv64mS/ckb2lZIm3FwHLiZYSM6ylTtcO6KssnWwOG+4h7z95pvetSqdojXcCUJN9qbZFrCbSVvYvhCBkxg/uMxNGD/etTaXw0Bkol4kNCVvnYmcwnJPvtdo33Au9CHeBddE1hdfnGKuCW39SnbYPXIvBFnncikYuCHwDGrWrOW+skUGstyWdaFeGFM0tr4doWmKBdonIxtx+RLbT9TzZDyA1e7x4yds4W2Nt/Q+bIL5vfv3IvVfUc8j1d/RD/PsoN95ZO2MxBxhxDAJTamSzux29BmK0VTAPA6hafSokX7MydgFi2XEmG3bd/i4TVFEGc6M+65Jk8Y+YQYW3yROQPRONjZiofb8hYs+yc3qNWvNzfWAd0OO0rLo67CqatWqpSVMGWOxol5wD2w+R/ZJEulEuSYJTVFqIv2/kdCUfsalPoKEpu8jZBBPR8REijg7//1//N4dtxU7XOiiDPDpWGuaWwtpiFk1wEyVQTkD9TgGf9+/gvg+kdCUGks40V5mz/nYWxlhps/qTNhSv349b2rMBKFTfn7SidudO1+6gzYg+Od//mfvwsRDOkzbpE0y+CZzGgFBsTAhxlC622NUoYnz4py5xjAThbD8o2zPankrE0zefOM1n/mpZYvm/t4ubl9cA3VGGvT3PvjQBMoNkSwCyBjYpXNn97/+p/9kMaM6+4FcuuqQ9rxy1WrvJkO8E4TVMIXzqm2BebHoHG/iRF8LwEqWqMQioSmRRna/pz5ZMaYPYUUcYQOrQ55rYUquCk1cYzb2S5wTdcBi1lhb1CJ7KZaxTPxKU+h76QNOmoscFrUkvDhp8U4KXLfLxroulespTR1JaEqFcOa3kdD0lHlcQhPPZDI1skBKbKSVZi1/yOLR3rLnfJQxF/cdY0zCPxAPdMK48a5Zs6bfG6PQr/B34eJFP98inMAuyzaHW36UxTeOy3OJhdSRZmk7Yvgwl9+xozttbr4fWIxdkrBIaHrafnL9nYSmHKhBCU3fryQ6IcyssUoh6PCmzZv9/+kMo5Tq1av5lXtcbMYQHM/clLBcyYXCA0YWTSXXFPcRVka//59/8JlQyOAR9iGJNUrzZs3cW2+9YRnhpvrYNckmB48fW71YIOx//fVvfJBTXMnCHg/hBuuSN81Fb+zo0d7FINnxSiaQ2hZRhabU9l52W+ECS8wrrHRwVyFeUkmF+jp+/ITF9FrkB3XHLaYX4lOYUrFiBT+Q+4//+I+WYamvF27SZdWEJcNHZn31ocUGo08Ie65MfgmiPsPi+kwYVzCoLezWI6EpTO2X/bYM6rFqQuT8Dz9614ueYbMw5rLQVPY1kPwMyCbWp08fc1152+I25ZfKqomxDxaNF8ziYM3atWbVuNpiy0UP0pv8rLPrGwlN2VUfwdlIaApIFFgB/+Z3v/OLnE8/Tf0drnNYNCE0MTdhzH/MxiKrV6+1+c8yn0WT8W2U+Q9jEawpe5nFfMFixDgf34/nRlA43t27dy1r5063dNlyt2nTZi86UcdRCsckUQoLIK+9NtN1toW4qlWq+hht71vWcAlNUahm728kNGVv3Tw5MwlNT1D4N3R6KOkE98RPmPSp103hj9Lp0ZkycUfFJ2YCnXnvXr0t+HfNpOaj3z2bsv+fhKbU6oBVoH2WHeMPf/iTj2HzpT04wxREH0x9O3fOd2+/9ZafiPNZ4gO58P4uXbrs3rfsX2vMheGwWTd9FSEwNm4VxFjBnbO9uWGxApXOUl6FJtxVmpqIMtks0XBFZDUtFYtF6nDzli3e3RJXSKwDwhYCM8+YPs3HySGwe2HxJuz+Cm8fTDLPnj1n7a1goBYlsxZJD1hZnGnppEdatk3EucLtW0JTYfrZ/3+ecY0bN3IvzZju45UxcQkjWEtoSk8dE+8P11SClQ8wd2z6J2I4RSksvrF4stMsDRYvWWp9FotvX0SyDIhy/LL6jYSmsiJf/HElND3lE6dFE0ITffe9e/fdHss+x72+cdNGn1kyarymijaOxdK1m41NWEQlcUmdhFiWuLOesBiVWEsjNLFgi+VkVGGLRXziZQ43S6ZxNq5FdLp//ysJTU+bTLl6J6EpB6pTQtPTSqJjo4MjsOX75s6yY8dOy6py2luKROn06LAZqOCbPH7cGJ/1oKFNCsO6Fjw9w8y/k9CUGnNcCBAKcJ07aObG3FdhCm2lUaOG7vlBg9w0EyqeN2GypHLz5i0vhC5avLjA9SqkuMX+cdVDBB1vMaHIdMfkP50lnUJTIOxyf/GHK2AFs/h55pkCwe4bE5EJmk6bxpqIwSp/vI9yfydyqoC5tsUfICgyE+4e3bu7PBtMMcgqrpC2F/P0xYuXWHD3pX4yx/mFKcSu6m5BN6eaFdxEs6jCnS7OAp/r16/7mA3EN8CiIQozrJkGDOhvsaxedH379C7SLRQrvY8/mesHnMTHe/Ag+X0UGJhyLmGZwYf2wh9WYYUFr+L4IQA3bNjIYj+MtlhTo70lWXHb8x31TObSqMHAS9o/q7iVKlU0IcHaPW3f+hMvVPNDWzymfX/99Tffa/dR6rGoc2FwT5ufYW1/oq2MhxE7y7PQRL3wh8Dj+6SgXqzdFdSL1U3QHz0i/lxBnxSlPReuF9o0Wehoo1hS9+vb18e5K7xdSf/nXAj0TfIC2u9Gs/QmeUEcbYdzpJ0++2wla7MF7ZY+07ddewWTM0Ny335pw3avP7K/hw8fmMj12J9DHKySMZDQlIxM2X4uoekp/7iFJtzOuKdYBNtlsSMZX27duq3AlS3k2CQ4S/bZpHFjvxCH6zyJaHhG0IcQq5IA5KvNStK7zJk3SZR7mj6DxVrEMjIBs7CP2x7HuXv3noSmoDLK2auEphyoUAlNTyuJhxeBlREMZn00y6fuRXiKUuj0WMHHZHT0qBE2Genn02PS4YaZ1EQ5dpy/ocOX61zJRBElP1202E/Cz5075x7aCnCYQrsgsPMksy4aYdYeWH6UVFilQQglMDMCF+6eYQsP5nZt2/iAiVjFkBWRtpuukk6hiYkc1j24H+I2wiQBFzbMphETsPi6ffuOTZru+DgE589fsOCT5/17Ji1xlK42gEJsmjhhgh/wcE7FlQfW51y02AQrV61yH38817IWnvRm5MX9pvB3HAPB8NVXXnFvvv6aw3UpzjrEmuHkyVPe5ByRCSE1Sulhq4wvTpliVi9DfR3R5guXc+fO+1XUdevX+QDRD2xCmawgnHBuuPQxEQ4jFtIHIwDQNqrXqG4xHYqvp8RzgC3uYkNswIybJJnXSirpFpry8mr5ldvGNpjnj/ughgmQlSpWsnl6ASfcE26Yte55y4Z50VygsFC5bexYqQ7DrqhrpQ2SuOCdt9+ywPRv+Psu1TZYnoUmBDjuzcbWr1IvDRs0dDVMCEYQREFBNGGMccvqhRglZ86c9fVDm46j4LbSxvr3qRasfarde8RES7VeguNzfsQ3IZQAGVWPHz8ROj5bsK/CrwiiWHizAMezp0H9BibQ55kgVs2Cmle2exQLrG/8ggCTRe7za9evmYXFOcs8etXdtGce5xdlYlr4XIr6v4SmoqiU/WcSmp7WQTqEJvZ+3xZLz9tiD2MTQoiQVTNsXManZ+lcNbOWb2djXMILjDMhCOGJMet+C/q9YOEiL2oxFqJuoxTEfGJMjTKBiUQ6LHwQP5NnvYSmKERz4zcSmnKgniQ0FayWweHipUt+1Xm1ZTwghTedYNQBOANMXJEw3SQYHav5uCXlkshE85XQVPxNTPtgskvwxA8t0OA+y8rFwzjMwJc2Ua1aVdfHgiMTL6mnWcAx8C6pEKfp7r27Pm7On//8Fz9R4VzCtFkm26x6D7cH8zvmssdqEA/ndJW4haYKFQj8WNlP5hCYWtv5E2i/VetWfuKdZ2JvtWo24TZrD0y0cfegfkgvj4k21osnLB4BohP3e2lX6ZngFwRYf9vXY0nZnqgrJpUE1/74k3l+sHXJ+qEwhYkjbjJYCr1hQhN1GFdfw/kxkdtrbqG///0f3B5LjsAKZJjC+bGqOGzoUPeGBUxHmEmWme/69Rs+IChilg8GmkQARDxBpLt69Zo7ZgNgBNcw9xznRLtobm7NHdq39+Jcqtf0jLU5rMY6mQsAAftZNS2ppENoqlChonF9zotebdu1dR07tLcMYy3tr7kN4ptYjLea3rLJqtCE74e+ndHusRo7cfK0iRpn/B+De+4JeEYtgXD32sxXzfX3Tb+oQp2n8rwrb0JTwf1YxU+kWlrbaN2aOmnpWpqbchNzqa1tVqOBsMmChBdPTPRDZGIyd/To55bW+4y3IiTpQ1SXFeqS/h3RhqyAb73+umWmLFjhT6VegrZAm9locVN4xm3ZutXfl2HutWA/wWvQX7EQh7BEeyWZAlmd4FPPnkcFCwRVnrRfGNyxBQJci7G0oM9mAQxh+sLFC74f4Lu4i4SmuInGsz8JTU85pkto4tlP33Tg4CG32sIzrLcwIsSR5F6Mcv8HVt+DX3jeW9D3tfhxZ86edastFtQ6S4aCeMw8LMz4NaCAYI2LXO/evXwYgS7mvs3/6WvYn4SmgFT5e5XQlAN1KqHJeaHg0uXLNtnb7laZn/A2m/Sx8sukPWxhAEenh5UIK94jzboBn2RWl+n0cq3wQJFFU/JaQ5hAoMCl6G/vve/O2sMyithTt24dn43rpz/5sY+rwSQtlYLYhGkzrp4HDx70FgphBgG01xpm0THQYnggUnTr2tUG+vVSOXSkbeIUmrxFStUqfiWcQNgDBwz0K1p1sWQyIQDB7DmztOB+5Dqpq8A15f5X9/3k+rLd9wdtIIUVIytriBth6y8RBAIPlml/97OfepdEXBFLuu+xTDty1NxSLD4B/c8Ry1gYdrCFxdZgy2aJxdDzgwb6QRZ8SltghtscE8zf/u7/8xZXYSe+WC5h0YE5+8svzfBCYLJzY9/cTwgzTCa+MaulogpCEwLd/gMHbaC62mLGbPX1W9S2RX1Gm8AqqZ+1G1yLECdTLs9YWnv7PYsJ/GEVWFKJW2iiTTEZZ2Lex6xm+5grYufO9pyxz3ClZPUYK6Og7dEnwJPnPdxu3DDLJpugHzB+ez7b4w5bm8PCqTRtHwa4K0yfNs0N6N/PWxQGxy+OT3kSmoJ6YWGJBaau1p8ipNSqWaugXmxBgfsh4EK9wJx6KbDWue7FkwPWl+/+7DMTUY+5q6WsF+41LAgQAenfEXiC4xdXL3zH/Y+oM8fcWZdZ/1TgzprcyrCk/XHfcb9gzZCf39GfDwtyZMWrwb1U1SyZTDTn/uK8g/PkPBDlHlkbRvgmExYi81mbqCJKI4Aj0LGYwLZxFQlNcZGMdz8Smp7yTJfQxBG4l3h2fWbPiMVLltg4YJsJvZdKJX43b97MWxsRF/S4eZAssYDjLH5wX4cd93CO9BFY9LJAS5+LRwAxoRj7USQ0eQzl9p//HwAA///ynY85AABAAElEQVTtvXWcXced9vmzxWhZzNDdYma1mBktNMZOMgEnmWwymZ333d3P7v+7O+++ycwkDhllWczMzMzMzAy2JO/zVOeoW62Ge07f2xf6qc9HurcvnTrfqlOn6qkfvPY9iqnENIEnT57Yzp277Pf/+V92+PBhu3//vq/6VqlSxX70w4+sX5/eVrVqVStSpIiv70f7w8+fP7cHDx7YoUOHbeas2bZ1+3Y7e/Zs4GoVLVrUcejUsYP1AZMWzZvbm2++aYULFQr8m9H8IvmcPXfO/vinP9u2bdvswsWLxtdCLeXLl7fRb42y0aNGWq1ataxYsWKhfjUuPvf48WM7g/4ye85c139u3Ljhu97Fixe3unVqW98+feydtydY5cqVff3G5s1bbN6ChbZ+w3q7fPmKPXv2zNf3efzGjRrZ0CGDrVvXLpaUlOTr+34+vH3HTvv8iy9t46ZN7rrzW9eMxypXrpzVqlnTOnRoZx07dnTX2htvvOGutddeey3jR7N8zn7M9jt3/rxt277DNmzYaLv37LFbt27Z06dPs/xObi8WwnVes0Z1++ijD61Ht24hjYk81rXr123L1m3oQ7NsKx7Jxe/ts1HDhta9ezcbOWK41atbNyxj8bfffmunz5yxNWvX2hdffGWXr1zJDcEr75cqVcpatmhhAwb0tz69eoFJlVc+4/cFsrlz545t3bbd5sydaytWrvLVZrxPsR49e/SwMaNHW9Mmjf1Wwdfn7967Z7xOly5dZus3brTraO+g5fXXXzdes02bNrUO7dtbm9atrEH9FNfXQun3PO53331n93CvP3/uvO3Zuxd9b6vt23/Arl696t4LWjfWpQ/GsSGDBlm1alWN10NuhXXhuLV23TqbNmOG7Uc9/JbChQvbxz//mf0C/0I5Jn+ffeju3bu2bv16W7h4MeZBu/PULjyu1y68/3fp3Nnq1q1jb2KcYpuFUjgWuHbBmMSxaMuWbWiX/XYN7fItOAUtHTt0eDG+c55GXrkVjkHks3PXbps2fYZtQL/lfNHP/T/zMSpVrGjJKcnWumVLa9asmaUkJxnnkCVLlgyZEX/TG7tv3b7t5mv79u237ZjH7tm9x27fue37Hpi5nt7fnLtxPP3xj35oVXzel73fCPfjw0eP0Ca7bOLESbYX1+7Va9d8HYJtXw73SZ7XB++/b9WrV/P1/Vj4MMeMS5cu4drd4OY+2zFv91s4Vvbo3t3GjxtjrVu3dtdpqGOH32NF8vNnzpy1P37yic2YOSvQYZo2aWJ9evdy92fOG7iGyVwuXrxkmzZvtqXLl9sOzOE4LgQdB7gGqIB1QUuMAdfQdw8cPGiP0KeDFO9eWA/j7IABA6x3r56YS9dx47D3exznHz58ZMeOHbPJU6e6uXqQ+R3nmt0xp+vfv5+1atXSSmHMUok+gdfQwBKaot8OOdagIAtNHCgfPnxop06dtk2bNtucefOcqBJ00OMNnMJKxw7trVfPnta2bRs3OeHNK9QFQI6NFYU3yUhCU/bg79695xZpi7BQWb1mrbsBZ//prN+hONK2TWvr368fxKbeRgHFTzl+/AREpg1OpDiG55yE+Slpi+6qWBh1smFDh1n7dm19Tfr9HCscQhOvJV5rTRo3ttTUTrjWemBBV9feKFvWLTL9XGvs348gNl2+fNlYt+XLV9jBQ4fcBCjoRIpC4bixY9ykp35KipUoUSJHRLxNchw+fOSoTZk6zVZCNLlz944v4YQH4HEpbH/w/rvWHIu4UqVL2+tglZdy//4DiHDbbOmy5bZ8xUonwvn5PU4EK1asYAP697d+fftas6ZNrCzaKa+FzAqi0MS+zf5Uu3ZtN17069vHqkE4KFWqpC9hkfzYvyleXMTmwc6dO934tWv3brt5M7jQmpKcbJ07p0Iwf9tN+AsXLhhCEy+zkiVLWcOGDaxv7z7Wo2d3q452YVuFIup410PGdvHGpLUQebm4u5kHAbxhgwZOhB4+bKglJyVjMZn7hiDHpJOnTtnKVavd9X8I42LQMZFzoLJly7hxqUuXzhBIO1jNmjWsJPjw/hOqEOdx4iPrQjHsMep59cpV248F6/z5C+0QNkwpmD5/7m/DJeNve88lNHkkYutRQlN6e+SH0MQ1ETfkVq9ZY0uWLHPjwj1sngQpnJMUwvyNojwFn6DiNe+FFK2qV6uGjcYONhBCUzusuSiUZZwDckyV0BSkpeLjOxKa4qCdCqrQxMHHDZ6w1lmzZp2txmTu8OEjdv/B/UCTKQ5s3LmsXz/FBg8aiMl2ZzcAxrsFDydzEpqyvpDZh7gjM3P2HFu1ahUEisOBdma4o9u/X1/cKPtjId4Ui8ZSWR8wm1dvY1d3/4GD9pe//c12YffZr1DKST6PSauOtyeMx+5Wb3ezDjL5z6aKL14Oh9DEhRsXAAOws0QrLC5uS5cpE9hqkH2clk0XsUNKyyZanezA7vjjx48CjQXlUbeBAwdAWOljrbBrVwZ1y62wDucvXLDFi5fakmVL7ejRY77bkWNNHVjGvf/uu06Aq1G9ui/xIXMd2b9peTN77jybN38BBPlTvuvEySStOtivemL3mGJYOKxeWbeCKDSRHYWlXti55b82rVq5CXterlWOFxfQ9yhWL1+xyo4cPepbUPT6TkVYrLTGbu8vf/GxUdwIRWThojHeLZp4njVgyfj2hAnYaOpgybDUKY7rMS/twjGJFsQbN242bmQcxY48x/ogpUaNGm4DgRaztGDIbV7C64uW3hyvaTHIR1qQBClk4ESm5s2sa5cultqpkxNKKTLlhY9XF9b18eMn7l7McXv5ypVgtgmLywd5tmyS0ORRjq1HCU3p7ZEfQhPnJ/R2OXzkiK1avcbWrl1nJ06ewPX13LfldXrN8/aM98JKlSq5+w1FplYtW8CK9lXrPI4PEpryxjqWvy2hKZZb5x91K6hCE5V07hhugjvDkiVLMZHaYTRJ5oDqt3CyxEGvQf361hWuR1xg8jkXWfFeyENCU9atyMkO3eb+8te/ObcYmrD7Ncll36G58jiYbw/CzZI3Tr8LcR7TtdEnf3buXzdv3vQ9weaOM0WKCePGOaG0QoUKvuuRNaWXX82r0ERBt3TpUs5yZwRM//vDSsav28XLNUr7i5ORNDexsxBV5tsyWPBQ+OH46LfQYqczLK1oxdMVu/dcrIRSaLGwDa5gS5YuhavaOiekhPK9jJ/hQn/UiBHOFL4JrIe4mAtSyOPJE7jNnT5tEydNsvlwzaT1p9/xkSbyzZo1tfcgftHSk20VjsL6FTShiWMFrR8pRr/z9nhrAXfEcLnzUGziIoJWa1xInDjBRYR/ixDe8+jC+b//b//N1TOUsSzehSaOSeznzWFN+KtffmwptGIEh4y76kH7PMUmWugsXLjYuRaeOHky0E+l1a+Z/fiHH8HtI02czOmH2PY3cB9ZiQ0UWlmePHnKCU85fSe792hpWi+pntsYSIWLM/mEe27E8YD96MaNmxDql7nxiq4yHLP4XtAioSkouch+T0JTOt/8EJp4NI4JFLr37N1nCxYuss1bNsP69Sauu2BhBtLPINgzWv63hLhE75EeCBnAe2FWbn+8/iU0BWMcD9+S0BQHrVQQhaaXB8yFLgYBd3Q5IAWZlDjzTVgPcFHZD5YpjHdTFlYM8ejvnbnLSmjKTCT9b9506V/+yZ//4m6+XKz56T9cOHLC3bRpYxcroS8sibgz7neBwmNegavA5ClTsUhcjUXiSWehk17T0J7xRs04OoMGDrQmsG6KhA96XoUmxjqritgvdE3rBn/5xljUhmI1EQoBcuTEifFq6CrG+A8UM/wWWoe1aNEcHGnV1NcYlySUwkURF5IrsNifNWeOs/Lwu9inyJXaqaMzI2c8gTfeCOam5i00d+7YZdNnznSLXPLx0795zsnJSc6KYdiQIda4caNcLSlC4cTPsB4FTWgqBpeAZFjvcTNjPPo/rVTC1fcpVt9B3A1enzMR64PXQBBhkWNaMmK8/V//5//hrPlCERTiXWhiG1D86wkX3rcQi5AWqoXAIRyF7UKrQlpazoLl7OYtW5yg4vc6LI0xiW59v/j5z609BF8KYTkVzgvPwdp7waLFLj5Tmiuav0043sfYHxrhuLTw5kZKEgSncGwMZFV3MmFfYkyrtevW2wKI47RS5QZC0CKhKSi5yH5PQlM63/wSmnh9cV7AeE20fl0By8Hde/YaXej8bkCl197/M44rXHNxbsExheNubcR/LU4LSbyXubDeEpoyU0mcvyU0xUFbFjShiYPOnTt3XRwWTkZWr1kNt4GLvl1CvKblRIrWH4ytw1gxDHBJ15l4jsvknRsfJTRlpPHyc8av2IjYXlOmTLHjEHc4+fFTuEChBRMDx44Z/ZZzufDz/YyfpehFSwTu5m7FIpGxo/wWunjR7aUvxJGBcEtjvLFwl7wITZxgUMShteA//+oXbnFHCw+/wlxO50QXjDNnz7i4JF9P+sauIPg1xww/pWTJEljUNXSWYQyKTHexUAoXlRS6GHRz8pRpzoWJQTf9lGLFihpd5oYPH2ZjEeSaxw7Ch7F7aM20ZMky54py4ID/AM2vv/6ac5MZhcV3RwStZl8PlzCSNo4XrGDgpRFzi8H6KWAy0DT7frgKebL/0W2OggbHElr8+l2ks6/RMvK//9u/uXgZHFN4j8ypcNyMZ9c5LnpovThq1AhrBSsztlOQay4rRmwXztGOw8KMwX4ZQ47C03doKz+lCO419erVs9/+5n9B30nNNW4cF4+0cKPlAv8xQYLfwjkQ279Hj+4IDj8QCQFawroz9MDofo/Hz5MX63oQYRAmTvw6LZA6LI2DLoQlNAVphch/R0JTOuP8Epq8I9KllhtivEcsXrLEzp+/EHj95P1mqI8cV7nhUqNmDTe36AvvESYaoeV2dhv7HBMkNIVKOP4+J6EpDtqsIAlNnGzQFP0UFlAMcLkaAyXjHviNaZOxWWm+SVeBCePHOaGgfPk0kSnjZ+L5uYSm7FtvMwSdRdjxZYDEINneuECpjww8tHphhkL2o6CFfZiLRLo48V+QrFY0O66JG3ivHj1dQGn6u+e2SPRb37wITawLra7atm1rv/n1PyPOR62wLei88+CkhOLOBsT4+BMs1U5iQsUx0k+hFUdycpLLvEXBpyosHEItHJ+Y/YuLSgqGdIn0UzgRY6DfYUOH2oc/+MCSsLik+5LfhS/rsReWAd98MwWBiHc4ywA/9WBb0XKBosh7777j4mixf/mtR3bHZDsVNIsmbmCMHTPaZfGkNRPHj3CXc+fOw31uhbPoo7UmrZr8FLZvrVo17Xe//S1iArXDJkz5XMeQeBaaPDGFsY/efedtt8kUirugH6b8LO8vFHxcrCaM83Tz91PS2qWW/du//g6WoF1zdal1VlS47hcvXuKy8gXZuOA4SNGRYxFj6XHsptAcrjEgu/Pn2MDYiTOQRZgWvnvh6kMRNUiR0BSEWuS/I6EpnXF+C01cE1CI9lzoOD9goHC/1tfpZxD6Mwrm3ABth4Q1jGnaGm7AzKKZU5HQlBOd+H9PQlMctGFBEZo42DyBCTWtlzbDYmAJAv4yfTAXVEF2u7iQ4kSfJvPcsWOabKao52uRnkjlZ7eS0PQqbfYlcpmPif83k6cgcDOCyCM7l99+ROscZsmgxUe7Nm1yvWG+WpP0V3iT52KAmRO/mjgRbg/nfdenUKHXXTyhLqmpLp0zd8BDcX1Jr0Xuz/IiNHFRRzGOC6V3kdWK6ekjca1RtGP2rc+/+Mr27tvnW7QrXryYC3Y7ZPBg50rD4M2hFloSnUXcLwrhHKOYvpr9zU8hE8YsGA0rubboV4zPkt1uX1a/y37MiSSF1M8++xwC5jH3d1afze41BkLmInPw4EEuZhQngxwzw1XIpCAJTWxT9nemWWcctXCKdhnb5MaNG7Z9+05bhJ3qtevW+c6iyXoWFKGJ58p2YLswTTzFJrr28vVwF1o6rocr72KMCZy/3MX16aektUvoQhOtFFasXmXLli6H8L0P8Zn8CY6sGy3uaIHHQL0MK8D7XSTYZMWBVhfMHjoTYhMFOr9u7d5vSmjySMTWo4Sm9PbIb6GJR6ZFJS0HKeIyUciGjRvdHCGSYhPnDxxT6Irbt08ftzlL8To3YZ9zBVk0pfeXRHsmoSkOWrSgCE28MV3HJJppghdhl24PRKbLcIsJUjhZontMfQb/RhaVHoiFkpScZGWYTjyMi6kgdQv3dyQ0vUqUN1Nm4Jg6fYZN/HqSS6XMHVM/ggD7CSexfZA56h3shNPyJC+Bknls1ouxhVgnTrL9xljx+jVNkbk7z4xpjDcSzpIXoYm74bSSYBy0wbCUoctqJBYuHBNpzcEguFu3bnO7dX4YUGxmzIAh2MUfPWoUMqGELjSxDenaS4FrGvrX6jVr4b70xFffYl2Z8cu5rEDoSUlOgQBeNORTSLP6PINsnGtcHZj5yq9FAGNDMbuUC4iOxSYzcoazFCShiX2cfapevbr20Ycf2lsjR4QT5Uu/RYHxyJGjLjbP/AULfLtMsa4FSWjimJ2EmFQcL8e8NeolluH8g5sIu/fsxvgOazMkC2DiAD8lrV1CF5roGjMXC8gVsG47deq0b6tOHo8C+/vvv2fdMEdKxvwotwWhn/PJ7bMcryhET8YYzs0gWmj5HcN4DAlNuZGOzvsSmtK5R0No4v2X19MFxGtaiVhNTCLBOScFXj/z4PSzyPkZ58vc9GSG4Z7Y2O/Rvbs1wBynRImcY83xV1kfCU05843ndyU0xUHrFQShiWKJF7h5GWIcrFi5yk08gqrvnDBVqVLZpTDvBUsmxmWKRODkWOg+EppebYVHsII7DfdLCgF0ceLN1W/hwr9mzZrOvYopsStVCi1gdG7H2YwsirPnzHVxfhgg3O/kmn27Xr26LiB4b4hgTIUdzpIXoYl16w5rpqEILM0dcrqtckET7sK4NHSpJUdaETA+ip+SF6GJkyKOS7RI4yKJbpA3b97wHf+LblZNkXXuBx984NKac0EcKiuOlVsgsC1FvK81ELpu+wyIzthMlStVtrew8GYf4oQwaPa77LiTU0GxaOIkm3F/GKCfggYDoEaqUGQ8feaMswLh+ObXBTdN0CgYrnM8Vwbfb46simMRnJ3x2CJVaFF0BDGTlkH4mTV7Ntrlhq9DpbVLaEITr63DiHHE5BIr4XrGPsCFvZ/CsZqLwn/5l9+4DQsmR2E/zs/C82C8Mcba4xjOjRe+5qdIaPJDK/8+G06hiYlF2rRp7TZD/Fj+5t/Z5nykaAhNXo244cqsmNwQWwprSwbf55oy3IWWowzl0LlzJzc3bYEMn5xThDKm8JqX0BTuFomd35PQFDttkW1NEl1oolDCyTMHQ5p4cuHIIKd0o/M76SBETtgqVqyASX8Te+8fVh805wxlwMu2EWL4DQlNrzYO3RiWQrDkzjIX5EFurLTwYGaygcxMBjNgiibhKIzTtHr1Wlu4aJEdP37c9XM/v8uJFn3g6XI1evQo64mdI/b5cJW8Ck29e/WyEcOHunhoXOSFs27eOdJ97RQCvdPykS5sB2Hd5KfkRWjicTguMU33cuwUMkYKXXw5ofNTuPtXr25d++FHHzr3FS6YQplE89i09Fy0aIlzn+Li1m+cHoqodevUsR/BzatLamergPGSLkXhLKxnQRKaaCHWHJPrt+E2R4u+SBWOZecvXHAZu2gJcg0ig5+SJmgUDKGJ93xeV+3btbWRsDJj1tBIFbp+cTyn5cDU6dMRgyhIu4QuNNGi8tPPvnDxB3lszgP8FN5DeH/79a9+6awruVCMRmHCl3nz57uYexTM/J6HhKZotFrux5TQlM4omkJTRgtsbsztRsgBWkAHWVuln9HLzzjOcn7cuXOqi/nYEvdBJhbh66HM/1gXCU0vM02kvyQ0xUFrJrrQ5O3QrsOEg25Fh2DeSYuF5xh8/BYObIwz0Lp1KxeTqRdMOKmy06UnaMk8IIcycAY9VpDvSWh6ldpF3Ej/9unnyDi3yVk2+bUa4i9Wr14NQbd7WH9kd6OLGvtVOAp3uvdgkfA13Oe2I0ijX5GA/Y/xdRifiW4PI4YNDRRMOrtzyavQxOyOI4YPd4u7SAlNnMTSqmPJkqUQe1bZfgTF9lPyKjTxWBSW9iA+Ey0wKXgxdo6fQlGJ8QsY/6tP717OuiA310yORTz3E8igSLdBWjTRRcdv/66MSSAXmR+g/7iMMD6sqUI9R9a1IAlN5bCZQabjKTQh006kihfHcMHChTbpm28CChoFR2iioMKsocOHDXPWe5FqF4o9J2CVs3zFKps6bZpdRbBrPyVNAAxdaNq5a7f9+S9/dXG6uJjMPE/J7dgMVt+hfTv7yT/92LmFhyJy5/abQd5n+nWKcwvRn7kA9mvFLqEpCPXIf0dCUzrjaApNrAXnB8zOuwnW9IwruXXbNhcTza+om35G6c+4xVkOYn7jxg3dhmy3rl3dmotzrFALxy4JTaHSir/PSWiKgzZLZKHp228Rl+n6NexmMfj3Upfq1u+CLWMTloCpJhfgg5Gql9mUmE0qaFBWDn6c9HBi/wwDNUUsClb8x0lZrAhOEpoy9oC0m+rJk6fs//5//91ZmjBDmd8bKts2Bdnm3oIIwF1wTsrDtePLm/7Zs+fsz3/9m61atcq5PfmtH8+4YsWKLvPc2DFjnEl5XsTUjAQlNGWkkf1ziuHM5EKBnDG3aGXiV/ChEJeamoo4Sf1cSnMGBc+pcDyiwMXF2cSvv3bpi3P6fHbvNWnc2Hr27GFDER+K4yXdaMJdOH5KaAo3VXuRMENCU+5sec9OVKFpx85d9sdPPrG1a9flDiKLT9RPSbEuXVLh6vmOi1cXLaGJVmDrNmy0KXAD5OaB3zFUQlMWjRsDL0loSm+EaAtN3lrmEjJjzpk7F27XC90cNIilf/pZpXmPcO7QALFwe2OzrBfmFBxX/CaoYf0kNGUkm1jPJTTFQXsmqtDEwYUuctu2bXcuKJw40eWJN6ggheIAg1tOQDwdxodJSU5yAx4nm34LF/5cSHKhxAUkY6LQ2oCTmooIcMwFIgfYWBCbJDS93Lou08a+/fY/f/8HZOM66trx5U/k/BfblG3bsmUL+/CD911QQ+7OhKut2e+vXLmK+D5TbTmsYTi5plWf3/IG+iBddBgPqRXqyhgx4SgSmkKjyOuOmQwp+nz51VfOqorJDPwUBspMTkp27pnDhg6x6rC+zKmfeZP39ViYzZk7z3bs3OnncO6z/P3eEE/HjhmN1MMtjZY4kVhksp9LaPLdPLl+QRZNobukJbbQtNP++Kc/O4umXDtNFh9g3KqePXvaqJEjrQasdyMxBmRx2FdeOodYd1sxB/zs889dnCYJTeY2Mzkujxwx3GVLpHV1vBXvXrUOoTDmIY7h9u3bfZ8C71UMKq0YTU2c1fOAAf2du32QTU/ejxlH7sDBA26Dat68+c7qkq8HLZwnV4ZVdpfOnWExOtTFwuNmv981F+sgoSloK8T+9yQ0xX4bufgyOyHC/P4//wsBIA/7jgXCrFQ/+uFHMGvs7dKzc3CIdnE78wjQzNSbjHGyacsWu4QgdUFFJp4PM0fRxekdpFVv3LiRBQ1uyUU/hYCTiAFz9OgxCE3nXVpQig30Q2a2qmaYpNVCoGjulka7SGhKbwHesA4eOmxr1q616QiUS5GQfPwUxqphu6amdrIJ48e5LGp+vh/KZ2/dug13AcSQgqvorl27fAdz5jGYVZH9vQ/iRw2BZQoF0HAUCU2hU2SsKAaxnYUU3Ywtdwy7834KrdAYP44BuceMfssaNWpkJRC7KbuJGt1z9sFNkCITg8qfOXvWz+HcYpIuoHRtZKr32rVqBrb4zO3AvBYlNOVGyf/7EpoKttDE64qbYNuwcP/r3z51acv99yKzNq1bIwV5b9w7Bru5U3ZjTpDf9vMdurlv277D/v7pZy7Bg4QmCU1e/5HQlEaCCV/oXp8XoYm/xHUXPUY4h5g1ey4y5+61i8hKF6Rw7sKN97Zt28Dqv5d1QgZbepAEKRKaglCLn+9IaIqDtko0iyYOKlww0ZyUGVPmIwC43wVaxmbjBIkiUMcO7Z2FB4Mje4HoMn4ulOcUJRjEk5O4lStX25ZtW52VFSc/vOnRqqlu3TrWHzE4usIXmTcAHp/vRatIaEonz75F8YYL/x0UcGCJxtf8FO4WcQFOlyYXOwemwOEujMt04MBBlwlkw8aNvjNHsT4UjGtB9OyK1NQ/+uhDF1MqHP1QQlPorf0UEzfGPuCuLWOMMAaC3/7Go3Xs0MFlgEvt1BHZ4CplGVOOv0s30JVwt/z8i6+cEM5x1E+hSXud2rXcsd4aNcq5XPr5vp/Psr4SmvwQC+2zEpoKttDE+z3vH5uxOffZF1/ali1bQ+s4mT7Vtm1b69+vj8uQWBWW4BKaMgHKw58PMS7vxPxj4sRJ2Ezd6zteFxfxsmhKc82SRZO5dUY4hCZ2aYpN1xA/bsPGTUhIs9jFMeX6xu+8hV4d9eunGC2xe3TrhizfaWFKglw2PLYsmoKQi4/vSGiKg3ZKNKGJ50OXOYpMy5evtMPImsQFSZDChXUZuAwxCCvdiDyRiYtwv4tuTuBozXQAGaymz5jpYq/cuXPXWVk9/z7NKqZw4UJWqmQpS0qqB5PzEYgFNci5LHFiEK0ioSmdPG9YTDk/ceLXdvbcOdeefm+gdCEoXaq0MwmuWrWKlUHa53AXthlj7fA64I4uJ6Z+i+v7qFs77Cj9y29/AxespCwFCr+/K6EpdGLsWxR7jiM496RvprjsSd99h0QGaF8/pWHDBk7U7N+3LyZv9Z1wnvn7tGK4AAu9xQjmORnZxi6h7/g9Dncg3YQVMaEobuUWfDxzHfz8TTYSmvwQC+2zEpoKttDE64qLRSaS+ATBwGlJGaRwk4xx2kZDcK5Ro3rUXOdk0fRq60loSmPCOY6EpvAKTRw/OJfg/IGW0cz0zWuQr4Va2C5NmjS2gf37W/fu3VwG2yAuc97xWCcJTR6NxHuU0BQHbZooQhMHEyeKwN2DKedXIS05TThvweokqMscLZnowjZu3FijNQAD0QURfZwrHxb+J06eRMyD9c6t6ciRo1mq/BQiypYtY91h0cSMZO3atYtYnJNQuqdjClGF8Rq2IZsEM7f4WYDSTWz0W6Mw4RzpLGTINB4Ld2VowTRx0jfGtN9c5Po1w+d58yZauFBh51JUtGiRiE3AeT1w0Uihgv0vSKH1VWO4W/30J//k3OgqV64U5Gde+o6Eppdw5PqH2yFEJsGZs2fbHKQPPo8A4Ryz/RS2W6tWrWzs6NHIBNUeGQ5LvvJ1jpO79+yxxci0twJZmtjX/RSOW4zFwkyFXRFToW7duhEJAu7Vif1bQpNHI3yPEpoKttDEnsRri/HZ8hKjidYItIZ9Fy60tIyNVowmWrZv3rzZvsTmEOdffu/ZCgYevrElnL+kGE3pNKMdDDy9JmnPOH5wU53rMGbNXbd+vbNyCmUdxjlx5cpV4NHRxQYPHOgEJ27252X8YH0kNGVupcT5W0JTHLRloghNXJA9gMn3BgSynQGLIaYGvwdxx+/Egk1GMYCm3gxExzg1v/rVL6xenTqBF040RT8LAWwFUqUz/eeZs2dc4LzsugfFLAYeb9Omtf3g/fctOTkJi8NS2X08oq9LaEqbeD9AzC+Kg1OQWpq7NKHcNHNqGPYxFu8xp88GfY83WP4LWtgPKbQOGzYEGT96Ihhjs6A/9eJ7EppeoAj5yX30PQrUixbDFB0m6X4tNCkY0qXtwx/8AO4sfV0suMz9jhnuKDItg2voIcTq8+s2xx3HBlhc/uqXv0R8llbOEjOS7jLs1xKaQu5CIX9QQpOEJl5bdM364ycIBr42Leuc3/sIQwB0wubcRx984ETnvCwUQ+68WXzw8OEjtmbdOpsxc6bLhOV3PiihKQuoMfCShKb0Rog1oYk147rhOjbI9h3Y77LmHjx4yMVvSq/1q884X2Cc2o4d2yO+Wx9L7djRhSnJPFd59Zs5v8KxS0JTzozi+V0JTXHQeokiNFFk2n/ggNuNZ5yR8+cvOEsOvxMkNhld4+jDTrPNATDfpPsQXZyCDngMqksLqxWo16FDhxD8+36OViY8DoP21sbikME0u3frCmW/SeDj56UbSmhKE5oYW4sL8aXLljnLrmc+3Zfy0gbR+i5v/BVgkdYeVjDMUMOg0nktEpr8E+QYTfFn1eo1Nm36dLt69ZqvH2E7MjYTM8ENHDgAolPtV1IEHz9+wiYjBfgyBJG/evWqbyG1Vs0aCNzZ1mVSpHsexa2g42UoJ8dxXUJTKKT8fUZCk4QmXltMpPL3zz6zNWvW2iNYJ/ixYmaPq1ixotuk+/U//zKwJbi/npv1p3m/WbI0TUCnO49f614JTVlzjfarEprSWyAWhSaOIXSX41yC8ZoWISnTxk2bctz4ZFymlJRkGzFsmHXunIq4oNWtGOYReS2si4SmvFKM3e9LaIrdtnlRs0QQmhjE9tSp027nauOmzcjmdtQFtn1xkj6ecFH2JlR1WhPRda0bzL+ZuSlINj1OzmhCumv3HpuJANKbYMJ969atkBZxrAcz2zVt2sSJTczgwoE4iOuej9N/5aMSmtJ2Z86dO4+J9+fODP/06dP2HDevRC9O8ISlSl1Y870NF4hREJsoILBvBi0SmvyTY1BwTtiYwvlT9METJ0/5tjh6A2MHzdEpnHdo384tBFkTXt+chNEClC6h6zdswN8PfS8s27ZpY/2QxGAAxkxOECNtwSChyX8/CuUbEpokNPHaOoTsqhwPViHWJTNJfQfXcT+F8dkaNmhgv/3Nr50lLC2yIyk8Z1c3bu7Nnj0Hm0Pb7SbmXn4FMwlN2ZGN7usSmtL5x6LQxNpxHKFlNN395y1YaAvw7wrmMVxzZiwcFzivrA+L6C4QmPr16wfr6Ppusz0cY4aEpoy0E++5hKY4aNN4Fpo4gPDfkaPH4FqyDpncVrkMcwyE7HdCwabioMYYQinJyVhYj3fxTGojvgAX1kEGPN4MaX1AH2Wabu/dt9/Vi3UOpfC4pTBhGzRooAsOzolbafgr52WhH8pxM35GQpM5YZAWH//Pv/8P27dvn91GfKZQ2zAjy3h8zr5GgZPp6t+eMN4qVqgQSHT1zl1Ck0ci9Ef2NQoAFNA//ewL24n4KRcv+UsbzHGNFpI0SadgmITg7iwcoxiscx1cjhkDioKT37GTY+NgjFHjYDHVDO6VtP6M9BhFJrJoCr0PhfpJCU0SmnhtnUACAgbzXb5ypXP7z7w4zK0/8frn3Onjj3/mEgMwNXmkxeeMdeI5cBybiTTr30yejPM54QR0vu6nSGjyQyv/PiuhKZ11rApNrCGvN44dzH68aPFSuP5vtBs3b75kWchN/AqYV/aAB8nQIYOtcePGbpM9XHMI1kEWTen9JdGeSWiKgxaNZ6GJZtC0Zlq7dr3NnjvX9iP4N/8O6tZEVT05OQmBvzs5Yac2XEwo9AQtZOu5zc2dP9/F+PH7W6+//hrqlOzqxKDatC7hbmEQ4cvvsfn5gi408fxv4sZIq7Tf/+E/7OSpU74yaARhHmvfYdp6xvah+1xrBJXOS6Y8CU3BWpdj3XlkhZs7d76zMtgLwdNP4aSNVgU9e3S3H3zwvjVr2tQt/LjjuA8COE3bKYhzvPJTvN8dj4QJ773ztktDTKvLSI9PnDxKaPLTUqF9VkJTLAtNJ5FIZKVNRZzAq0gh7qfwemRQ7n/7199ZN7jil4Slak7l9JkzLp7k8uXLkbn3qG8LSv42Y1yOGf0W4vv1cCnUOb/Kr8JYTLdu3XZZYik08R7uNz4T6yqhKb9azN9xJDSl84ploYm15L2aGZCZbOSriZNgGJDmccLXWegx0g3W1n1690aYBlhbQ3SiKB2uOYSEJoc5Yf+T0BQHTRuvQhMnDRSVDiDI3HLEFVmJGEh0L/Hrg88m4oDGHX/uunXp0tkFPm7VsoWz5MiLqu4JTazbvHkQmjDABikUlhjMdzSyRjFAHsUwLubyoxR0oYn9jEHAGVCUE9bLl68UGGsmr39xgdC6VUvr06evDR86+IXblfe+n0cJTX5opX+W1yEzw5EfLY8Yh45jnTdZS/9k9s84lnXs0B7WaW+7RwqGHEPXrF1rs2bPdXGg/GabYxDwhg0bILPkW+gbQ/JNBOd5S2jKvq2DviOhSUIT+w4XhrRCYPKSrXA7o5W438LsuYzbNhhx4Xr26OHmU/ll1cT67j9w0IUsYBIFhjDwM1Z65yqhySMRW48SmtLbI9aFJtaU82haYc+CGyvd8+may/URxwhupDMuU8cOHawmYj1yLRYukYnHltBEColbJDTFQdvGq9B09949xGU65TKAbUJcJu7EczIRpFC0qYTgle0wKeo/oJ91SU11u/95nRTxZsgJ2xpkbpkxa5YdwMSHC0a/hYMuF4UtWjTHYm4oYqH0hQtd/sQ8KOhCE68PZvyaD/9y3iC5uC1opXDhQlanTl3rnNrJfvjRh0hjXz2wa5SEpmC9h5MlBte8BKFz0jeTnVVDkFhKjRo2dK64DOzOdryO+CvMosgYclcwVjEelJ9SsWIFGz5sKETIPtYG1m5BYtn5OZ73WQlNHonwPkpoktDEHsX73IGDB23hosUumDatg/yWIkUKW/nyFeAOM8jeGjkSrrtpSQjCuYjMqk4U4K9cuWq0Il+NGFN79uz1HWPK+10JTR6J2HqU0JTeHvEgNLG2jx49dh4B83BdLlq0xO7cvWPJSfUQ+Luzs5hPqlcvIhtVEprS+0oiPpPQFAetGq9C0779B+BCssplYjqNQODMOhdExOEuP0Wcxo0a2siRI6x9u3YuK1M4mo71eYDU5Nt37LDp02falm3bkHHuXiCrK4phTP3JAOUUmxo2qO/iNUV60lbQhSa6Fs3ELszUqdPcTZJ/F7TCPkbzZrpb/eyn//TChz5I35PQFLz3eOPJNIwlU6ZOda50HL/9lOrVq7mdwyGDh1iDBil29tw5WFsucItJv9ZM6BZWo0YN+/nPfmqdYGlZE8/zKs6Hei4SmkIl5e9zEpokNLHHcNOOYwOFphkzZrogvn7nV7w/cN7SFolVuDnWu1cvq1atGl4r5K9T+vg0xwUGHN6P+SHHSFq8X79+PdDckIeV0OQDfj5+VEJTOux4EZo4fnD+vBXroI2btiA4/w0ITUnWDmuu+ikpxoQlefEgSSfy8jMJTS/zSLS/JDTFQYvGm9DEG8yNGzeN2UQWLFhgR48dt/sQb/zuxLNpOBFi3JL69ZntoLMLaFurZk2jO0i4CgfXEydP2rJlcO/D7tqxY8cCBaVkXbmI42K/O4LmMWYOg22yrkEW/KGeH+vPCecf//RnZG7ZZhcQONjPhLN8+fJwqxllo0eNdDEiaBYbD4U3J5r70uLjm8lTbRriYtB1ia8VxEJLlTp1arv09R0hKjBWWJB+J6Epb72H4/VqpBynFRKzWPq1sGNgd2Z0oRVSQ1g30Z13BVyP2S4Uxf0UJiag4P2rX/3SjUucKAbpE36O6X02r0KTs2KtVMkFIJ0wbhyCmDf1fjoij7TA3bx5iy2FK9J6uCRx8Rtq4eS7HIReWrSOR12Z3S9SRUKTv3bh/a1Txw64noZBSOkZqWZxCzQG6M6vGE20Crp+/YYLSTBt+nQ3h/E7PhAGx4MqVSpb86bN7C3MA1o0b+4C/0ZCbOK8hOPjjp27XL1XIpA5RSfOGYMWCU1ByUX2exKa0vnGi9DEGvMapZcH403ynlgZ9+A6mEuWxjosUptUEprS+0oiPpPQFAetGk9CEwcpLvY3b9mCxdFKqOKbEfDxViALIU6AuHjmLvyAAf3d5J3qeiQCbd9BHJTDR464eAesN2NJBZ380PqqfkqyvfvOO4h/0MaqIOBmJN1VyLwgCk0873uI83Do0CGbNn2G29mlyMSbVkEsXOwyuOswZAXpi4Uug4IH2X2S0JS33sMF4FGI1evWb7CJX09ykzb21VCLJ7AMgGUkxztmwty+fbsTkOmaF2ph29erW9c6depoH7z3rnOLieQ4lLleeRWaOKmlMMbAyO+j/q1atsx8iLD+LaEpe5y8FzL2HTPHTpsxw1mjZP/prN9hv/745z+zX+BfqAsW9iHGKGMQ/IWI47Nz527fAmCiCk1kQ2GJog1dXbYhThM3mYIUxvjjvYMZL3t06wbBtNmL7LnhEqY5BnIue+3adbi5L0DGvPmo74XA4RS885TQ5JGIrUcJTentEU9CE2vNeQavVc6ni2LjuQSSzQSZS6YTyPkZxzJlncuZUTy/K6EpDlovnoQm7gIfgmCzcCEnhTudABJUsOHEtGrVqs7lYyCCVbZv1zZiAx4H1JsQxCiQ0Td5D7Iv+M0ak7Er0YWOmVy44O/Yvn2eg5Zn/O3Mzwuq0OTFeaAV2iK4D2zZujUzmgL1NxcEtIZp2aIFgtKPsoH9+4e8oMsISkJTRhr+n3PSRBe3fciw+Yf/+C87dvy4bwtJWnFSKKyE3cTj+P6p06fdb/gRrLiY79I51VmBMtAv0xOHa9EYChVyyEswcE5smXmLyR8Yd6xtmzahHDbwZyQ0ZY9OQlP2bLx36HKSnxZNPO6TJ99ibDhlK1ausiVLltpBbLoELbS8rocYLHSx5bhBS0iKOBSh8jpucNyiYHju/HnbunWbi4m5Axaa3z39zpf1dVbnJqEpKyrRf01CU3obxJvQlF7z/HkmoSl/OEfrKBKaokXex3HjQWjiQEGxZteu3c4keg12Pi9gUvEoYCYRikwVKpR3i+ZBAwdaK2TUykuA49xws/6PoeCfQ8ByWmGtgEk3YwgwmO8zH9YI3nE4OauCDHl0oRgKCxMviF4kdgUKqtDE/nYSwea/mTzFNm7c5FwHPP5+HovCao6TbO7csH0Q1iYq5Xv73ln+cWeH8Tf8iApehV2/w870O+9MMLob0fovVOsB7zckNHkkgj9yks3045/8+S/GBRWzufhpT1oeVYPIzn557fo1CDZ33fc5ToVSuDAsjl3IEcOH2fixYywJWWMo2uR1wRjKsb3PsK55EZpY16JFi1hqp072ox9+ZB0g2LvrE69Hokhoyp6qhKbs2XjvRENo4j3wxs2btg0Wj7OQLGDzlq3OEtvPWOPVn9cW3eY5V6H1YBvEbUpOToLrTGW3gVGsmH/BiZtBnL+yjkwMs2fvPudWfAZjI8eGUMczr45ZPUpoyopK9F+T0JTeBhKa0llk9YzjgCyasiKTGK9JaIqDdgyH0MQd4X59ejvxIxLuE5zwcMdqLrMjzZz1IsNckIkEFxgMbNy8eTPr2b07YnR0t6rVqlrxCMcO4uSMk8XjJ044tz9mMmPsJr7mt/AcyLlNawTZRKym7nD/qI4gm5Fgz3qfO3fe/vjJn1+42PiZaMZrjCZeF0yP/If/+E88HnATV7/txM/T0oPxjGg9Uqw4xKYILWRzq9uzZwhM//CBnTl9xu388vz8Fm+xMGb0W/b2hPHGeGYUHPwIDBKa/FJ/9fMc9xh7hIu/latWw/1tny/3YfZBLvrYnozJw/HVT+E4Q6Ge7rvvvj0hLBk6/RyfnyUDLia3bd9hs+fMcVYXfs+D598O7scf/uADZFRMdcIpX4tEkdCUPVUJTdmz8d6JhtDEa4xuLnTVZVZKjjV5cfvnudCasiLuibVr17ImTZpYS8RsatSokTF7JccV3kteew0bMtR7+dwDgEfWx/tHkYkbJswut2v3btuxa6ft33fAufeRlZ85SoZDvPJUQtMrSGLiBQlN6c0goSmdRVbPOGZIaMqKTGK8JqEpDtoxr0ITg7nRwqEbfO8rVajosoyE87SfP3/mgsYdPnzYxThas3ZdYL97LiK4i5+cnGR9e/e2Hj26uzglXCznV2GaYLrOLUOspjVr1rhg034XSF5daZVAwWwQXP8aNWyE7HmlsXgMb0aX598/t4sXLtrnX31lu3fvsUuwnuDAHWqJR6GJk1jGeqC73B//9IkTNoO2UYMGDVzA4QZwFXAWQGFun1Db4RmuI7pcbYJFHYMSM9YZz9Nv4TXUp3cvGzliuLMCoRunhKaXKVLEYaD+IbA2HD1qFDItVX35A3n8i9cfs1fuxQ7+dAjvS5YsCZy+229V2NbOhbJlC6PgOGjAAF/t7/d42X2eDO4jhhrF4OmI67Ng4SLfghl/u0njxghSPNLo/kexnlZ7kSgSmrKnKqEpezbeO9EQmrxjU1zivGsJAtkzgy6vu7wUbx5WExsVjZGQoBEy/jJ7JUUd3k8YGJjWhkWKFMW/wu5Q7COeNe79B/ft5s1bSApzw22aHMAYcPTYUbt48VJeqpXldyU0ZYkl6i9KaEpvAglN6SyyeiahKSsqifOahKY4aMu8Ck3lyr2BhWdvl7WnTJnwp6d8RvNtTCi2wPf+KDIkXb5yJdACmQskCkoM/p2a2sm5nbVAvJlIB6LL3AW4Q3j16jUXr2kugmwePnwEk6abmT8W0t9cFFWqWNEF5G1Qv4GVL/+mFYJbYDgLB2nyX7Z8hZ08ecJN8PhaqCUehSbulNKKiTu4c+bMdfG0/Jwz2bC/sX0Yk2LsmLesebNmVhwiJyfZUSlos9u376Adl7tFuReXx29deF4UNxkj7K2RI126aj/nJIsmv8Sz/jwn2hQOv5z4tX096Ru3+AvXLn7WR0x7lW1NN+PRiNNFcaYprBLYJ/K78Hrkvev8+Qv21ddf29Rp0wMlWOC5dEbMGAYqbg0Xalq7+nUHDeXcJTRlT0lCU/ZsvHfShKYTyDq3Cn19mu8Yj7xGa0H8/rd//Z0LgE9X11ALXfxPnDxlqxCvcN48Btm+6CydQv1+Vp/jNcb7Y+nSpa08BKbKlSu5mJkUnDin4YZgiRIlMT9DllrUnXXgeEfL9muI1XkeoRMuXbqMjbrr9vDBQ3sIKyY/yQyyqlNWr0loyopK9F8Lp9A0ftwYaw3vgDchckZi7I80LQlNORPmXEEWTTkziud3JTTFQevlVWjiZKFmzRqYLJRPc90K86Lje1hicJDg5Ia7+LzB+F30sxlolk3z7LZt2tpAZJljXKaqiHOU34V1p5Bx+sxZ7BKutWXLlrvAvkEXieTP8+CEKCJCBuuLBd0FpCOlqwr7i58Sj0IT+9mq1WtswaJFtg0CJxeJfgv7GzMC9u7Vyy3KmVKescGisSj36n7v3n1YNG2y+QsXunT23Kn2W1j/SpUqumDS/4y09sxcxvMKtUhoCpVUzp/jOEKLtCkQWL5G9jkGwuW4EmRszPlIL7/Ltk5BTKZffPwz57rLWHHRKrQypHj6908/sy9gcRlkoUkrQ7rx9OrZ020+0M2Vi1/283BeqxKasu8lEpqyZ+O9E02hieMM7/10UZs9Z57thkU2U5SHY6zhNcZ7JYWlMrjuaC1ZslRJ91qRwkWs8D8smp5i3seYnI8fP8F88AHqc9fu477MuUkkSyILTSOGD7f333/XWXJGkqHf3/bGXe8xq++HS2jq3r2bjRtDoalVzAlNPP+cGHhcJDR5JLJ+5DgloSlrNonwqoSmOGjFvApNcXCKzoqEsXJoVcIFRdeunZ0IQJEmGoWiEgc+xj6YM3eus5xhRj3ePBOtxJvQxJvSdVhwzZgxy2Yh9gt3Tv2Ka2xDLmCbNW1q/fv3RfyyvnANqB71puVi5QisApfDbZMCJ2OEBSl0Z0hJTrH//t/+V1g3NXeuDqFMiHgsCU1BiGf/ndVwaZk3b55tQMB6WkYGFayzP0L6O7RmosUPMw/+6pcfG8VTLhCjVXiuzIz16edf2Geff+42IoK4g/IcmjVr6iy0uAFRr05dnGdZZ3ERar/OjYGEpuwJSWjKno33TjSFJtaBbcTNvvXrN9hS3DsoOvG+GMnxxjv3aD4motBEq52yZctY/379bcxboxBbtXI0EWc49muwKHrdjbsckzk/z85aOhxCEw/cqWMH5+LevGmzf1izRsniPAMFPn0dbVQSFn0lS5ZwVlY53YckNGWCl+lPCU2ZgCTYnxKa4qBBOVngpOG//viJHTx40O7ANDmRCm9UDEDJWByDBw1C0NdOLmh5cQZmjpIbEwc+TtAoaGzdts1WwUWLsXNu3roVyC0wltuLAh9juYzGhIZui9ES90JhxHahVcTZc+fsK7gkzZo9J/BkmgtyupfReo5B2ym4Rbu4yRl2otchED2Du+7bvz/QQoGTHrblT37yY+cayHhEoZqcU2j64ssvnTDy4MEDX/2dO999kXSAO7Ht27V1u985TcCC8iYnZnVjSu/lSO29H5z8lEjHaMpYF7pAbkLMra++mohU5KcDxSnK+Hs5PWcGRQbu7YFd4DGjR8PVpUrI7Z7T7wZ9zxtHp06fYZO+mWyncf5BrLrYd3mPqFO7NixdWzkXOmbHols429JZIuJekRaaOG3sfo6xojC+R3dsfia3IqEpe0K83i5fvmJrkU12GuJtMSOr38I2+vjnP7Nf4F+oYxH7D12x1q1fbwsXL7adO3cbN3xCLZw/cFznYnX4sGGwXu0Z6ld9fy7aQhNZeZbYi8BqBTYraEXJevG9RC2JKDSx33Lcao2xjvNhxsWKjfIaNi6Ku0QTtCytDItw3vOzKuESmuqnpFhbJITg8XgPiNaaIPM5sn3q1avr7km0sM1pTJPQlJney39zfJJF08tMEukvCU1x0JpcWDMezd8//RzBnne7bEZxUO2Qq8gBu06d2sjM1s0G9O9njbFQotgRiQVqyJX6xweZ8YmBtjdt3gyT9LkuIx0nvolU6Gb19oQJTmyiK1lON8xonzfFP8aBYBavKVOnubhUQevELHPjxo6G0DTATWKiafnhnQPPj7EumKmLC3MGO+fiIciudEXE0Rg2dIgTfjhhDVVAlNDktUZ4HinWHUKihH//H/+fC4wdRGgJtSbsw7QIHTZ0sHXs0MEJfaF+N1Kf4yRyxapVNnv2XCfa3759C/052MKXVohMsFCzZg0Xe4xugXS3LlumDPp3MTd2UWB68uSxPXv6zLnYJSXVc9d3bucnoSl7QhKasmfjvRNtocmrB93KdyEpCBOZMEA4Y2ZyzEnUkohCE+e+nIdxblYNCRCKYWyLlULXyXr16rpMyvRAyG7eFC6hqRw2BBkfrAyOS1ErbTMhyjQQ8vCNsm+4ZEVdIARyLpmd4MaaSmjKub0kNOXMJ97fldAUBy3IAfv48RNuJ3Ej3C+OnzgRB7UOrYrcaeZioWOH9i5TFl0+OGjHUqHQR3emOXPnGfnTnSmI+0csnZNXF+4yV69ezd579x0bNWKEiyPlvReLj98h5gtd5bhbyww7tPQLUii60Mrnww8/gNtcH3fesbJTxvM5eOiQE9IYh+ratWuBXDYZT4NuRrQuooCb3YQwMz8JTZmJ5P3vc+fO2//8/R9sC6wj2Z6RGD/Yf2mlN3bMaPePGdpCseTJ+9nl/gvM4rkClmdz4ELIAMFBhNPMR+G5cUfdxb9DkoUSxUvAsqmQs97g7iiPwWyCDIjerWuXzF9/5W8JTa8gefGChKYXKLJ9EitCE8eW24jXRCvPuQgMvmfPXudSx3hpiWjZlIhCU7adLAbeYEIbJpigxWz3bl2RSblMlrUKl9CU5Y9H+UUKgfQEGDd2DOZXw5z1eE73WglNOTeYhKac+cT7uxKa4qAFOUFgWtiV2BX20tfG+4SBOZDo48yMQu3bt3M7A61atrSKGLxDtbzIr6bjxI2BNvfu22/zFyx0u4T37t2NqAtMfp0bd4voakPXOboVcLcqlgt3Zg/AfXTylKnO6oeiU5BSGWJmy5YtsCAfYx3Q/2iSHQsWdN650DVwxcq0OE1MD08rJ7+FO2wVKpS3CRPG23tv/dr70gAALKpJREFUv+1EiFDOUUKTX9K5f55ZIRcsXIzYW8vh/rMr7AFy2a60DK0N17J33p6AbIMjnMgUK+Lp2bNnnTXTZ198aadOnQ4UFDwzZZ4b7xWc4DMmWaHXC7lrmLZSFJmK4/Xk5CQbhcyLQwYPyvz1V/6W0PQKkhcvSGh6gSLbJ7EiNHFuyPaim/8hbFhQ4N2wYSMywV1z8dJibe5YCNfxa/jHeVaQukloyrZLRuQNCU1pGYslNIWve/G6l+tc+HjG2i9JaIq1FsmiPpw0012LC87pM2Yi0OMyN5EIclPO4uej8hLNgunuQIuLgQMHODcPum3lZH4alYrioORMsY8pe9esQRa65SucJQ1N1OO90KqnS5dUGzRwoFHoo2tKrBZeBxT8tiDL3N8+/dSOHTtudEsKUurXT3GWDnSba9SwQcxYfnjnwthgFCQYl2Qt3B+CuGtSfKDF2tgxb9kH770Hd6Oa7jxzE5skNHmtEL5HLkKPor/OnDXLWRmEe+xwbhZwlezcORVuc0NDsuAJ39nl/ks8X1qF/vWvf7c9e/e6RTCv50gV9nGKxw0b1LcJ48dDbBqR66EkNGWPSEJT9my8d2JFaGJ9OGehcHMLYtNOWP0y5t9GZDO9epVi05NAgo53nuF85HXKeSCz8dIlntbjfue1EprC2SK5/5aEJglNufcSf5/gNS+hyR+zePq0hKY4aS1OGq5evW7fTJkMsWkWJhA3A7nTxMLpcieabjwM5tq7d08XAJwp2GO9MHvSaQSzXb9xo02bPt3oDhMk21msnCcXpy2aN0OQVC5MuyLrWo2YFPo8XlzsXERWndUQ+yg00QUnaGGg6pFYfHZOTUXA5KpWBIJMLBUKaHTRpAXdvPnz7caN4NnK+vXt48zcW0PUZVDR3KxcJDSFvydQVOH4MWnyZPv0s8+d+1w4hRYK9PVTkp31WmqnTlavbt3wn0Qef/HK1atwB50KsX6dHT5yJNCiMtQqSGjKnhTZ1KpV0373298iYH87Z/WY25ggoSl7nt47sSQ0eXXiGEM3ukOHDrtNSloDX/lHzCbOKaNZOP9gEOVa2AChyy/j2FFs8jsuSmjK31aU0CShKdw9TkJTuInG1u9JaIqt9si2NrwQ792777K+LFq0OC2oKiYQfnd/sj1Avr3xmksHyoxYPXp0d1m/GjZo4CYa+VaFgAfiBOj+/fuwTDiGxf8C2wrLGooBfidGAQ8f1q/R0oVuct3gYz8O7mPNkTqcrje5LTjCWgmfP/bgwUMXu2j5ihU2B4HZafUTpHCC26d3L2flw5TptOKKtfPmIuDatetwlV1qU6dNtzNwPQoa0LV161YuDtUAZNejqyrbPqcioSknOsHe4zjNANgLFi6E2+cUO3z4iN2HmBiOsYPCAa9dBmb96U//yZo3bRoTGRQzk3rorLqO2QKIp4sWL4F4esNZikbiHiahKTP99L8lNKWzCOezWBSaeG3RGvv2nbt2EnOVbdu32zbEiaPQe/fuPVg9PXXjUjg55PZb7H+8B1GwaNumjaUgqxjdXucifhvvc6yvnyKhyQ+tvH9WQpOEprz3opd/geOULJpeZpJIf0loiqPW5K4i41ts3rIFFjUz3E05SOyWaJ0yJxiFChXGbnsd64Rdd6aWb9qksROZclv8RqvOmY/LhSGtS7bv2GGLIQKsX7/BuW/5nRxl/t38/JtCCwM4MvB6HwTC7gnBr3q1qvlZhUDHYswJupEtRkp7ZmML4n7EfkarnkGDBtq7iGVDyw/yiMVCUXPTps02Y+Ys525E180gpUaN6m5C/8H778FNsGGu7nMSmoJQDu07O+AOSfFwOYLZ0zovHOMG+3TVqlWQwr2jffThD1yGtZwCk4ZW0/B/iuLpI8RYY8yYeQhSzMyRQSwYQqmZhKbsKUloyp5NXt6JRaHJOx/OW2h9zUQye+G6SsGJrucXL12yR4+QoRHXZiQEX+/43iM3dIoUKYoxqrbb3EqFq2+F8uWdS9/niN/GTTy/Y6KEJo9u/jxKaJLQFO6eJqEp3ERj6/ckNMVWe+RaG96ET548ZX/9+6e2Y+cOFyQ8vyYJuVYulw8ULlzE+eN3697VZUVqhp33knChizVrklxOw03Kbt68afPo1oQF0ym401HwC4d1Qm7Hzuv7ZE0Lnjq169jo0aOc2Mesf0XhehPLhTciTopnIEbZ/IWL7MKFC4HcFnnuDRGTiTGphkBs4rnHaqEFE+PaMCbbSizOjx0Plm2yaNEizk311//8K+cqQ0u2nK45CU2R6xFXkXGOmRL//unnduDAgUB9OHPt2KfpFtmnT28EvR7sFm6ZPxNLf7NPU6Cfv2CBu5fR0inci1wJTdm3uISm7Nnk5Z1YFpq88+J1xlhkuzEGrUeAcFplX7121W2WffvtdxETnF57jYH7izjLyzffLId5R09kQu3v4iMy7iLvOX//9DMJTV5DxfCjhCYJTeHunhyXZNEUbqqx83sSmmKnLUKqiZsowOSZ/uzMQrcWQR4vYWecO8V8j/9irXBiyxgiFStURODpztYTlkytYE1TsWKFmLUmyYkhGTPeygnsDm6jZRPcQE6eOuV252O5DbyYCHSx6datm6V26mAMBs54WTkJDzmxyI/30ng/cTuwEydNchZNnNQHEfaYZa9Hj27Wv18/F4Ce1k2xWryYVOuwKJ89dy4WB3sCVZVtS5e5H//oh9YFO8i5xeKS0BQIc0hfolUB3W3/8B//5dyfabUWpB9nPBgXbly0DR0y2Jrh2i6NINixXGiJeA7ZIleuWm0bEO/u4MFDTqgP571LQlP2PUBCU/Zs8vJOPAhNPD9uVtKS8Dossy9eugg33sPOJf3o0WMudhwtnLwxKeh8hn3M+0eLy1IlS8FFLsmaNm2CMaq5JSfVcynhS5cuA2umKy6DrISmvPS+/PuuhCYJTeHubRxnJDSFm2rs/J6Epthpi5Br8uzZcxevZfeePc6Nbh9cEM6eO2/X4VrDhQwtnGKlOHEDCx8ubjnJ6ImdLAagrlihQkwHns6NX9rA+NAuQOTjzuAetMUxmH1fu37D7Q5SJAjnwim3+uT2Pl3lmNWvfv361r59O+vQvr0LCFsixuMy8bzYn7nruWvXbpuE+DbM/Be0VKpUycaNHWN94TKYkpzkRLagvxXp7/G870GI2Llrl30zeYpLUR20X1HUZTayvr17W4sWzXM8bwlNkW3Zy5ev2GdffOGCYp89d9YFxQ5yRC7kOL5Wq1bNxo8bayOGD4ubcZUWoLRsoojKjFiMH8O+7i1wg/DI+B2yUda5jETSn5ONgoGn8wjXs3gRmjKeL61mT5854+Yux0+ctPMQgDmPvHXrtst0yjhyFJ7S7jvPc53TcFOjaNGiLg5nmTJl7Y2yZYyubVWqVLUGyADZuFFDJC1IsTKwqvUScNCFeNv2HbJoytgwMfxcQpOEpnB3TwlN4SYaW78noSm22sNXbXhxcmfKTdYxYd+xc+cLsel7+ORH07bJ281ikFpOanv26IFd936WhOxyzoIGk91EKVwcMeYBd+i3Y8J0/sIFN0mLtksj24CFk7+6iEVEcWnwoAHWuHFjK4NsL7FsxZSxb3CSe+HCRVu7fr1zt9mJODdBCnnQsueXv/zYekPwDCUDW5DjhPs7jFvx5VcT4UK33AluQYRkWrm0hHsVXasG9OubY/B9CU3hbsGXf4+i6dp16xCraZlLOc6gvEEK+zPHUorHH/7gfRs2ZEiQn4nqd5gFi5a57NuMP8iNknAI9GQjoSnrpiUbCU1Zs8nLq/EoNGU832+//RYZ6a460ekgrJxOnDiOOKDn7PLlqy4e4tOnuW+eFSmSFgOxGjK5Jicnu38NITA1RGxA3m+zctGX0JSxFWL/uYQmCU3h7qUSmsJNNLZ+T0JTbLWH79pwcsAgwdeuXrNLly87Fy5vV+rx4yduhxgOdb5/Ny9fKIJYTExXy8lsndq1rVKlii6FfHXsvJeCwMFd+MSRmcwtjBiommmDGbuJk7PTp89ggnYJWeoe2LfffRuWxZPfNildqjTYV7J69eq6FMK0fKhRvZrLNkdzdi444qFw13X//gM2a84c27x5iwuCH6TelStXcgHQ333nHcS0aeV2XeOBAeNRMQA6hQlmCwqSAICuqzz/ESOG24SxY11sKgqNWZ2/hKYgvSv07zzBmH0RwulsZE6cOn26c1cJ/dvpn0wLAl7VuqSm2rBhQxEMvEP6m3Hy7M7du3D9vuTuW4wbQ+u9Uxg76VIYRFD1Tpv9WkKTR+PlR7KR0PQyk3D8Fe9CEzfMeK+layuvS16DzPTKsAw8N75+F69z4ydjeR39qQismCh6l8b8jpsapUvzX2m3oUVrav6jpVNWm1sSmjLSjP3nEpokNIW7l0poCjfR2Po9CU2x1R6BasMJAi9UCkvnL5y3SwiafB0uXJw0PPvHe4F+OOCX3K7WG+XcZLZmzZpuwl8Y4lJ2C9uAh4mpr5H/c/zj4zUE/L1w/oJdhvB07/49uMbkvhMYiZMpU6Y04mBVtKS69exNZHYpXqxomsiHiWG8FPZtTm43btpkE7/+5h9pme8Gqn7jRo1cEFJaddGyjhPfeCg3IF4yJTWFJlrC3EGqar+F1x6DsTII+tsTJlgDWMGULJl1bK4dCMz6xZdfufg5dJ3ws+CnoNUXQalHDB+OwONtnaiZlZjlt/6ZP8/FDl0+lkCAW45A6fv378/8kRz/Ll6sGManWjYEcY1GvzXKuAOfX+X58++duxzTeZMzkwmkuab42xBgZrmGDRrYyJEjrCti3yXVq5dfpxC243C8fPr0mT14+MBZUjAr31G41F2E+EQXHl77DBbODRWOBaEW9jkueOmuM2HCeBs1YkSuX2WQZArZS3GdrUfsKB4/1FII1xc3V+iWOn78OOsH19xIFQqVtPBcsHChTfpmsm+hkmwYm+9ffvsblxygQoXyWQoAGevP/kmXT44/02bMcMJ/xvdze85jcoPp45//zH6Bf3weSmH/YB9YB2vWhYsX286du321C8e98rj3UYQdPmyY9e7VM5TDBvpMvAtNPGny9h75nH9+//1z+w5xnXgvuIe2+DYroQmZ5Cg0lcI9pSjGJbeRhR9iu3v/3A9n8R83Rrdu226fffa5HUPcSz9Z5/jbFRCGYSTuNz/86AfYTKmcxRHy/yWOWRTNJ06c5LL8MQlEohQJTWn9muE/xmHTbvjwoS7eWE6ZXs+cOWt//OQTl0E4SD9o2qQJkn30crEYmSk5XuauoZ4rx5qwxWjqjhis8J5p1bIlxqOSoVZBn4sgAQlNEYSb3z/Ni5WTcS4MnfjECnCmkM/Fm1hwMumslzAZKEjlpTYAf2/ylt8M2A6caHvWS/w73goXOLQUW7Z8hX0B97HLsNoLyjO1UycbOWKYdUQaeFp6UfyMh/IAE3wuvpcg+9ycufOd1VzQepPBsKFDEAi+o5uUs29kLnTB/fLLiU7c4+LCzwKfQhMXc1zU5YvQBFGArlcHDhzMfBo5/s1JYS2I4EOGDLJRI0fmq9DEirEPr1y9xqZMmWqMtUd3Oj+CHn+DC7uOHTrYT3/yY2RvauisBvh6PBby4AKTi3Uuyg4dOuxcwRmo+AJEJ7qI060uraQtgDOfZ/rwlra4pVUFBVUKP1yI5lac0LRlqy3DdbZx4yYES76R21devM9x1glNzZvZOMTLYiy0SBWKbowNuADZNycjdhstmv0WCk2/+c2v04QmCDGsf07FG4fXrF2PxdJMo8uj38Kx5mc//Yl9/LOf+hSa7iEO4npbhKQbOxGn74bPdmGMoI4d2mNMGuo2GvzWO9TPpwlNJ20FxqNp02CpGKBdaGn2r7/7F+vWtavLyBvqsSP9OV6fL/5lOpg3q/DmfX7nGbT+3rR5s3319SQXq82P0FS4cCGrXKmyi0/3/vvv4XmlTLWLzp8UmnZBaPp60mQnNAXpC9Gpee5HZfKJJhA+uEHTHf2U1mpZFY4Zly5dxrWLDKMYq3YgcU4iFQpNY8eOxnxqmNWsWcOK5bBxeebsWfvTJ3+2WbPnBELQBOEueveG0IQkNnXr1klIoYnj57Fjx23y1GnGTTg/44AHtSZiAXfr1tUl+2nVsoXLsO29p8foEZDQFD32OrIIiEAuBChy0FXs7LlzsGY66haiuXwl27dptZJUr64TWIpjkU6T/3govOFyoX3u3HnnYvT4xYLbf+0ZEJ4TlaoIzpqdRRMX+kfAmqLedy4uR+jH4YKVN/u6dcEZk/5isKKLRGG/oCsH+wVdC2/cvOXrMBTAy0CIqFO7Dqzb6kVlQsIg2NNmzERq7x1u8exHaOKOJq1FeyKD4jtvv52WSTAL0dAXlBj4MNuVlrh0Qb5y9Soeb7l07GnuPHecRQXdeSg60VKUixkWCpy02Et7LAZLOgYhLucEZU7SGYA4t0JLDYra59CnaL1Dl6FQCxfXXGjQOiglOcUtPEL9rt/PsZ9QfOYu+bHjx33V0zsW+35L7PjSAoTWfbmJA944fBHW0icRNPoGXMX9Fo63zZo1tWZNm+Z6vIy/TWGNxz0Ll3Qu2Nk/Qi0c4YsVL4ZEGFWcCzlj9EWqcJym9dV5WDMfh2WOn/7j1YnuZm0QS49u7lltAnifS6TH/QcO2KrVq23OnHkuG6WfcZAbBrUhztF1eNyYMc6COxbYsC/QIvLI0WNubA/SF2LhPLKqA+/p5SHeJiclW3WEYuCYm1XhmPEAczeKTWdgfcx5RSKVEhhXGIeMcx1az+ZkpXnv3n1jP2d26iCFvDmvohBdFoH0c9sYCHKMaH+H1ww33Cg20cqbHiJ+C9uBIVporV6xYoUCM4b65ZTfn5fQlN/EdTwREAFfBDhh4eSTi8ogNx/vYLRg4uQ93qzsuJP8ggFuxvw7aCn0ejqD11/PWmjzWHsTfj9H4y+Sb35wJhNOTlhPugj7Kazna7T2K1QYE+X8jVfG9mNfZvKAaYjRtHfffrdA9XiHch6cbLZu3cr69+1r/fr2cZmdchMLQvndWPgM+ZCF1+ef4jnFVbrt3MZElLFjHmP384knNOHzFN64ACoCFx4KJ2XfQMYruLIVQzIKms8zu2ZuxTsuj81j+rnO3JUEIYUudIURo5CWFpEsXt+nS5Ofenp1ouhDZn7GwhftwWvO5/XG45JRmhDoT3z22sVd6ziun/NNbxeMSbjOI23F6rUL6xrkXhWkXbw2DfWR/FhPLn55LXEsolUKhdmcFsuh/r7fz23ctNm5ga5Zuw6xRq/66lu0WkzBYn8oEiHQYo1ukrFSOI64OQtYB+kLsXIemevB+0zaOJf7XCqvY0bmY8fS37xWOc/hv9yEH3JgX+B4HaSQtzevyu1YQX4/Fr7DcYn/yInjp595p1d/tklGTokyJ/LOL14fJTTFa8up3iIgAiIgAnFHgJMoWujMnjsPcce+dhYQfkQmnjAt0wYM6I+YWwOcG0MixyLghJNZVL1Fi4s7iL+9iSl5cEKZ/o+T8rSJefprTnLgR1VEoEAT4HXk3FSOn4DFzVFnLcsYMO3atjFmCc7PwmuYLpFT4Wq4D3H2OC6yfqGWchCTm8JCbsjgQXCX6esy24X6XX1OBERABEQg8gQkNEWesY4gAiIgAiIgAo4AM1Hu3rPbFi5a7GKP3fLhhkThhFYhDGY/fuwYF/SyAnbxuauqIgIiIAKZCVDMoasp3VCvXrvqshOfPnXGZW+9hMy4jx4+cjGhmCSjBtxz6I7GcSbShYIS3eIpMjGoPbMm002S9Q21VKlSxVIRc3EgRPeOHTtkGy8o1N/T50RABERABMJLQEJTeHnq10RABERABEQgSwK0XGIcoFmz59rqNWtcFkVaF4RaaKlTpnQZa4FAl+8ge2DPHt2dqXh+LAxDraM+JwIiEF0CHGcYy+oO3U1v30GcoOsuk+M5ZHhjvJzjx07YTQjcj588grXg95aa2skGDxpo7du3t0rIVJtd3J1wnhVFpqPHjrlMXPPmzXfxfPyITKxLnTp1kImrn3MfZkIEJkhQEQEREAERiB0CEppipy1UExEQAREQgQQmwMXVcQRw/tNf/mrbt+9wwS/9uIownlRVBLXvnJqKDIrDXdawBMalUxMBEfBJgOMJRSYGYd6JzGfMaskAuwxUzmxojzAGMZvos6eIg/Z9mpsasxC2a9fGpWtv3KiRS44QSfGaghKD/U9Bhqk1a9bawUOHAmWZatSooY0dM9plE2Syj/wQyHw2hz4uAiIgAgWagISmAt38OnkREAEREIH8IsCsM5sQ/HbKtGlOcGLmND+FMVSaN2+KlMpDndhUFzv6KiIgAgWbAF3OaKFEa8mLFy/h8SoeL9rJkyftJDI4XUEWxbQMomkBdzPTKomA+bVr17IhgwZZl86drX79lIhZB1EIo5vc3r377JvJU5xV523U3U/AbIpgDGbfqlUre++dt61rl85WChmnEjVQcub20t8iIAIiEC8EJDTFS0upniIgAiIgAnFJwAsAvmnzFsRlWm5bt21D+usbLrtaqCfEbCoVKlSw7t262fhxYywlJQVudKVD/bo+JwIikKAEGET7yNFjzoJp167ddvbcObt186bL1kjrJmZyysktjQJNWWSeY2Dtbt26QsTu5OI1lYQrGuO/hcu6ifWgILZz5y5bu26drV+/AePgdd/ZuFininDx6wLLzrGIVde6VUvnQpygzavTEgEREIG4JSChKW6bThUXAREQARGIBwJcCO7evceWr1jpFlhX4TbybS6Lv8znRVGpQYMGLrvSkMGDrVLlSi7NdObP6W8REIGCReAGRKWtW7fZylWrbcvWrU68oZWTn0IhuwzEJrqjdezQ3lI7dbKkevXsDWR243t5LbRkunXrtm3fscNWoZ4bNm2yGxCZOA76LbTAagZRrD/iMzFOnSw7/RLU50VABEQgfwhIaMofzjqKCIiACIhAASNAKwLGRjl58pTLMsdF4PETJ1x2Jb8omGGpO6wNuLhq37atlZY1k1+E+rwIJCQBjjH7Dxx0WSyXLFlq1xH820/sNw8KLZfefLMchJu61qZNa2vRvLnVT0l2ceHomsb3/Vg3cfyjezCDkjPDHePTbdm81Xbv3Wun4Eack5WVV6fMjxktOwcPHugEp/Jvvpn5Y/pbBERABEQgBghIaIqBRlAVREAEREAEYpMAMzjR5ePZs+cuBkjhwoXcDn9O8UD4+cdIKc7U4ScgLO2Aqwhd5s6cPWsPEIjXzwKLC7sicBVJwYKPsZl69+5ltWrWdDFKYpOYaiUCIpCfBDjeMC7TOriiTZk61RgLjokHghS6pdFiqHKlSs6CskWL5tYYVk6VK1c2utIxNhL/8XOZx0COaxwvn/5jzKTbHrPeMdvdwYMH7cCBA3YCojtjMj3Ce0EKBa96sLTq36+v9e3TB2NhjYjFkwpSP31HBERABEQgnYCEpnQWeiYCIiACIiACLxHggu3atetu4Va8RHF7o2xZZ02UXewSLrZuwpXlAoLynsSiavfu3W4H/zSC8vK3/IhMrAiFrTexY98OVkyjRo6AW0sHt7DKvMh7qdL6QwREoMAQ4JjCsWXvvv02e/YcFwOO4k7Q4sTtIkXszXLljJaUzHRZFY9VqlR2f1eqVBEudeWsWLGiLx2CItNDiOu0sLpx44YLSH4BQckvIxj5ZQQAv3btWlrGO3wuaKlevbpz7evfr5+1bdPG3igH1z7EmFIRAREQARGIPQISmmKvTVQjERABERCBGCHAYLX79h+w02fO2HMskBjHhP+KFSvmdvULFXrd7ew/f/493FVo/fTULajOnTvv3OToKnceiz4uwvyKTETATHNMOd6/f1+XxjslOTlGyKgaIiACsUKAVk0XL12yDRs22qLFS2BFuTPXIOC51Z2CEwXtokWKWtk3yloVxIWrUqWqVYK1E0UojoEZS5rQ9MC5ynHcTMuAd8WJS0yIEGT8836fdaG4z9hMQ4cOsW5du1jNGjVk2ekB0qMIiIAIxCABCU0x2CiqkgiIgAiIQGwQoGXAqtVrbCOC1144f8HFPimKnfxixYpbMedGUsQtgLjIYjySJ3CZo3vc/fv3nZUBn9ONLsgiiwurisg01wMBb0cMH2YNEQycwXlVREAERCAjAcZkojXRMcRBmr9gIQKDrzKXdABBwYOMPRl/m2ITxyK6zBWHuMTHIrB4ymxVyeNwHKSoxGDkdJ17gsegIrtXB8/CymWa69zZWXY2b9bUCV2Z6+B9R48iIAIiIALRJyChKfptoBqIgAiIgAjEKAFaMtFCYPnyFXb02FF79OixW2Bx4VW4UGErBNe2wsjKxIXed1hgPcM/xijh4iqvpRysBpo0aWyDBvS3Xr16OdGJx1URAREQgcwEGEfuFuIfbdu+3VauXGXrN250brzhGIsyHys//2YAcArsHZANr1/fvtapYwdYV1XOzyroWCIgAiIgAgEISGgKAE1fEQEREAERKBgEshKaeObIv8T/six5tSDgDj4XV8lJSVhY9YHI1NMa1K+voLdZ0taLIiACHgFaVV65esV27NhlM2fPtsOHDzuxyXs/Hh8puDdoUN+GDklzmaPIRKsqFREQAREQgdgmIKEptttHtRMBERABEYgigeyEpkhVyXMT4eKqfbt2NnLEMBf0ltmWKD6piIAIiEB2BChyP3r0yM6dO29r16+3tWvXIkj4PmeJSavLeCp0i6OrXuPGjeA+3MPFZUpCxrkSyH4nl7l4aknVVQREoKASkNBUUFte5y0CIiACIpArgfwWmugaR5GpebNmzpKJQW9r1ayZaz31AREQAREgAQpKjA13Cpku16/f4ASnQ4cOu9fiiRAFJVp1dsUY2BNx6uqn1EfGTwnu8dSGqqsIiEDBJiChqWC3v85eBERABEQgBwL5KTS99trr9uabaW4iTN9Nkal6tWqvZHfKobp6SwREQARcAHAG42Zw8C1bt9rSZcvt7JmzLiNcXoNzRxovrZVowVmzZg3r0b27de3SBZk3G1rZsmWNFp8qIiACIiAC8UFAQlN8tJNqKQIiIAIiEAUC+SE0eTGZSpYo6YJ/9+zZw1I7dbI6tWtZyZIl5SYShXbXIUUg3gnQsunevXt26fJl27//gMucuWPnTgQMv+2yY8ZakHAKTIULF4HIlDYOdk7tZO3atrU6depYOQQDVyKEeO+Rqr8IiEBBIyChqaC1uM5XBERABEQgZAL5ITRxAcXd+vopKda5cyosmbrCZUSxSEJuJH1QBEQgSwKM2fTdd9/ZjZs3bfuOnbZ582Y7dOiQXbhw0W4iQ11eExdkedCAL1JUr1SxojVo2MA6duhgHdu3s1q1JLYHxKmviYAIiEDUCUhoinoTqAIiIAIiIAKxSiCSQlNa4O/CSN1dzuohyG3f3r0tFbv4tWvVdJZMchOJ1V6heolAfBGg9dLt27ftzNmzLm7Tzl277eixY3b//n379ttvLVrudM6KCUkOSkBkqlG9ugv83bdPb1h2NrGKFSq47HIaB+Orr6m2IiACIuARkNDkkdCjCIiACIiACGQiEAmhiYsr/mOw22pVq1jTpk2tLVxEWjRvZjVr1HDxSZRhLlND6E8REIE8EfgWlk0MEn7lyhU7c+YMhKbjtmvXLuMYd+PGDQhO37lA4nS5i6SlE4UjT2AqCTe5ypUqW4sWLTAONrEG9VPgMlzb3kBChGJFiyomU55aXF8WAREQgegSkNAUXf46ugiIgAiIQAwTCLfQRAGJgW7pIsJgt/Xr17eW/1hkValcWTv4MdwXVDURSBQCjN108dJl2wmh6cjhw8hQd8auXbtmt2D1dPfuXeduR8Ep3IUiU0kI7HQVrgCLpRoYA5lZrk3r1paSkmxVq1RRLKZwQ9fviYAIiECUCEhoihJ4HVYEREAERCD2CZyFq8nS5Sts5cpVsAA4CouAhy/cTELZ9efCiv8oMPEfF1m1EeSbC6uOHTtYwwYN3IKrKHbvucvPz6qIgAiIQCQJPEfsJgpJT2HlxGDhx0+csH379rv4TSdPnbE7d247l7qnT5+6z3Gs82Pp5I17fPQsOPlYpEgRWHFWteTkJGvZsoWzZGoAsb1E8eJOYOJnVERABERABBKDgISmxGhHnYUIiIAIiEAECDCuyZGjx2zvvn12GDv/586dt6vY+b97957L3PT8+VO4mbx6YE8wKl68mNu9r16tmlVHDJJaiL+UhHhMteEeUhULrnJyEXkVnl4RARHINwKPHj2CsHTHuc/duHnLbiJw+JWrV+3ixYt26dIl93eapdM9e4zPPkW8p5wKxaJixYq5OHNlSpdyMejefLOcVapUyeoig1ylypWsQvkK+LuiVYRl5xvIKPe6BPackOo9ERABEYhLAhKa4rLZVGkREAEREIH8IMAd/btwM7nMuCZwL2EwXS6+mCL84cMH9vjxYwhO374U06RQ4UJWBJnkPDc5uojUqVPbpemuU6s2BKdqbhGm3fv8aEEdQwREwA8BZqmjG9258xcgrJ9zohNjOHHMe/ToobN0+u67NEunjL9Lcb1QoTSrpRIlSlrp0qUhIqW5yFWsWMEotqcgs2bZMmWcZVPG7+q5CIiACIhA4hGQ0JR4baozEgEREAERCCMBuowwKxP/PX36DC4kfHxqjyAy0RKAizIuzlhew25+acRgKotd+uLc1ceCi1ZNhSE88R/FJwpMEpnC2ED6KREQgbAR8Nzk0sa7NEGJY6DnOkdh/R6y1T158uSlY1JkoiVTcbjBcezjWOdc5/4x5hXCuEfXOb7mWXy+9AP6QwREQAREIKEISGhKqObUyYiACIiACOQHAS7GKDY9QWrwRw/T4jbxuFxAMd5SEfxz4hIWWd6CKz/qpWOIgAiIQCQJcNyjsJ7ZhY5jX2GMd56gLjEpkq2g3xYBERCB2CcgoSn220g1FAEREAERiFECOQUE10IrRhtN1RIBEcgTAReWLovgdBrz8oRVXxYBERCBhCIgoSmhmlMnIwIiIAIiIAIiIAIiIAIiIAIiIAIiIALRIyChKXrsdWQREAEREAEREAEREAEREAEREAEREAERSCgCEpoSqjl1MiIgAiIgAiIgAiIgAiIgAiIgAiIgAiIQPQISmqLHXkcWAREQAREQAREQAREQAREQAREQAREQgYQiIKEpoZpTJyMCIiACIiACIiACIiACIiACIiACIiAC0SMgoSl67HVkERABERABERABERABERABERABERABEUgoAhKaEqo5dTIiIAIiIAIiIAIiIAIiIAIiIAIiIAIiED0CEpqix15HFgEREAEREAEREAEREAEREAEREAEREIGEIiChKaGaUycjAiIgAiIgAiIgAiIgAiIgAiIgAiIgAtEjIKEpeux1ZBEQAREQAREQAREQAREQAREQAREQARFIKAISmhKqOXUyIiACIiACIiACIiACIiACIiACIiACIhA9AhKaosdeRxYBERABERABERABERABERABERABERCBhCIgoSmhmlMnIwIiIAIiIAIiIAIiIAIiIAIiIAIiIALRIyChKXrsdWQREAEREAEREAEREAEREAEREAEREAERSCgCEpoSqjl1MiIgAiIgAiIgAiIgAiIgAiIgAiIgAiIQPQISmqLHXkcWAREQAREQAREQAREQAREQAREQAREQgYQiIKEpoZpTJyMCIiACIiACIiACIiACIiACIiACIiAC0SMgoSl67HVkERABERABERABERABERABERABERABEUgoAhKaEqo5dTIiIAIiIAIiIAIiIAIiIAIiIAIiIAIiED0CEpqix15HFgEREAEREAEREAEREAEREAEREAEREIGEIiChKaGaUycjAiIgAiIgAiIgAiIgAiIgAiIgAiIgAtEjIKEpeux1ZBEQAREQAREQAREQAREQAREQAREQARFIKAISmhKqOXUyIiACIiACIiACIiACIiACIiACIiACIhA9AhKaosdeRxYBERABERABERABERABERABERABERCBhCIgoSmhmlMnIwIiIAIiIAIiIAIiIAIiIAIiIAIiIALRIyChKXrsdWQREAEREAEREAEREAEREAEREAEREAERSCgCEpoSqjl1MiIgAiIgAiIgAiIgAiIgAiIgAiIgAiIQPQISmqLHXkcWAREQAREQAREQAREQAREQAREQAREQgYQiIKEpoZpTJyMCIiACIiACIiACIiACIiACIiACIiAC0SMgoSl67HVkERABERABERABERABERABERABERABEUgoAhKaEqo5dTIiIAIiIAIiIAIiIAIiIAIiIAIiIAIiED0CEpqix15HFgEREAEREAEREAEREAEREAEREAEREIGEIiChKaGaUycjAiIgAiIgAiIgAiIgAiIgAiIgAiIgAtEjIKEpeux1ZBEQAREQAREQAREQAREQAREQAREQARFIKAISmhKqOXUyIiACIiACIiACIiACIiACIiACIiACIhA9AhKaosdeRxYBERABERABERABERABERABERABERCBhCIgoSmhmlMnIwIiIAIiIAIiIAIiIAIiIAIiIAIiIALRIyChKXrsdWQREAEREAEREAEREAEREAEREAEREAERSCgCEpoSqjl1MiIgAiIgAiIgAiIgAiIgAiIgAiIgAiIQPQISmqLHXkcWAREQAREQAREQAREQAREQAREQAREQgYQiIKEpoZpTJyMCIiACIiACIiACIiACIiACIiACIiAC0SMgoSl67HVkERABERABERABERABERABERABERABEUgoAhKaEqo5dTIiIAIiIAIiIAIiIAIiIAIiIAIiIAIiED0CEpqix15HFgEREAEREAEREAEREAEREAEREAEREIGEIiChKaGaUycjAiIgAiIgAiIgAiIgAiIgAiIgAiIgAtEjIKEpeux1ZBEQAREQAREQAREQAREQAREQAREQARFIKAISmhKqOXUyIiACIiACIiACIiACIiACIiACIiACIhA9AhKaosdeRxYBERABERABERABERABERABERABERCBhCIgoSmhmlMnIwIiIAIiIAIiIAIiIAIiIAIiIAIiIALRIyChKXrsdWQREAEREAEREAEREAEREAEREAEREAERSCgCEpoSqjl1MiIgAiIgAiIgAiIgAiIgAiIgAiIgAiIQPQISmqLHXkcWAREQAREQAREQAREQAREQAREQAREQgYQiIKEpoZpTJyMCIiACIiACIiACIiACIiACIiACIiAC0SMgoSl67HVkERABERABERABERABERABERABERABEUgoAv8/CImGTrwhTTYAAAAASUVORK5CYII=;" parent="1" vertex="1">
          <mxGeometry x="391.58" y="480" width="131.87" height="30" as="geometry" />
        </mxCell>
        <mxCell id="w8iW2eLROjgxSak4wuvQ-5" value="" style="shape=image;verticalLabelPosition=bottom;labelBackgroundColor=default;verticalAlign=top;aspect=fixed;imageAspect=0;image=data:image/png,iVBORw0KGgoAAAANSUhEUgAAAlgAAADPCAQAAACDk2eFAAAABGdBTUEAALGPC/xhBQAAACBjSFJNAAB6JgAAgIQAAPoAAACA6AAAdTAAAOpgAAA6mAAAF3CculE8AAAAAmJLR0QA/4ePzL8AAAAJcEhZcwAACxMAAAsTAQCanBgAAAAHdElNRQfnCgIRCTjDCJsgAAA5rklEQVR42u2dd2AVxdqHn3PSK0novTcBAUVBLCgq2LuoV1EUy6eiYC/o1WtFvXrtig0LWAF7Q0WxgNJ7lxZaaCG9n/n+AGKSMzu7Z8s5SZgn/ySzO7szm93fzr7zzvv6hECj0WjqAgX+SLdAo9ForKIFS6PR1Bm0YGk0mjqDFiyNRlNn0IKl0WjqDFqwNBpNnUELlkajqTNowdJoNHUGLVgajabOoAVLo9HUGbRgaTSaOoMWLI1GU2fQgqXRaOoMWrA0Gk2dIaKCVbsj29Tu1mk0ByPRkThpGav5nYXkEks6bTicviRH+krsp4KNzGYx2yglmfb04zAyIt0ojUYDRECwKviT15hGVpURTAr9uZbTSYzwxRAs4XW+IpOKyrIEejGCi0mPcNs0Gg34whtxdDf/Yzy7JFviOY8H6BLBS1HAGzxNpmRLNCfyCP0i2DaNRgMUhFWwMrmFTwkYbu/D8xwboSuxi7G8Tanh9o78jzMj1DaNRgOEV7C2cR1fmuzTidc4IQLXYTejed/EzN6Clzk7Am3TaDT7CZ9g5XMTb1vYrzuT6Bvmq1DI7bxqYVawPRMZGOa2aTSaSsKXhOJ1JlnabwV3kBXmq/Aab1pyYljP3WwNc9s0Gs0/hEmw/uJpyizuO53/VZml854/eFJhu6rObzwX1rZpNJqqhEWwCnmaLZb3FrzOz2G7ADk8zrYQ9n+LP8LWNo1GU52wCNb3fB3S/nt4htwwXYAp/BDS/rt4keIwtU2j0VQnDIKVz2sUSrdEEWtQZ3qIEmeXLF41+Bz0G7btO34LS9s0Gk1NwiBYvxo84Ancxet0kG4r4c2wjLE+Y760PJYbeZce0m15vGPZHqfRaNzE86U55XxIgaTcxygeIJbGXCmdFZzJDM8dNbOZZGBCv5pxJNKMy9gs2fojy+jjcds0Gk0wno+wVjNdWn40txELnMotREm2F/ER5R637XfmSssHMpZEYBBjpG3L4iuPW6bRaGR4Llg/SucH47mZpvt/H8nR0po/s8rTllUwlSJJeRJ30GL/78M5Qlr3O3I8bZtGo5HhsWAV8720fCBDK39vxI3ES/bZyo+etm0jM6TlQ6u0rQlXSsdYS1jqads0Go0MjwVrPQukJ72E1Cp/D6G/tPb3njoQ/MEmSWkiV5FQ5e/T6CrZK5dfPWyZRqOR47FgzZUa1DtwUrW/07hY2pAF/O1ZywL8KDW4968RL6IVp0jr/0GJZ23TaDRyPBasP6XBZI6lTY2SobSX7JfFbM9alsUcafk51cZ+AKdKAwsu06sKNZqw46lg5bJQUhrFSUGnbcsgyZ6CmZ5FVl/ORklpC04OKutNZ8me2z2eEtBoNMF4KljbWC8pbSaJ3elniNQlbAF7PWrbXKn3/RF0DCprJJ0pLGaxRy3TaDRGeCpY69gjKe1Oa0lpP1pKSjdIx0HOqTDwcB8kWZDjM5gSWKbz6mg0YcZTwVotNUz3qTYLd4BW9JSU7mWlJy3Lln7QpXCkdO9eNJCUriXfk7ZpNBojPBUs2Ryfj17SfeOkH14VLPOkZVul7qxtpNYqaEMzSek2sj1pm0ajMcLDtYTl0gw0yXQy2L8vMZJFxSupkLpuApSwm61kso2d5FCMIIZkMmhGK1rRlGR8BjXXSz3VDzHIQJhOO8mILJsdQbOdGo3GSzwUrCK2S0rTK5e91KQDaewMKt1AHmk1yirYzkL+ZD5ryaIgaM2hjwTSaUMv+nMEnSSfoGul8RZ6GVyOeKnTRYG0fxqNxjs8FKx8qcm9cZD8HKAZLSSCtZ091Wrs4He+5nc2Khw3BYUUsoVZvEEjenMKQ+lCTJU9ZB+rUXQ3PGJbSVlZ2GPPazQHOx4KVh55ktImhvmdG9CORUGlOWTtj5kVYBWTmcpyyxHYIcAOfuBH/suJ/ItjSQagVLooJ1kqS/toiU8yJ7jDu4un0WgkeChYuVJPp8bVRjpViaGdpHTfh2WA5bzFZDbbciUQbGMiUzmOaxlCEoXSj7mMyvgR8lYHy+Ru7y6eRqOR4OkISzYSyjA0hCP1zypnB9t4lQlSE34oFPIdMziZW2knNbk3lDov7COdOElv9npx2TQajSGeCpbMsN1AUaOp9MPrA8az0CUnzSK+4A+OYZdkWyNpkJt9JBMv+cDNIxCuPGkajQZPBatAuvA5WVEjQ/rhNQN32c3nhmc3Il6akqKICi1YGk0Y8fB5K5IKVryiRqpCMryngeJixEhbViLtoUaj8QoPBUueWUYlSQkRFSzV2C9KOhQt16sJNZqw4uEnoTwfjU9RI9Z2c3yV3vAB26Me1djPJ213QAuWRhNWPBQsuTSpHvFow0U4RmdIoxO96E5zEogGApSSzVqWsIJtIWYPjFVulbXbh0ajCSceCpb8806VuisqBAlowJGcyrF0ooGkVjFbmcv3/MxGyyMu1ddxhXS86NeSpdGEFQ8FK17qpOBGWonWnMNF9DX0mYd4OtCB89nIN0xinqWxlkqwyqRHiNVzhBpNWPFQsBLxS8YlBYoaPgsjlmZcylV0syQVUXRgFJfwJa8wz8CmVvXsxpRInWDjtWBpNGHFwycuWaqGqgSkZoIVx4V8wZMcElKzGzKCL3iUVg76UiBdap0Uos1No9E4w0PBSpGasVVB79ZLl0sfoD0vMIEjbDW5KXfyGWcqB5R/K+xrOVLBStU2LI0mrHgoWKlSR4FdhvakXTxhKFg+TmYy15BkuzU+Dudd7lcsDfqYbwy37TZYF6nRaMKJp4Ilc8XcWc3sLiilgDxyyeVFfjY4UgxX8x6HOW5RGmN5VbrEGiCHh1lNHrnkU1zD4rVdOtfYyLuLp9FoJHhodE8mXZLmaxe5JLOTdaxkNZnsIp9SBAHWGDggxDCaB5R+6NaJ4mIacz1rpFvncxYNEESTQDrN6UBXutKSeDZL9vYrwtFoNBov8HSWsLGkNItn2MkCNpFnyU/czw086OBTMJgTeYkrpUkoAkGR2+NoQnf68Ytk73hpagqNRuMdPuHh6pKRvOX4GBfxCumut+w9blQa+K3QlJ8VQZU1Go3rFHjqSNTe8RGO4DEP5AouYYxjl4TG2oal0YQZTwWro8PDN+LR/fHc3SaaWzjd4THaKIMRajQa9/FYsFIc1R/JiZ61LZ2xNHd0hK4my6U1Go3beCpYGY4EqxNXe9q8flzoqH4LR7U1Gk3oeKgIu3jeUea+8wxzRLvV9Uul85hWeZ/fPW2fRqOpiWeCtZqreCnEiFRVacdwzzt/GOc4qL2Af/G+6ZJqjUbjHh4J1jyG86WDiOfJ3EVPzzsfze0c4aB+JjfwQghpXTUajTM88cOaxbUstbRnHA1IIQ4fpRSSSyEB4unBGIaFKb77ch7nO7IJEEsKaSThp4Rc9lJgybE1kbHcRlxY2qrRHOQUeCBYc7nSVK78NOdwjqI3bWlALFBOITvYShHNOdSRbSlUSljBGkppRAsySMBHOXlsYxVz+ItV0vzVVUngAW6NaPoMjeYgwX3BWsHlzFXukcAALuBE2td6twDBHuYxla/ZohxtJfMk1+lgfhqN17gtWFu5kmmK7XEcz/UMduifFV4qWM07vMdWxT4NGc/5kW6oRlPfcVewChjNm4rt3bmD80mNdKdtEGAhT/KZNIzfPjrygSMDvkajMcVNwRI8y92Gc2axDOPfdI50hx1QwEQeJdNw+wm8r+M3aDRe4qZg/cpFbDfYlsY93OhqkJjI8Ae3Mttw622M8zJej0ZzsOOeYO3iYn4y2Nacp7i4niRsWMvNfGuwrQHvcWakG6jR1F/cCy/zpmGA4+a8xKX1RK6gE+MNRSmHcYZjTI1G4xyXBGsxrxj4tTfkWc6NdC9dpTUvcrLBtlkuhCzUaDRGuCJY5bzMRumWBB50GBOhNtKG5+gj3SJ4g+WRbp5GU29xRbD+YorBlmu4pl7m7uvOUwYzgut509KSHo1GEzouCFY5b7FLumUQ99TbVXYncbvBjOAnLIt04zSaeooLgrWIr6TljXmgXvslXc1p0vJMPox00zSaeooLgvUxO6TlVzEo0r3zlAbcbSDIUxXupRqNxj6OBWuLwfiqx0GwHHiAQZDB1fwQ6aZpNPUSx5oyg9WSUh8jXUjyVdvxMVKa1aeCzymOdOM0mnqIQ8Gq4BvKJeU96qEzg4yuXCQt/0sq4xqNxhkOBSuTWdLyC2kV6Z6FiYukycKy+C3SDdNo6iEOBWu+1LzclLMj3a+w0YPB0vJfHCTg0Gg0chwK1kzpY3k03SPdr7ARzdnS8MgL9apCjcZ1HAlWAfMkpT5OqfXBj91kgHR6YQsrI90wjabe4UiwtrFWUtqYAZHuVVhpyZGS0iIWR7phGk29w5FgrZcuyel2EDg0VMXPQGn5Ur2mUKNxGUeCtVbqbdSb5Ej3Ksz0libV+Ns0QZhGowkNR4K1QVrqfcbm2kZb6RKd7eREumEaTT3DkWBlScri6RiRjgSoIBChj7AMqddZrhYsjcZlHORMKGevpDSFpmFqeoBstrCRzWxjB9lUEE08iaTQkJa0ow1NwhTcJl4qWMXkh+lKaDQHC44Eq0BSmkIDy0eoYAPL2EMsbelBmuV6ZaxjJjNYyGZypZ5gfhJpQlf6cyx9SLccRLCMtawkhzja08NyulcfTaTH0jYsjcZdHAhWhTStaCIJFuuv5UU+Ywvl+EiiLzdxtgX/rSym8ykz2WYQQ34fAfLJZx3fkkQ3TuUcDpW6d1ZnJc/wFTspx08K/RjF6RZqAVKxrVCkXdVoNHZwIFhCuuw51uIhf+cmFlYeKZ/fWMCd3Kn8iNvEh7zP8pAWvRQwj3mMZyhXc5RSEH/nBpbs/z1ADj8xm1u5y5IAy/YJ6MU5Go3LODC6C+kYx9rH11Kur5SrA+TzOO8a1sjmJU7jHhbZkoGdTOQc/o9Fhmb5v7m5Uq4OkMc4XrZkyJf3OmChpkajsY4DwfJJK5dRYVqzmHEslZQX8QzrJOUBfuMixrDMkQTsZQJn8j/p3J3gZRZIykt4mrkWji3/+KsvuRg1mtqCA8HyS+07RRYsN38aRCmFlUwNKivgWS7kB+kHaKhkchdXsSKofI1h3p9tvGthjCUTQb9F+5dGo7GKAxtWNImS0jxyaWFS8zuFh9L6Gn9ncR/vUmq4fwKNaEojkonBTxnFZJPFDnINRmPlTGUNz9YICrPTIO8PwHS2S2NeVa9v9fpoNBr7OBKsDElpLll0U9YrCbJeVaW6NWgTN/GldITjoxmHcyyH056GJBCFn312tRJy2MIyZjGTNdLx3hJG8CznVjmXT2F728Q6E8EqZrOkNCEEBw+NRmMFB4Llp6WktIh1JtlyCqUe8geoOkuYyfV8I93ncC5gKB2D5hR9+IkmiRYcweXs5E+mME1yvkxuBM6r/DtGYW8qZIvJldjLJklpGun2L65Go5HgQLCQRmUQpmFVAgrTua9K6L/d3CqRqxgG8n8MtSAGfppyNqezmLf4KOiTbztjSKv8MGxBc8Vnqtk0wka2SUqbh+AKGxkEVmd1NZragSPB6ki8JF7DfPKV8RqSaW0oah04Yf9vpTwuMcC351YuDWnkEs1hHMrFPM60Gmb7TG7jQ7oC0IKhhgH3kmljco75UrHrUMtsWCVks4OtbGU7uyigjADgJ4oY4mhAE5rTnGY0ItHzBG05rGQ9xaTTiQ6WXY3zWMXf5NGALnSxXEtTn3AkWB1oJLHerGAtfRS14jiVbw1GWcMql05P5tUa+/g4mXH0tdXJY5jEczxDbrXyhTzI6yQDPi7lI4OgxoeZxJ8oZ4a0vEctGb3ks4HFzGcZG9hJPqWGs57RJJBBS7rSh8PoSkNPhKuYqbzKIvIJEE0GR3ELx5leq1K+5iXmkUuAKNI5hpsZVO8zX2qCEA7IF4MEkp+nTeptF8dI6/UXG/fvsVb0rLEtSlwutjlprCgTb4rGNY4aK8bv31ohHhJRkjYliY9MjrtatJXUSxDfO2qtG+wVv4j7xSDRRNoz9U+y6CWuFZ+ILaLC1TYViLtEQo1zNRPvioCyVqF4QCTXqNVYvO5y2zS1nnxHgiXEbdKb/XiRY1LvD9E1qFZ3MXP/1oqg4/rEVWKP494GxKQgyTpE/L1/a464NujBjhP3iRKTo74kfJJr0ElscuH/Y5dysVw8IY4OeshD/YkR3cUt4ndR5FrL/idiJedpKn5Q1npBxElqZYjPI3iNNRHAqWB9Kr39EsWXpjVni1NEfJUH42Qxp3LbAtGixhHPETtc6W9AvCVSaxz7gcqte8X9VQTNJzqIF0ShyRGzxXHSR32YKHOlxaFTJv4S14tWUhm195MmzhNfinwX2rZSdDA4x1CRa1hrtehkUOtYF15jmjpEvk84inm3mZNYJSk/l4mmJuccfucP1lFCcwYxpIop/Q7+W23PPnxMZ5c+gSt4hIerzft14zva7v+9nPl8wwrKaEofBtPJ1LbyISMkvl4+xnONSy0OhQCLeYWpCjdYuyQymBsY7DDC2LPcYrAlmS8qJ1xq8hKjDLYk8ClDXe+rptZS4MjoDi0ZJBWs7/mW803qNuB0TidAgKhqspBZY+FOKg8o5GoL37KdppxIB2AD09lMc06T+ogBRHETf/BDlZLVTKsUl2iO5EgCCPyWTOa7eFnqmtqK45xdWFtsZzyvm3qN2aOQr5jBOdxKb9uTCYL5htvyWW0oWGsMaxWxVAvWQYVDwfJxDhMlgeoKeZqBpgtaAPxBMz0zayQPO5/TDGtvZyTfAz46cz2xvMgqAvg4gQmGzggZjGFWlWigAb7mimqBZ6zPPb3NTGn5YDo5u7AhU8EPPMRfnkaIyOM9ZnALV5Fqs415iq0Fhlv2KmrlojmYcDwvPJAjpOWzeMbmcuVfqtVL4ypFFKspTANAsJrbGc0KAoBgOh8qznB8jfHPfKmnujmzeE7qVJrIsDBHatjLI1zKrDAEtNnEndLl41YQytBARtsC0txMByhFczDhWLAaMNxgmDZeKRpG5NQI83IEhyn2Xsc/JriKakK3QVErkXOrdXw7y220dDP3SNcQwjEca+N49vmbq3mYPWE6WxlTGMZ3hG78FMo1A0bbAkpRMg9mpKlPuOB5dxb9pOV53Mv0kI+WRWa1vwcpjfcDiJeWR3O48iwDq0VhL7MxYtjDnQYOowlcYzkavBvM4VKmhPnBXcqVvB3yCFooR4AVhrXKbdTS1E9cEKzG3GAwd5TJTSEnbM+ulmsmTjm+gtMZIemCj0u4QFmvNR2q/b2d0CjhP3xksO1kTgnxaE74hcv5K4znO8B2xvBiiNFfhUkcfqNaFTZqaeonrqxtOMdwpmY5j1IU0rFKq71PU2mt3DuRx7mrxiLjZG7mGZPQLsk1BKuY0PiaNw0elYaMCWPm6+mMNFwD6TW53MfzIUuWnW1asDQHcDhLuI8U7mKONGIBTGMRA0I4VvXbNsH04U/jIQZwXeUYKZ0XGGYa69NXI5ZXaLd9KRMN57RGhtGhYRbXS0NKq4ihES1pRTNSiAHKKCF//7LorBATkxXwIPFcb/mtJ2wJlr1amvqJK4IFR3Ez90nfhHtZHpJgVafMwixQNMfTplKw2nCKpdDE1QUnNM+iXdKI9AADuTls84MrGMXqEPZPpRfHMoBuNCW5xj++nGL2sI4F/M4ctlgW8HzuJ4NLLLfBnmDZ+ZDU1E9cEiwfZ/OigctiaJ9bMdXe1zlsoYtpnTyyK3/fQw4NTWsUsbHa3+b5EKtiLKNnGDqsus1Oble4YVbHTyfO5iwONfSfiiaZZNpwPKPYwHQmM9PiaCubu2nl8ayoHkVpDuBafI7P2Sotj6tc9mKNlGpxjgpZZKHOZnZU/r7bkk/VDv6u9neGhTr/kEYzgy1fKKOpukcpj/OtpT19dGMc03iCYyy5e8bQmev4lI84zWAGtiabuEPpRFIV/XGncYZLgrWGNw1uuO4m83w1aVpDDH6xkIVnc5WZxRJL/khzq40G/RZGcVVpYDjJMEcSdNALJvOapQc8g9v5hjtoG+JHbzJn8BGv0sPS3n/xiKWpFbU1yniWUPXZp2Xu4MIlwfqwxnKaA8Rzo6UFOv+QQa9qf88KSm8aTMsq84SJNDLdv4SPq33UNbT4YP7DCIMQhRW8Lc2g4y6reESxkOUfjuQDHpcGsrZCMlfwKZdasghOsugk7L68aBvWwYUrgrXFwCfJx7VcGuKxoji+2mhgB2+ZOij240aSicJPEsNNXEYBpvNdtb8PqYxzapX2PGGQzGxBjWO7TylPWXB0jeISPmaIwymAzrzKAxbcYIt5MqQJAI3GHq4I1jQDX6CTuM9G5O3jayxbfp+vTWpEczff8TEf8DVPkmSy93bG1Vgye5oNz6khjJWa6st439Loxz7f8bHpPlFczUshWg/lJHMXz1iYxljJc66kutVoVLggWMV8KnVoaMS9NLZxvI41ojPkcK80jXxVEjia8xjGIFO5KuRhfqtW0o6zbPX7ck6Xls9inq3jWWMPzypjHgD4uZonXEsyFs1VPG1hWuKDGtdVo3EfFwRrpcHSkAtsTnb7uaLaSj9Yzg2Gnk+hUcTjvFHDknLh/sw5oZLMTVJRyLE4f2ePT/nddJ9LedzVJK5+hvOY6YdhNi+FuKpBowkVFwTrlypOBf/QmCtt20/6BVm+/uQKfnVsst3FPTxVw4eqMyNtB6QbyMnS8p88i5ywizdMF8MMdXF0dQA/I7nN1Gnve37xoM9CzwRqKnEsWCX8LC0/0VZCrn1EcVPQLNx8LuG5Kg6ioVLOL1zCCzWcJGK5xeb4CiCOS6S+SqtshauxwtfMNdmjM0+EOC9rjWhuMY0hm8/bFpxQjDCWJT0TqDmAY8HazEJJaQznWZoON6I9DwVZTbZyJxcwRZGh2Ygy5nAj5/Nj0K1/CZc76v0xHCIpzfUofkIeE00M2wmMpbcn54ZU7jf1V/tRab/zYpGNHn0dXDhemrNUuui5IwMdHvd07mNsDZtIGdOZST/OZTCdLM3sVZDFHCbzvdQ76ngeMjXSq2nESdIFMn9R7taqpyr8yZ8me5zHMNfP+g89uIWblZ+ke5js+D8fGm4IVoAicskhjxIC+IgihljiSSKFJJf+j4JsNpBNLM1pZXENQSl55JJPGYJYkkklJcRFZMGtKCKXXAoow08cSaSQQlwYUv4KSskjhzwKKaUCiCaWRFJpQHIIvXL835gnvYGPcvxZ4ucGchgX9IlRzO/8QUO605detCaVOKLw48eHj31v8XJKyGMn61jCQjYYfKb05yXTJPTmHM/zktWSy9lNU8fHro5gSrVYYcG05BaPE7hfzNRqCTyC+ZZbTEIC1R6K2cwKlrCCjWSRQ9H+2W4f/v2PUwat6cqh9KKdo6BBO3mbj/mbIvxkcDjXKT3kAmxhLrNZSiZ7KKIcQQwJpNOaHhxBP1qF/ODmspK5zGct28mhhAp8RJNAGs3pTF8Op4vDl7eccnawmiUsZx3byKaAMioQgI8oYkkmgxZ0oie96Ey66SefQ8Eqk/qh+zjGBWt+HHcTwzjJQyrYxW/8ho9YYonCj69KlpsAAcooo1T5kTGYF+nuuI1wKG0kLpNbyHRdsDbyk8kel4W4DCp00hjFTKWf2Vp+DdlZOPwUsJSfmcFSdijjgaxjLhBFBt05gSH0tvVQr+Mmvqu8GwvZzK88wI3Sh6+UOXzANDZIBgKZLOZromnN8VzMsRZfThWs4gu+Zik5kvHoZpbyAz4y6MNZnEk710Zb5azjV6Yzn0zFQvo9bGIh4COFDgxkCAPVzlDO8hruFL2kGXnnuZQ3sVS8JVq7lhD0n3zOI0Smay08T3KGKPGhS8f/h4kmCefbiuWunzOYfHGGydX9l2EK2XxxjKLeXQa1CgxS1e77uTbE9gdEpnhVnCzSbNw3DcQQMSHklL654gLJsVLExKA9K8RscYVIt9SWZHGBmCUqTHu7SIwSLS0m1fWLTuI/rjwZe8Xn4jLRSvhtPJt9xMNilVHPnGZ+XiqaSE7aW+x0odMHLvksMVREuyhX7cRLrmQxPsBD0rM85OIZhBCiQlxu0q8xIuDyOeV8Ik0b/89PB7HeoKZdwRrkmmBtFI+KQ0yEX/0TLY4UbyuyVAczSZodHdFXbK22327xkGgWUluaiadEnuLMu8RjIb/ufaKvmCxKHdwfe8VEMahKVvfQf3yinXhAbJLeQg4F6zvpzXu+y2na94jnRTdXUq+niZFiicsP9hSpnI5w+SyZoouyZxlipqvnM2aX6K9sSYz4xKCmPcEqFCe4Ili54jXR05W7KFacKWZb/P/KR+D7rtOUKvutFWfbENIYMVJkGZx5nhhiU5pTxVix19a9USa+FycbCHSootVHfCxKgm4hh6amTVKDdmeXZ8jSuYlveIReDlwlfDRlBJ/zMj1dnhNpL40ztSnkOPFqlpjE+RpgED/CfRpytnJ7mQVf/PCzjCsZxVLcmFUs5UvO5w1LPme5BnFMoIxlVVp3BZ/byABUxluMksRgE3zJRUyzmVMol3GMthF1ZCf3cRE/uJIrUrCQqxjL7hrlDgVLHsfdbkATFe25l2lM4CLahShbPjIYxKNM4zWOczgtLKOpdGlwlsmMXqj8qRRAH2d4PD9YlaEmIXzm1Lp8zNMYxhRXk65mMoaHLPyPyxT/twOSsJbr+MNmOwSfcFfQ9f6Eaw2F0goVvMsYdoVUZyUjeEqZpTtU8nmGa2vEBnY4FJJ1KdazMMHNuJRhbGYhc1nKRnZRSBkBAogqb859c4ZRxJFGS7pyGP3o4mEmm1QasyaoNI8CW0u/5ZSYeLg3C2PqC+hGX6Vzw1o20TOM7VEjmMIYg/DdTijkSQp4xOTOqlCMcvZJ2S5usy1X+5hER8ZWGXt8xeiQE9fVRPABDfivMitoVRZxLbMdnjOYAFPJZzztKkscCpbsDRNvIYSefWJoT3vOpYxcssmjiDLKq9wWfvxEE0McSaSRRoLnTnHxUmEqdbBIJZgdrFJuP7RG2jJvSeR4pWDtZnktEqxPucnx4yunnJdI5t/KUXtA4VwTAMp5ii8dt+M5BlSua13Aba70V/AmXRltad8VXMMcF84pYxqjeb0yHIIjwRLShzLBUuxwp8TQ0EKUpnAQLQ29UuFqdKgNJrHiB4bxgxDgKJIU3lgVLPHU4z4UfuUWj+QKoJxn6ciVij2EyZKjbxjvgl1tN09yBGnAHsa6FkqxlKfobyHn1Q5u9UyuAL7kIf67f3WAIxuWPIl4vOVhZH1BFsrFXcFarbSWxHFEmHvclVbK7StqSTC/7Yy1lJTEPgU8LF1NewC1GO3kKRtrY2XM4HMA3mSai73bwn9NsyeV8zTfu3jOYARvVcY0dvhJKPt3xHpg2K7dyLyfhSvzUQdQfxA2CTGJhnMa013ZpvXkuR7ixg4TLFqH4mhGG1rSiCT8FLObzWxgq6WZ3vU8xZuGqwNV90GAqcwy2OavXGhmjTLe5QIyeUVhM4siCgiE9DL5lh9NAlxO53VL93oUDWlNG5qSQhSlZLONjWw2DUcJUMSTHENHXMtLWL1hruUOqyPIBNpNwSo3ye/c1vVlQGbE0JPPFNuz2FULBGstb5n+F/x04DROpieNSai8cwXF7GIZP/AVa01F4wt+Mog+q74PVrIwSF4S6M4AepBBDFBKNmuZy2IL47DZ/MF01ku2pHIIh9GN5iTjo4gdrGYeiy1FbStkAkMUi7XzLQV9SmMQZ3MEraqk8BWUks3f/MpXzDO1+C5nAo/giWCFmke57iPvr3uCVchm5fZOnixbVdMdv+JB3ksWncPeppp8YDq135pruEyyfs5HAq1pzVBu4j1eNci5eYB8JnAScSG3768a90gDTuMy+pNRoz15LGISk03cDPK5j8yg0uZcwIUcSmqNYxawjA/4wEIezV9ZRH/Drb+YBm1M5myu44gg0fMRRzOacTTX8w3PMcfkifmAEXTyYjAUOOgCrsniVfhcvLS5Jrdqxwi8ItopRbLYwEMvnGQxRbndx1A+5T7aK66ej3bcxyccZXKuX1hso4WBKo+oj4F8wNucRsOg9qRwDC8ylRNM/s9zakwvxHAeX/Asx9IgqGYSR/I0Uxlseu/sUVioKphiYuPqxgTe5FhlQJ00/sVUrjUxJa3jWxw7jso6W2YaxLe+IYtk7nNRRHKUjpg+V7LjhEqzKrkgg6nwcGbOKouVs2VRXMW7HG7hv+RjIO+Y+LntNjR1WzMNRDOCTzhV8chGcSyTuCSEuyqJe5lAP8Uj7mcgE7nI9JgzDGeEd5qEquzP+1xgaezZkmcYY/LB9w0FzgTLJz1B8UGXikBmX/A7zAhYlb3KKxpXI1d2eGhgkkdnh8XjeMffiqvmZyRP10h1oqIzz5rkrpxhMNKwIld+ruVZgzyXVWnOs5xjscXx3M9YCw5GzXm2RpaqYFYYmiRylZ7t/XgjhEDpiYzlPOUei1npVLBkb4QiS3b/+kNF0HongGhHIaKrk6tcVJIQEX+0eJOHYbfF43iHKmrXOTwWYl6hvtyifAUtN7Ezqjibhy36LjbmMYtR3K5htMU7sCmPmYjxbsOxqsr805kXQ3QfTuUepbvMTmY7/SSULUsoqgU3azgpli4TjXHRuSNfOREdHkfd4P6pve1yXHXrsIPxLGUfxtkQ+QuV4RF3GCQTNqeTJH+BMd0YbWGmrD93WQzDDHAo/6f8LCyVLD3bR4yhKKYxTmGqN6I3Fyi2ljHHqWDJLnSJyZxKfSNX+vmT5KL7bKFyGiMxIo66fpMHIt9mpAAZ9qyBPQ0kK43/2JrBbGLyMNnLlOTnxhDHIedyqMke8YwJcT3vhSaefBsMyjMMQqH7GWUS00OOj3OVr9/VTgVL3tx1IR6lbrNTOofXxMXl1uooA/ERcdT1mXxwFLsmWHanL3pxkqQ0ihtMbTZGDFJ+RtqLUHEoF4VYowlnmOwxgFNDPGZb6bX6hx0Gr8x0LpR+KJ/CaJs23B50Umzd6VSw2kofltUuvl1rP+ult2prF1f3qWdd47xxpjPBZ3LW0og7tyQwNmgsEsUV3GH7erVSLuu3J6vn2kjXMkg5pvZxgY2834OUV6XI8L95DZcFiUh//ms7AEK6cqyX71SwWksvzWqX1kfVDZZJBaWji35YamtQZFYWmPmZVUTchgW9mcglNNzf0hg68hBPK90x1CQqP1fs9DedoTZqtVIKUlOOt3HM7ko7WrmhYKXxDPfTbr/c+cjgMt51kN7Fr5wtLXb6cm5KU4nJeRMbQzAj1m3KWSAp9YdxdZ+bHl/u4e5aSrv04i1WspRdxNCK3rRxJO4xylGznRFlF1t5xxOV7ehuK4BmU5ooXFFUfcvg3wxnIVsJ0JBDOCQEc7+MNMU2x9k+0+jE0qDSPcx3kKi+bpEl9XFODaNg1Q5pqElULZHRePq4Fjw6ykVXlX30sTXeU89At7U1CZOknDcNKO8xPx1NHCNCQSXG5U6/JmKkidEFMw4aK9ZiafiSlq56n6vNl2URutZqmYyuh0vgzex2oWPv0ylK2Q57kz1RynFRIIwvRVXfAs7vqsOlaj9TsgyzfvKDNARJT1edOdXv9ZKIxJ4yC1IS76Knf23B53qfQl8wDWarKLw4ZjjH8CpJEs4Fq5fU42MDP4exi5FjGz9Kywe4emurwzwXuZyfxxrCJCBIkhYsC9h7/NTiYncUqDpmOEdYqjO5MMJqKfX/reAT5dKI+sKPrJCUplkIKxsKycqbqdDl/DzWKDdZpZ9aLz8J1Q91+Nqhurb2RNVnMrIJH+qRu+OP8hhOlIbx+I1fQ3Zfq2vk8I708vZwMK0rowGxin9joauplaxSYuK6EvnwffYIUEEZpZRQTBGFFFBAPnnkk0+ecvlNOB9q1Yjb7otCLVhu9k5QQTlllFBCEYUU7r/GeeRTyE/Kui5YEQfRQrIYJ58XGGjDga0uMYXfpOUnu9zvNBIU45miiERGyDVZMepeijOvCFDIXnaTU+0nl1zyyaeQQooppZQyZaouZ9gTF/VoyO4xVSJoV64EJeSwi73kklvtGudRQAGFFFFC6f7MV+ZnEW4IVmeOrQwRX5UfeI3ba8nkthcs4UnpopmGro8s00lRyEO5x2kW5OxUBsb1RSTkjTXKyWIFi1jCWraxl2LKKI+Qa4i9p0Ndy4sRVqgI9rCWRSxmFZvZTRGlCudT6wTcEKwYzudTyaNbzhO0Vy4Yrcts5jaDNAyDpK4eTkiloeHyU4C/I9D/TcogQnE2Fpx4TwWbmMEPzCUzbDHbvHhhq0dYdkXQnRGWYCd/Mo2ZrCPXg9eAK44lgzlcmv1jN2OI40zXGx15tnGTQSrRBC6zObFsTBItmKfYvpoS189pxiqlcTTFxRGWO8GmS5jD+3zHJs8+7+QPp1oIvJEzL/pmRXoCrOQTPmOFq0mEq+OKYDXkCmZLb4QtjKEFh3vW/MhQzP2GOWOO5UTXzxdj4oa6jt0W4lW6SYAlyu2NXbVhOX0EK/iLl/na48kJOx88dqXYCxF0+lpYw+t84CCMYXhauZ/zOdpgyzqeq3cx3n/iQ4MtydzoSTg99UKfrWEP6JNtEv2ptYMlxm6znfs5h0kRmUv1Bp8ns4ROXgsFjOcMnvJcrlwTrEbcbvigzrSQSqhu8bOhj9l5DPHkjF2Un3x5zA/zFVintKlB17B/ohrxFxcxThoTti5Tu6ayNnI9o5UpP9zC797UwClcYbAlMp7YXmJkbu7CnQ5XqhvRwSS+0B9hXp4z2yR5Zq+wtsaYL/kXv9bKxeHgbiq4qkcNL0sYznseWq2q9821KxbD/xnYUWrX28ANjHp0OT08OmNzOii3zw3DYPwfypih3J4aYtBfr/ic62p59Fu7M3ru+2HZZRkjDbwRvcHF5efrDN663UJIp1Q36EuUdIphJWWuByDZRzJ9lbfFJmbRLmz932CSja6NibyGhz8YYyudq49oYogjjgQSSSKZlP0/8Xyo+PCJdIRVZ5gtzZGPUrcymjm2zhZFDDHEEU8iiSRVXuMGLOALRU3XBKuUSVLflniujUhWFy85lwnSR/Z7FtHPo3MO4CXFhHw5X3Fh2EIl/2IynutrO0Cue2zlbhM72wHiaUpLmtKQdNJJI41UUkkmiQTiiSOW6P3RvUqZrRAsOx+edeWTUN63MsaZLKQ5QDQNaUULGpFBGmk0IJUUUkgicf81jqkMSPRCeARrKdOl5cdxigcXMLI0YSTzJFajnUzxTLAOoxlbFNtnsMqzD9LqFPGZcjTh45iIL3wWvMTvpnsl0ZeTOIrONCIhIpHx7VFbPgm/5x3TfaLpxGCOpyfNSLb0/eHx4ucDfCVd0ZbAdfVufAX7xlgyV9mvuMkjj6h29FEK1hY+C5NgzWGmcntjl2NV2GEBE0z2iOcUruXoOnp31ga7cA7Pm2QK8tOPqzmNFiG1Vy1YLslxNt9Iy482SR9UV2nECGkYj1UW3uv2iDO9kh+FxfBeYerRdJitrH9uInjPxHrVlpeZxKlhkCuVz1TdniX82cTYnsAtfME1tAyxRWERrPmSyO4QzeV19A1mzpnSmbAyvvZs6ccJNFVuX8onYej3fD432eMUFxOc2WMTXyu3d+VdrrQR+VzYMKx7sTTHG8fR0ChnstJdKYn/8KjJHStH7WbuUu9+krpS9vTIjbI20JzzpeUzlR9uTujGUcrtgjctmpntU8Z4EzfgFh6MqUM1Z//JesXWRvyP42y1I6BMaVtb4mGFh43Kb4kobmeMTedhlUeXS46jOQZ+OWfZUti6grx3m5TLlJ0Qx3kmJsdlvOrx5PpP0mCNVTnBVuIqNaE+nmo32pG2cgEClCmjrNq58pEXHmsEi/EC5Yv5KEbZdvBRRyp2RbDWSCMxZthOCV436M5ASWmpZ1YsOIlDTPZ4y8Sl0xk7ecLEfpXAMNdn20K19BRKzRMHaMlw2zd9Hntc7psXn2/hsYstULwU/Fxu27FFmASGdKV3c6T/yD61xN/ZK2I5RfqGnK2MFOWE5gwz2WMn/2G7R2ev4Dl+NdmnP4MUW70wMgcfMUf57u9DJ9vn2hiR2K7BeBEPS42/xlEFGxV7t+IE22fKYY1JSxwT4E9p+SCSnB+8VnO09KNwjYcpzi409SH/lcc8Wtf1KS+ZfPZEc3ktCIqdo5xs7+hgWfZfJtP44SPSn5Llyoj+rR1EQ1tlsojaBcHKlsZGSjQMOFN/aC/1fNotzaTjDl34l8kegtd5xQNL1izuNg3QcmStCNZYpBTsDNvHLeA7l1vqjVtDOAgor3GKMjO1mm9NltW7cMUypTHF27icOaY2ksiRktJyafJ6txhhatQu5iEmujxntZhRpoGY47i+FizJgYCJH75dZkldhZ1htzWqeuHIB6l28LCfY2cLU5XbXZklXCN98/aod0ueZfSTzoUs9zB5fEf+z/SWzOY23nGxDfO52kLErZM427Neh0KM0uxv12xewCu2bJPeBEGO9CehXzkHmGPbKPG+csLEpTHpaumj0acOrc2yTzfpJ8Y6T20dwy14Ee1iDE+bpDq1hmAawy2syG/E7aR42GvrJCljkq2yGZ3tI4O1HGaE30AeDvxK5+BMmxM/C3jZdGzmgmDJPhWiw7SuLdK0oLWkdDu7PDxnQ+6hoeleOfybm5VzOVbI53kuNwmHvI9rbDpjuk+qMjzzfFsWxj95xIMwlPZHSpH2dI9W2gK38bONY+7kPguOz457Vyy1YKXS3rWLU5tJkfZzrySxrJucyPUW/nElvMm5TLad0CrAPK7kTksBro/j5ggZkIMf3VTpS+QAO5gY8pTEckYrfefD3+fIj9pUs9UB3gnZASSHe/nWwn6O77J86Q3d8KCwYEGU9B9X7PEyZD+jLXprL2AEI/g1ZJtCgDXcz1lMVi5GOUALHrY0kR0eP6w4E/+/9wwCIRkxhyuZ7Xq7D1yRunHMYHoqZwL/4tWQbKhZ3MoEC6Z6F4zuOVKTe5N6u+i5Jm0kZQGPR1jQiMcsLoEp4GPOYTifstPi3E0hf3InQ3ncYi8S+Lflz8HwPEwDlCbhndzOXItHKmESl3goV7UpzZf6mDW39lSmyg3wDBMsSpbgLy6zvLdjy3i+1LTb2KNkDLWPptJwyXs9P28fnuJqiwPvbD7hC7pxAoPoRXMSpDdnKXtYw0x+ZJ6JL0xVohjFCM97Gxr9aMtaxfZFDOcRzjTxFqpgMc8x2WRt2z+E04Ae7ryEwcdszZFKC2kOt7ONG0393jbxNuNDeME7FqxiaTiIjINijhAgnViJlciN+TkzzuBRbrM8H1nCIhbxMk3pQGfa04RkYvEToJRCstnMWv4mk/yQ2uBjOGND8B13/6GWHbE1JykFC1ZyJedwNf0MgszkMJ+P+bxGVC0fqYr063ZGS/ZGWLUh4mgMZ/GpcpF5Dg8xnes50WCKqIiVfM7HrKphU0yizNAQ4XeuK2VSE+bB8kEIycRIBCscqWN9jCCP+y2PAABKySRz/wJpPz58CFtRng5wIU+EsBjH3qxY6I+nn4v40GSUm8d7fEE/TuBw2tKAaATlFJHNBubwO0slXlftuILHXVz45M0sYTjWEgKcTG+TyCTl/MIsejKYAbQjlTiiEJSRTybz+J357AqS/3hu4yNWGfbNsWAFpG+cg+WDEGKllzA8GVSiGYXgQZuLrZ220c8w/hfi5Ep4RlhwFKczybRuDj/xE3GkkUIMgjKKKKDAYNwQxY30ZZyrra89IyyzYwZf56aMZJFpPswS5jGPGJJIrBSsQvIMZf90rlIkoXBBsNy8aHUReU/DFcwthptJYWwEMhvHcBWPhLgUJzyzhABx3MwvFkMplpBlyXXjNK5hgUJy5S1Rh0h2397kjSHfL916MZ8xzdKxy9hrya7biftJV6zkcGGWUN5N75am1DYqpOIUPgNsNCN5gy5h7nUD7ue/Ia8cDJ9gwZGMcfVtfCiPk6p8ERkJlvvXQ13P7lpCVb1oaT/S+TetbJ5NRjqP0huVHLsgWNHSQ4TD6Fw7kE86hGMB6gH8nMVHDA3jqLYLr3EPySHX83lwXYyPeJ1pZAvrdOR5eqAeE4V+/e1eD9WHkf2PJlVbYg36fTT/cW1BVhIPcoHJVXFBsOQ2nOywRriOJDnSGQ37MZfs0YeJ3OsgdIp14riQKTbjinphgTD2uErhcU535RydGb8/MGGM4oEJXXx8NsMIq+rZPSZKJ494w95dzlhXko6k8vD+9RuqmcBo54KVKO1olkdB5Gof26WCFfrowymNeJCPGeIgEpE5PrrzIm/ZjiTrV4Z0NHrQ1I+gKvdNC17mHMef5/15jxP3/56seBUZTTQZnz/a9ovNuNdRNrIB7UM125tmKBTRjOFBx6OsFjzHTfv/z1HKa+xYsFKkD+cWZUTC+oR8jZn9iIv2ieJEPuY1jrL9jlXTkrv4mqsdiLFfEZ44lj4GW6I5TNFndQTWNrzGjQ5GAPFcwYf0r/y7keGycx/tpOWptDQ8errt+GFtDbek2U7k210xRlRd5Thu5UXl+k01PgbyPldUjqtiFFelpXPBSpUefltYknpGnnKWSUrjFDeUtzTgCr5kPMe6+lHqoy238i2POl7SPoR0gy09FBFqTzd0nugiTQRSlcY8xau2gkn6OISXebmaEDWRhmwEaG2QhC2FswzPcLx0YZcVBtPYYMsA22lsBxrKUtPKEaacaIYzmdNsvSibcBefMKjKODSKQYZzv+eDcEi5GCYI+vGJ150euE6wWXSV9L6xWBLhdmWLyeI80Vj4JK0L7SdRHCWeFKtEhSvtKhHXSc8SK15R1CoXY6S1osUzFs/7t7hLtA7havhEe3GfWC850k8iQ1rjbhEwOPdmMUBao4WYZfs6lokbpcdME984+O88JvzSo94qyi3U3ivGiz4iKoR7K0MMF7Mkx94ijpTuf5LIyncsWEL8R3rwi0Sp80PXej4XcZK+9xI7It0wIUSxWCCeEkNFs5Buon8e2VTRT9wmpolsV1u1SQyVCM8oka+stUWcEVQrSlwnci2ft0IsFw+Jw0WiBYnuL8aJ1QYSXS6eEklBdc4U2xXn/k3yWksXbxhKnLXrOCTomAnicVHm4Jh7xGVBkuUT5yr7Vp1t4nUxRKSbXuMY0UXcLGaKEoPjTBNtgup0ETOFcEOwvhSxkiY1E/OdH7qWUyYul/47hjm6bdylUCwXk8RocYJoJ5JNpcsn4kUz0U8MF8+LmWKPo0fKiM1ijGhR+WBEiy7iaQvCs1XcJlpWqdVJjBN7Qz73LvGDuE8MFR1FqoiuIX9Joq04UYwVP4o9ymOUiHfEoZW1/aKJuFlsMTnvfHG+SKk8V7wYKD61NGpRsUmMEs0qr0isOFS8KYodHnO3eFC0q7xLokQbca/ICvEY+WK2eFqcL3qIhiK22qjWL+JFMzFA3CA+FpkmY/YZ4uQqL4YUcZaYLYQQ+T7h2P9gDSdIfYrv4TGnh67lLONUaUqvJ7kj0k2rgaCAbaxjDWvZyDZ2k0sRZQj2zVUlk05T2tCBznSiNWmeepKVsYSfWUEBafTmJDpamskrZyk/s5x80ujNYDrZNsAWsp0NbGALu8gjQDzptKQDHWllMTXdBr5jIYWk0J5jOMzC3Gw+vzGTLZTTmCM5wZV4caUs4hdWUkQjDmOwbYtYVSpYxc8sIYdUejBYaYpXUcZONrKBTLLIoZwY0mhGOzrSljRL/+9sfmMmm/HRlmMYuG99csH/A5SSc7ft+y7WAAAAJXRFWHRkYXRlOmNyZWF0ZQAyMDIzLTEwLTAyVDE3OjA5OjU2LTA0OjAwuUFWZwAAACV0RVh0ZGF0ZTptb2RpZnkAMjAyMy0xMC0wMlQxNzowOTo1Ni0wNDowMMgc7tsAAAAASUVORK5CYII=;" parent="1" vertex="1">
          <mxGeometry x="315" y="55.85000000000002" width="96.52" height="33.3" as="geometry" />
        </mxCell>
        <mxCell id="w8iW2eLROjgxSak4wuvQ-8" value="BGE-M3嵌入模型" style="rounded=1;whiteSpace=wrap;html=1;fillColor=#fff2cc;strokeColor=#d6b656;" parent="1" vertex="1">
          <mxGeometry x="350" y="112.5" width="120" height="50" as="geometry" />
        </mxCell>
        <mxCell id="w8iW2eLROjgxSak4wuvQ-9" value="&lt;font color=&quot;#0000ff&quot;&gt;将文档向量化&lt;/font&gt;" style="endArrow=classic;html=1;rounded=0;exitX=0.5;exitY=0;exitDx=0;exitDy=0;edgeStyle=orthogonalEdgeStyle;strokeColor=#FF3333;" parent="1" source="w8iW2eLROjgxSak4wuvQ-2" target="w8iW2eLROjgxSak4wuvQ-8" edge="1">
          <mxGeometry width="50" height="50" relative="1" as="geometry">
            <mxPoint x="450" y="310" as="sourcePoint" />
            <mxPoint x="500" y="260" as="targetPoint" />
          </mxGeometry>
        </mxCell>
        <mxCell id="w8iW2eLROjgxSak4wuvQ-10" value="" style="rounded=0;whiteSpace=wrap;html=1;fillColor=#d5e8d4;gradientColor=#97d077;strokeColor=#82b366;" parent="1" vertex="1">
          <mxGeometry x="-130" y="50" width="270" height="450" as="geometry" />
        </mxCell>
        <mxCell id="w8iW2eLROjgxSak4wuvQ-11" value="&lt;font color=&quot;#ff3333&quot; style=&quot;font-size: 15px;&quot;&gt;&lt;b&gt;外部大模型API&lt;/b&gt;&lt;/font&gt;" style="rounded=0;whiteSpace=wrap;html=1;fillColor=#d5e8d4;strokeColor=#82b366;" parent="1" vertex="1">
          <mxGeometry x="-130" y="50" width="110" height="40" as="geometry" />
        </mxCell>
        <mxCell id="w8iW2eLROjgxSak4wuvQ-12" value="阿里云deepseek" style="rounded=1;whiteSpace=wrap;html=1;fillColor=#ffe6cc;strokeColor=#d79b00;" parent="1" vertex="1">
          <mxGeometry x="-70" y="113" width="120" height="47" as="geometry" />
        </mxCell>
        <mxCell id="w8iW2eLROjgxSak4wuvQ-13" value="腾讯云deepseek" style="rounded=1;whiteSpace=wrap;html=1;fillColor=#ffe6cc;strokeColor=#d79b00;" parent="1" vertex="1">
          <mxGeometry x="-70" y="180" width="120" height="47" as="geometry" />
        </mxCell>
        <mxCell id="w8iW2eLROjgxSak4wuvQ-14" value="字节deepseek" style="rounded=1;whiteSpace=wrap;html=1;fillColor=#ffe6cc;strokeColor=#d79b00;" parent="1" vertex="1">
          <mxGeometry x="-70" y="253" width="120" height="47" as="geometry" />
        </mxCell>
        <mxCell id="w8iW2eLROjgxSak4wuvQ-15" value="OpenAI" style="rounded=1;whiteSpace=wrap;html=1;fillColor=#ffe6cc;strokeColor=#d79b00;" parent="1" vertex="1">
          <mxGeometry x="-70" y="326.5" width="120" height="47" as="geometry" />
        </mxCell>
        <mxCell id="w8iW2eLROjgxSak4wuvQ-16" value="。&lt;div&gt;。&lt;/div&gt;&lt;div&gt;。&lt;/div&gt;" style="rounded=0;whiteSpace=wrap;html=1;fillColor=#ffe6cc;strokeColor=#d79b00;" parent="1" vertex="1">
          <mxGeometry x="-70" y="400" width="120" height="60" as="geometry" />
        </mxCell>
        <mxCell id="w8iW2eLROjgxSak4wuvQ-17" value="&lt;font color=&quot;#0000ff&quot;&gt;访问大模型API&lt;/font&gt;" style="endArrow=classic;html=1;rounded=0;exitX=0;exitY=0.5;exitDx=0;exitDy=0;entryX=1;entryY=0.5;entryDx=0;entryDy=0;edgeStyle=orthogonalEdgeStyle;strokeColor=#FF3333;" parent="1" source="w8iW2eLROjgxSak4wuvQ-2" target="w8iW2eLROjgxSak4wuvQ-12" edge="1">
          <mxGeometry width="50" height="50" relative="1" as="geometry">
            <mxPoint x="230" y="380" as="sourcePoint" />
            <mxPoint x="280" y="330" as="targetPoint" />
          </mxGeometry>
        </mxCell>
        <mxCell id="w8iW2eLROjgxSak4wuvQ-19" value="用户" style="shape=umlActor;verticalLabelPosition=bottom;verticalAlign=top;html=1;outlineConnect=0;" parent="1" vertex="1">
          <mxGeometry x="1060" y="70" width="30" height="60" as="geometry" />
        </mxCell>
        <mxCell id="w8iW2eLROjgxSak4wuvQ-20" value="浏览器" style="rounded=1;whiteSpace=wrap;html=1;fillColor=#d5e8d4;strokeColor=#82b366;" parent="1" vertex="1">
          <mxGeometry x="870" y="70" width="120" height="60" as="geometry" />
        </mxCell>
        <mxCell id="w8iW2eLROjgxSak4wuvQ-21" value="" style="endArrow=classic;html=1;rounded=0;entryX=1;entryY=0.5;entryDx=0;entryDy=0;" parent="1" source="w8iW2eLROjgxSak4wuvQ-19" target="w8iW2eLROjgxSak4wuvQ-20" edge="1">
          <mxGeometry width="50" height="50" relative="1" as="geometry">
            <mxPoint x="1050" y="90" as="sourcePoint" />
            <mxPoint x="1010" y="170" as="targetPoint" />
          </mxGeometry>
        </mxCell>
        <mxCell id="w8iW2eLROjgxSak4wuvQ-23" value="用户" style="shape=umlActor;verticalLabelPosition=bottom;verticalAlign=top;html=1;outlineConnect=0;" parent="1" vertex="1">
          <mxGeometry x="1060" y="177" width="30" height="60" as="geometry" />
        </mxCell>
        <mxCell id="w8iW2eLROjgxSak4wuvQ-24" value="浏览器" style="rounded=1;whiteSpace=wrap;html=1;fillColor=#d5e8d4;strokeColor=#82b366;" parent="1" vertex="1">
          <mxGeometry x="870" y="177" width="120" height="60" as="geometry" />
        </mxCell>
        <mxCell id="w8iW2eLROjgxSak4wuvQ-25" value="" style="endArrow=classic;html=1;rounded=0;entryX=1;entryY=0.5;entryDx=0;entryDy=0;" parent="1" source="w8iW2eLROjgxSak4wuvQ-23" target="w8iW2eLROjgxSak4wuvQ-24" edge="1">
          <mxGeometry width="50" height="50" relative="1" as="geometry">
            <mxPoint x="1050" y="197" as="sourcePoint" />
            <mxPoint x="1010" y="277" as="targetPoint" />
          </mxGeometry>
        </mxCell>
        <mxCell id="w8iW2eLROjgxSak4wuvQ-26" value="用户" style="shape=umlActor;verticalLabelPosition=bottom;verticalAlign=top;html=1;outlineConnect=0;" parent="1" vertex="1">
          <mxGeometry x="1060" y="300" width="30" height="60" as="geometry" />
        </mxCell>
        <mxCell id="w8iW2eLROjgxSak4wuvQ-27" value="浏览器" style="rounded=1;whiteSpace=wrap;html=1;fillColor=#d5e8d4;strokeColor=#82b366;" parent="1" vertex="1">
          <mxGeometry x="870" y="300" width="120" height="60" as="geometry" />
        </mxCell>
        <mxCell id="w8iW2eLROjgxSak4wuvQ-28" value="" style="endArrow=classic;html=1;rounded=0;entryX=1;entryY=0.5;entryDx=0;entryDy=0;" parent="1" source="w8iW2eLROjgxSak4wuvQ-26" target="w8iW2eLROjgxSak4wuvQ-27" edge="1">
          <mxGeometry width="50" height="50" relative="1" as="geometry">
            <mxPoint x="1050" y="320" as="sourcePoint" />
            <mxPoint x="1010" y="400" as="targetPoint" />
          </mxGeometry>
        </mxCell>
        <mxCell id="w8iW2eLROjgxSak4wuvQ-29" value="用户" style="shape=umlActor;verticalLabelPosition=bottom;verticalAlign=top;html=1;outlineConnect=0;" parent="1" vertex="1">
          <mxGeometry x="1060" y="420" width="30" height="60" as="geometry" />
        </mxCell>
        <mxCell id="w8iW2eLROjgxSak4wuvQ-30" value="浏览器" style="rounded=1;whiteSpace=wrap;html=1;fillColor=#d5e8d4;strokeColor=#82b366;" parent="1" vertex="1">
          <mxGeometry x="870" y="420" width="120" height="60" as="geometry" />
        </mxCell>
        <mxCell id="w8iW2eLROjgxSak4wuvQ-31" value="" style="endArrow=classic;html=1;rounded=0;entryX=1;entryY=0.5;entryDx=0;entryDy=0;" parent="1" source="w8iW2eLROjgxSak4wuvQ-29" target="w8iW2eLROjgxSak4wuvQ-30" edge="1">
          <mxGeometry width="50" height="50" relative="1" as="geometry">
            <mxPoint x="1050" y="440" as="sourcePoint" />
            <mxPoint x="1010" y="520" as="targetPoint" />
          </mxGeometry>
        </mxCell>
        <mxCell id="w8iW2eLROjgxSak4wuvQ-32" value="&lt;font color=&quot;#0000ff&quot;&gt;访问并使用（通过局域网ip）&lt;/font&gt;" style="endArrow=classic;html=1;rounded=0;exitX=0;exitY=0.5;exitDx=0;exitDy=0;entryX=1;entryY=0.25;entryDx=0;entryDy=0;edgeStyle=orthogonalEdgeStyle;curved=1;strokeColor=#00FF00;" parent="1" source="w8iW2eLROjgxSak4wuvQ-20" target="w8iW2eLROjgxSak4wuvQ-2" edge="1">
          <mxGeometry width="50" height="50" relative="1" as="geometry">
            <mxPoint x="760" y="260" as="sourcePoint" />
            <mxPoint x="810" y="210" as="targetPoint" />
            <mxPoint as="offset" />
          </mxGeometry>
        </mxCell>
        <mxCell id="w8iW2eLROjgxSak4wuvQ-33" value="&lt;meta charset=&quot;utf-8&quot;&gt;&lt;span style=&quot;color: rgb(0, 0, 255); font-family: Helvetica; font-size: 11px; font-style: normal; font-variant-ligatures: normal; font-variant-caps: normal; font-weight: 400; letter-spacing: normal; orphans: 2; text-align: center; text-indent: 0px; text-transform: none; widows: 2; word-spacing: 0px; -webkit-text-stroke-width: 0px; white-space: nowrap; background-color: rgb(255, 255, 255); text-decoration-thickness: initial; text-decoration-style: initial; text-decoration-color: initial; display: inline !important; float: none;&quot;&gt;访问并使用（通过局域网ip）&lt;/span&gt;" style="endArrow=classic;html=1;rounded=0;exitX=0.017;exitY=0.383;exitDx=0;exitDy=0;exitPerimeter=0;entryX=1;entryY=0.5;entryDx=0;entryDy=0;strokeColor=#00FF00;" parent="1" source="w8iW2eLROjgxSak4wuvQ-24" target="w8iW2eLROjgxSak4wuvQ-2" edge="1">
          <mxGeometry width="50" height="50" relative="1" as="geometry">
            <mxPoint x="770" y="310" as="sourcePoint" />
            <mxPoint x="820" y="260" as="targetPoint" />
          </mxGeometry>
        </mxCell>
        <mxCell id="w8iW2eLROjgxSak4wuvQ-34" value="&lt;meta charset=&quot;utf-8&quot;&gt;&lt;span style=&quot;color: rgb(0, 0, 255); font-family: Helvetica; font-size: 11px; font-style: normal; font-variant-ligatures: normal; font-variant-caps: normal; font-weight: 400; letter-spacing: normal; orphans: 2; text-align: center; text-indent: 0px; text-transform: none; widows: 2; word-spacing: 0px; -webkit-text-stroke-width: 0px; white-space: nowrap; background-color: rgb(255, 255, 255); text-decoration-thickness: initial; text-decoration-style: initial; text-decoration-color: initial; display: inline !important; float: none;&quot;&gt;访问并使用（通过局域网ip）&lt;/span&gt;" style="endArrow=classic;html=1;rounded=0;exitX=0;exitY=0.5;exitDx=0;exitDy=0;entryX=0.983;entryY=0.65;entryDx=0;entryDy=0;entryPerimeter=0;edgeStyle=orthogonalEdgeStyle;curved=1;strokeColor=#00FF00;" parent="1" source="w8iW2eLROjgxSak4wuvQ-27" target="w8iW2eLROjgxSak4wuvQ-2" edge="1">
          <mxGeometry width="50" height="50" relative="1" as="geometry">
            <mxPoint x="770" y="410" as="sourcePoint" />
            <mxPoint x="820" y="360" as="targetPoint" />
          </mxGeometry>
        </mxCell>
        <mxCell id="w8iW2eLROjgxSak4wuvQ-35" value="&lt;meta charset=&quot;utf-8&quot;&gt;&lt;span style=&quot;color: rgb(0, 0, 255); font-family: Helvetica; font-size: 11px; font-style: normal; font-variant-ligatures: normal; font-variant-caps: normal; font-weight: 400; letter-spacing: normal; orphans: 2; text-align: center; text-indent: 0px; text-transform: none; widows: 2; word-spacing: 0px; -webkit-text-stroke-width: 0px; white-space: nowrap; background-color: rgb(255, 255, 255); text-decoration-thickness: initial; text-decoration-style: initial; text-decoration-color: initial; display: inline !important; float: none;&quot;&gt;访问并使用（通过局域网ip）&lt;/span&gt;" style="endArrow=classic;html=1;rounded=0;exitX=0;exitY=0.5;exitDx=0;exitDy=0;entryX=1;entryY=0.75;entryDx=0;entryDy=0;edgeStyle=orthogonalEdgeStyle;curved=1;strokeColor=#00FF00;" parent="1" source="w8iW2eLROjgxSak4wuvQ-30" target="w8iW2eLROjgxSak4wuvQ-2" edge="1">
          <mxGeometry width="50" height="50" relative="1" as="geometry">
            <mxPoint x="700" y="450" as="sourcePoint" />
            <mxPoint x="750" y="400" as="targetPoint" />
          </mxGeometry>
        </mxCell>
        <mxCell id="whFh8DAobWH6htXH0CzP-1" value="Weaviate&lt;div&gt;向量数据库&lt;/div&gt;" style="shape=cylinder3;whiteSpace=wrap;html=1;boundedLbl=1;backgroundOutline=1;size=15;fillColor=#fff2cc;strokeColor=#d6b656;" vertex="1" parent="1">
          <mxGeometry x="424.51" y="390" width="66" height="64" as="geometry" />
        </mxCell>
        <mxCell id="whFh8DAobWH6htXH0CzP-3" value="&lt;font color=&quot;#0000ff&quot;&gt;保存和查询知识库数据&lt;/font&gt;" style="endArrow=classic;html=1;rounded=0;exitX=0.5;exitY=1;exitDx=0;exitDy=0;entryX=0.5;entryY=0;entryDx=0;entryDy=0;entryPerimeter=0;strokeColor=#FF3333;" edge="1" parent="1" source="w8iW2eLROjgxSak4wuvQ-2" target="whFh8DAobWH6htXH0CzP-1">
          <mxGeometry width="50" height="50" relative="1" as="geometry">
            <mxPoint x="480" y="440" as="sourcePoint" />
            <mxPoint x="530" y="390" as="targetPoint" />
          </mxGeometry>
        </mxCell>
      </root>
    </mxGraphModel>
  </diagram>
</mxfile>
